<svg xmlns="http://www.w3.org/2000/svg" width="20" height="15.215" viewBox="0 0 20 15.215">
  <g id="Group_55" data-name="Group 55" transform="translate(-538 -746)">
    <g id="codeIcon" transform="translate(538 746)">
      <g id="Group_54" data-name="Group 54" transform="translate(0 0)">
        <path id="Path_278" data-name="Path 278" d="M68.27,26.324l-5.236-5.055a.458.458,0,0,0-.614,0l-1.135,1.1a.409.409,0,0,0,0,.593l3.794,3.662-3.794,3.663a.409.409,0,0,0,0,.593l1.135,1.1a.445.445,0,0,0,.614,0l5.236-5.054A.409.409,0,0,0,68.27,26.324Z" transform="translate(-48.397 -19.014)" fill="#23272a" />
        <path id="Path_279" data-name="Path 279" d="M7.111,30.266,3.318,26.6l3.794-3.662a.409.409,0,0,0,0-.593l-1.135-1.1a.445.445,0,0,0-.614,0L.126,26.307a.409.409,0,0,0,0,.593l5.236,5.054a.445.445,0,0,0,.614,0l1.135-1.1A.408.408,0,0,0,7.111,30.266Z" transform="translate(0.001 -18.997)" fill="#23272a" />
        <path id="Path_280" data-name="Path 280" d="M39.3,11.79a.432.432,0,0,0-.258-.2l-.92-.265a.436.436,0,0,0-.539.286l-4.272,14.1a.414.414,0,0,0,.035.322.432.432,0,0,0,.258.2l.92.265a.444.444,0,0,0,.123.018.433.433,0,0,0,.416-.3l4.272-14.1A.413.413,0,0,0,39.3,11.79Z" transform="translate(-26.324 -11.304)" fill="#23272a" />
      </g>
    </g>
  </g>
</svg>