<?xml version="1.0" encoding="UTF-8" standalone="no"?>
<svg
   version="1.1"
   viewBox="0 0 1152.4287 641.09692"
   width="1152.4287"
   height="641.09692"
   id="svg2264"
   sodipodi:docname="pablita-stepping-up.svg"
   inkscape:version="1.1.1 (3bf5ae0d25, 2021-09-20)"
   xmlns:inkscape="http://www.inkscape.org/namespaces/inkscape"
   xmlns:sodipodi="http://sodipodi.sourceforge.net/DTD/sodipodi-0.dtd"
   xmlns="http://www.w3.org/2000/svg"
   xmlns:svg="http://www.w3.org/2000/svg">
  <defs
     id="defs2268" />
  <sodipodi:namedview
     id="namedview2266"
     pagecolor="#ffffff"
     bordercolor="#999999"
     borderopacity="1"
     inkscape:pageshadow="0"
     inkscape:pageopacity="0"
     inkscape:pagecheckerboard="0"
     showgrid="false"
     inkscape:zoom="0.500625"
     inkscape:cx="327.59051"
     inkscape:cy="290.6367"
     inkscape:window-width="1920"
     inkscape:window-height="1009"
     inkscape:window-x="1912"
     inkscape:window-y="-8"
     inkscape:window-maximized="1"
     inkscape:current-layer="svg2264" />
  <!--ITEM 1-->
  <g
     id="g1561"
     transform="translate(-33.56705,-77.017449)">
    <defs
       id="defs1553">
      <clipPath
         id="clip-path-id-crop-item-1">
        <rect
           transform="scale(0.5588785,0.56140351)"
           x="0"
           y="0"
           width="213"
           height="175"
           id="rect1547" />
      </clipPath>
      <clipPath
         id="clip-path-id-viewbox-item-1">
        <rect
           x="0"
           y="0"
           width="119.6"
           height="224"
           id="rect1550" />
      </clipPath>
    </defs>
    <g
       clip-path="url(#clip-path-id-crop-item-1)"
       transform="matrix(1.7892977,0,0,1.78125,349,533)"
       id="g1559">
      <g
         clip-path="url(#clip-path-id-viewbox-item-1)"
         id="g1557">
        <rect
           width="119.6"
           height="224"
           style="fill:#82b1ff"
           id="rect1555"
           x="0"
           y="0" />
      </g>
    </g>
  </g>
  <!--ITEM 2-->
  <g
     id="g1576"
     transform="translate(-33.56705,-77.017449)">
    <defs
       id="defs1566">
      <clipPath
         id="clip-path-id-viewbox-item-2">
        <rect
           x="0"
           y="0"
           width="887.40002"
           height="14.1"
           id="rect1563" />
      </clipPath>
    </defs>
    <g
       transform="matrix(1.2835249,0,0,1.3475177,31,703)"
       id="g1574">
      <g
         clip-path="url(#clip-path-id-viewbox-item-2)"
         id="g1572">
        <g
           id="g1570">
          <path
             d="M 875.2,6.1 H 3.7 C 2.7,6.1 2,5.6 2,4.9 2,4.2 2.7,3.7 3.7,3.7 h 871.5 c 1,0 1.7,0.5 1.7,1.2 0,0.7 -0.9,1.2 -1.7,1.2 z"
             style="fill:#222433"
             id="path1568" />
        </g>
      </g>
    </g>
  </g>
  <!--ITEM 3-->
  <g
     id="g1592"
     transform="translate(-33.56705,-77.017449)">
    <defs
       id="defs1584">
      <clipPath
         id="clip-path-id-crop-item-3">
        <rect
           transform="scale(0.56150235,0.56423174)"
           x="0"
           y="0"
           width="212"
           height="86"
           id="rect1578" />
      </clipPath>
      <clipPath
         id="clip-path-id-viewbox-item-3">
        <rect
           x="0"
           y="0"
           width="119.6"
           height="224"
           id="rect1581" />
      </clipPath>
    </defs>
    <g
       clip-path="url(#clip-path-id-crop-item-3)"
       transform="matrix(1.7809365,0,0,1.7723214,70,623)"
       id="g1590">
      <g
         clip-path="url(#clip-path-id-viewbox-item-3)"
         id="g1588">
        <rect
           width="119.6"
           height="224"
           style="fill:#82b1ff"
           id="rect1586"
           x="0"
           y="0" />
      </g>
    </g>
  </g>
  <!--ITEM 4-->
  <g
     id="g1608"
     transform="translate(-33.56705,-77.017449)">
    <defs
       id="defs1600">
      <clipPath
         id="clip-path-id-crop-item-4">
        <rect
           transform="scale(0.56150235,0.56423174)"
           x="0"
           y="0"
           width="213"
           height="268"
           id="rect1594" />
      </clipPath>
      <clipPath
         id="clip-path-id-viewbox-item-4">
        <rect
           x="0"
           y="0"
           width="119.6"
           height="224"
           id="rect1597" />
      </clipPath>
    </defs>
    <g
       clip-path="url(#clip-path-id-crop-item-4)"
       transform="matrix(1.7809365,0,0,1.7723214,629,441)"
       id="g1606">
      <g
         clip-path="url(#clip-path-id-viewbox-item-4)"
         id="g1604">
        <rect
           width="119.6"
           height="224"
           style="fill:#82b1ff"
           id="rect1602"
           x="0"
           y="0" />
      </g>
    </g>
  </g>
  <!--ITEM 5-->
  <g
     id="g1624"
     transform="translate(-33.56705,-77.017449)">
    <defs
       id="defs1616">
      <clipPath
         id="clip-path-id-crop-item-5">
        <rect
           transform="scale(0.56682464,0.56852792)"
           x="0"
           y="0"
           width="211"
           height="353"
           id="rect1610" />
      </clipPath>
      <clipPath
         id="clip-path-id-viewbox-item-5">
        <rect
           x="0"
           y="0"
           width="119.6"
           height="224"
           id="rect1613" />
      </clipPath>
    </defs>
    <g
       clip-path="url(#clip-path-id-crop-item-5)"
       transform="matrix(1.764214,0,0,1.7589286,910,355)"
       id="g1622">
      <g
         clip-path="url(#clip-path-id-viewbox-item-5)"
         id="g1620">
        <rect
           width="119.6"
           height="224"
           style="fill:#82b1ff"
           id="rect1618"
           x="0"
           y="0" />
      </g>
    </g>
  </g>
  <!--ITEM 6-->
  <g
     id="g1657"
     transform="translate(-33.56705,-77.017449)">
    <defs
       id="defs1629">
      <clipPath
         id="clip-path-id-viewbox-item-6">
        <rect
           x="0"
           y="0"
           width="138.875"
           height="455.76099"
           id="rect1626" />
      </clipPath>
    </defs>
    <g
       transform="matrix(0.47266286,-0.04949775,0.0493608,0.4713551,551.93111,497.02436)"
       id="g1655">
      <g
         clip-path="url(#clip-path-id-viewbox-item-6)"
         id="g1653">
        <g
           id="g1651">
          <g
             id="g1635">
            <path
               d="m 112.112,137.529 -35.36,21.179 -21.179,-35.36 a 48.7,48.7 0 0 1 16.649,-66.83 l 0.132,-0.079 35.36,-21.179 21.179,35.36 a 48.7,48.7 0 0 1 -16.649,66.83 z"
               transform="translate(0.001)"
               style="fill:#ffffff"
               id="path1631" />
            <path
               d="M 76.752,161.708 A 3,3 0 0 1 74.179,160.25 L 53,124.89 A 51.7,51.7 0 0 1 70.676,53.947 l 0.134,-0.08 35.363,-21.181 a 3,3 0 0 1 4.114,1.032 l 21.179,35.361 a 51.7,51.7 0 0 1 -17.676,70.942 l -0.134,0.08 v 0 l -35.362,21.181 a 3.006,3.006 0 0 1 -1.542,0.426 z m 29.93,-122.333 -32.9,19.7 A 45.7,45.7 0 0 0 58.145,121.8 l 19.639,32.79 32.916,-19.713 a 45.7,45.7 0 0 0 15.621,-62.711 z m 5.43,98.154 z"
               transform="translate(0.001)"
               style="fill:#222433"
               id="path1633" />
          </g>
          <path
             d="M 3,455.761 A 3.032,3.032 0 0 1 2.268,455.67 3,3 0 0 1 0.088,452.03 L 88.146,100.946 a 3.0006516,3.0006516 0 0 1 5.821,1.46 L 5.91,453.489 A 3,3 0 0 1 3,455.761 Z"
             transform="translate(0.001)"
             style="fill:#222433"
             id="path1637" />
          <path
             d="m 107.716,38.262 a 3.032,3.032 0 0 1 -0.732,-0.091 3,3 0 0 1 -2.18,-3.64 l 7.988,-31.85 a 3.0001667,3.0001667 0 0 1 5.82,1.46 l -7.988,31.85 a 3,3 0 0 1 -2.908,2.271 z"
             transform="translate(0.001)"
             style="fill:#222433"
             id="path1639" />
          <path
             d="m 107.71,38.262 a 3,3 0 0 1 -2.95,-2.48 L 99.074,3.521 a 3,3 0 1 1 5.908,-1.042 l 5.686,32.262 a 3,3 0 0 1 -2.958,3.521 z"
             transform="translate(0.001)"
             style="fill:#222433"
             id="path1641" />
          <path
             d="m 107.712,38.261 a 3,3 0 0 1 -2.351,-4.862 L 125.724,7.671 a 3,3 0 0 1 4.7,3.724 l -20.358,25.728 a 2.992,2.992 0 0 1 -2.354,1.138 z"
             transform="translate(0.001)"
             style="fill:#222433"
             id="path1643" />
          <g
             id="g1649">
            <circle
               cx="70.963997"
               cy="181.959"
               r="23.801001"
               style="fill:#ffffff"
               id="circle1645" />
            <path
               d="m 70.963,208.76 a 26.8,26.8 0 1 1 26.8,-26.8 26.832,26.832 0 0 1 -26.8,26.8 z m 0,-47.6 a 20.8,20.8 0 1 0 20.8,20.8 20.824,20.824 0 0 0 -20.8,-20.802 z"
               transform="translate(0.001)"
               style="fill:#222433"
               id="path1647" />
          </g>
        </g>
      </g>
    </g>
  </g>
  <!--ITEM 7-->
  <g
     id="g1676"
     transform="translate(-33.56705,-77.017449)">
    <defs
       id="defs1662">
      <clipPath
         id="clip-path-id-viewbox-item-7">
        <rect
           x="0"
           y="0"
           width="105.972"
           height="180.94299"
           id="rect1659" />
      </clipPath>
    </defs>
    <g
       transform="matrix(0.45868317,0.14567144,-0.1455368,0.45825924,297.36315,618.32205)"
       id="g1674">
      <g
         clip-path="url(#clip-path-id-viewbox-item-7)"
         id="g1672">
        <path
           d="m 66.777,180.943 a 3,3 0 0 1 -2.978,-2.669 l -14.9,-134 a 3,3 0 0 1 5.963,-0.663 l 14.9,134 a 3,3 0 0 1 -2.65,3.313 2.919,2.919 0 0 1 -0.335,0.019 z"
           fill="#222433"
           id="path1664" />
        <path
           d="M 21.01,48.587 A 21.062,21.062 0 0 1 4.626,14.357 20.927,20.927 0 0 1 18.765,6.587 L 77,0.129 A 21.065,21.065 0 0 1 100.237,18.765 21.1,21.1 0 0 1 81.6,42 v 0 L 23.365,48.456 A 21.46,21.46 0 0 1 21.01,48.587 Z M 79.34,6 A 15.082,15.082 0 0 0 77.66,6.094 L 19.424,12.551 A 15.06,15.06 0 0 0 22.7,42.492 L 80.936,36.034 A 15.059,15.059 0 0 0 88.713,9.31 14.923,14.923 0 0 0 79.34,6 Z m 1.929,33.017 z M 16.938,35.077 A 6.972,6.972 0 0 1 12.532,33.515 7.061,7.061 0 0 1 16.2,20.993 v 0 l 66.1,-7.331 a 7.05,7.05 0 0 1 7.786,6.254 7.071,7.071 0 0 1 -6.251,7.784 l -66.1,7.331 a 7.309,7.309 0 0 1 -0.797,0.046 z m -0.077,-8.121 a 1.087,1.087 0 0 0 -0.732,0.395 1.017,1.017 0 0 0 -0.221,0.765 1.084,1.084 0 0 0 0.394,0.732 1.006,1.006 0 0 0 0.767,0.222 l 66.1,-7.332 a 1.051,1.051 0 0 0 0.953,-1.161 1.084,1.084 0 0 0 -0.394,-0.73 1,1 0 0 0 -0.767,-0.222 z"
           fill="#222433"
           id="path1666" />
        <path
           d="m 88.881,103.688 c -4.052,0 -10.525,-1.817 -19.711,-5.526 -7.226,-2.919 -13.347,-5.9 -13.6,-6.023 A 3,3 0 0 1 55,87.105 C 57.271,85.278 77.433,69.229 86.15,68.261 a 17.867,17.867 0 0 1 19.713,15.75 17.865,17.865 0 0 1 -15.751,19.613 v 0 a 11.031,11.031 0 0 1 -1.231,0.064 z M 62.568,88.8 c 9.446,4.306 22.342,9.36 26.882,8.857 v 0 a 11.759,11.759 0 0 0 7.928,-4.4 A 11.609,11.609 0 0 0 99.9,84.678 11.853,11.853 0 0 0 86.812,74.224 C 82.3,74.726 70.824,82.511 62.568,88.8 Z"
           fill="#222433"
           id="path1668" />
        <path
           d="M 25.576,110.637 A 17.787,17.787 0 0 1 14.396,106.709 17.509,17.509 0 0 1 7.9,94.87 17.877,17.877 0 0 1 23.65,75.161 c 3.907,-0.435 10.762,1.352 20.942,5.462 7.227,2.919 13.348,5.9 13.605,6.023 a 3,3 0 0 1 0.565,5.034 c -2.27,1.827 -22.433,17.876 -31.15,18.844 v 0 a 18.373,18.373 0 0 1 -2.036,0.113 z M 24.994,81.09 a 6.285,6.285 0 0 0 -0.682,0.034 11.868,11.868 0 0 0 -10.448,13.091 11.545,11.545 0 0 0 4.283,7.812 11.884,11.884 0 0 0 8.8,2.534 v 0 c 4.516,-0.5 15.992,-8.287 24.246,-14.58 C 42.187,85.874 30.02,81.09 24.994,81.09 Z"
           fill="#222433"
           id="path1670" />
      </g>
    </g>
  </g>
  <!--ITEM 8-->
  <g
     id="g1694"
     transform="translate(-33.56705,-77.017449)">
    <defs
       id="defs1684">
      <clipPath
         id="clip-path-id-crop-item-8">
        <rect
           transform="scale(2.1047619,2.1012658)"
           x="0"
           y="0"
           width="21"
           height="65"
           id="rect1678" />
      </clipPath>
      <clipPath
         id="clip-path-id-viewbox-item-8">
        <rect
           x="0"
           y="0"
           width="44.200001"
           height="166"
           id="rect1681" />
      </clipPath>
    </defs>
    <g
       clip-path="url(#clip-path-id-crop-item-8)"
       transform="matrix(-0.46352885,-0.10427598,-0.10444947,0.46430007,618.41329,647.26759)"
       id="g1692">
      <g
         clip-path="url(#clip-path-id-viewbox-item-8)"
         id="g1690">
        <path
           d="m 22.1,166 a 3,3 0 0 1 -3,-3 V 22.1 a 3,3 0 0 1 6,0 V 163 a 3,3 0 0 1 -3,3 z"
           fill="#222433"
           id="path1686" />
        <path
           d="M 22.1,44.2 A 22.1,22.1 0 1 1 44.2,22.1 22.125,22.125 0 0 1 22.1,44.2 Z M 22.1,6 A 16.1,16.1 0 1 0 38.2,22.1 16.118,16.118 0 0 0 22.1,6 Z"
           fill="#222433"
           id="path1688" />
      </g>
    </g>
  </g>
  <!--ITEM 9-->
  <g
     id="g1719"
     transform="translate(-33.56705,-77.017449)">
    <defs
       id="defs1699">
      <clipPath
         id="clip-path-id-viewbox-item-9">
        <rect
           x="0"
           y="0"
           width="86.356003"
           height="328.724"
           id="rect1696" />
      </clipPath>
    </defs>
    <g
       transform="matrix(-0.42738256,0.1047778,0.10503034,0.42841267,559.19053,564.56114)"
       id="g1717">
      <g
         clip-path="url(#clip-path-id-viewbox-item-9)"
         id="g1715">
        <g
           id="g1713">
          <path
             d="m 51.875,328.723 a 3,3 0 0 1 -3,-2.894 L 37.451,3.106 a 3.0018721,3.0018721 0 0 1 6,-0.212 l 11.424,322.722 a 3,3 0 0 1 -2.892,3.105 z"
             transform="translate(0,0.002)"
             style="fill:#222433"
             id="path1701" />
          <g
             id="g1711">
            <path
               d="M 42.021,50.98 A 3,3 0 0 1 39.516,49.63 L 20.336,20.5 a 3.0004226,3.0004226 0 1 1 5.012,-3.3 L 41.817,42.214 56.5,16.053 a 3,3 0 1 1 5.232,2.936 L 44.639,49.448 a 3,3 0 0 1 -2.511,1.53 z"
               transform="translate(0,0.002)"
               style="fill:#222433"
               id="path1703" />
            <path
               d="M 43.069,81.176 A 3,3 0 0 1 40.557,79.814 L 12.842,37.319 a 3,3 0 1 1 5.026,-3.277 l 25,38.331 22.293,-40.051 A 3,3 0 1 1 70.4,35.24 l -24.712,44.4 a 3,3 0 0 1 -2.516,1.539 z"
               transform="translate(0,0.002)"
               style="fill:#222433"
               id="path1705" />
            <path
               d="m 44.328,115.671 a 3,3 0 0 1 -2.505,-1.35 L 5.869,59.727 a 3,3 0 0 1 5.01,-3.3 l 33.245,50.479 29.6,-52.733 a 3,3 0 1 1 5.232,2.936 l -32.01,57.03 a 3,3 0 0 1 -2.509,1.53 z"
               transform="translate(0,0.002)"
               style="fill:#222433"
               id="path1707" />
            <path
               d="m 45.482,148.908 a 3,3 0 0 1 -2.5,-1.349 L 0.5,83.1 A 3,3 0 1 1 5.51,79.8 L 45.284,140.147 80.74,77.1 a 3.0007801,3.0007801 0 0 1 5.231,2.942 L 48.1,147.379 a 3,3 0 0 1 -2.51,1.527 c -0.037,0.002 -0.072,0.002 -0.108,0.002 z"
               transform="translate(0,0.002)"
               style="fill:#222433"
               id="path1709" />
          </g>
        </g>
      </g>
    </g>
  </g>
  <!--ITEM 10-->
  <g
     id="g1754"
     transform="translate(-33.56705,-77.017449)">
    <defs
       id="defs1724">
      <clipPath
         id="clip-path-id-viewbox-item-10">
        <rect
           x="0"
           y="0"
           width="158.23199"
           height="293.14899"
           id="rect1721" />
      </clipPath>
    </defs>
    <g
       transform="matrix(0.44870823,0,0,0.44687173,1115,580)"
       id="g1752">
      <g
         clip-path="url(#clip-path-id-viewbox-item-10)"
         id="g1750">
        <g
           id="g1748">
          <g
             id="g1730">
            <path
               d="m 149.068,39.169 c -6.06,-3.672 -13.95,-1.735 -17.621,4.326 -0.003,0.005 -0.006,0.01 -0.009,0.015 3.673,-6.075 1.725,-13.977 -4.35,-17.65 -6.075,-3.673 -13.977,-1.725 -17.65,4.35 l -33.82,55.57 8.83,-64.45 C 85.315,14.292 80.312,7.884 73.274,7.017 66.396,6.17 60.087,10.933 59.018,17.78 60.088,10.77 55.273,4.22 48.263,3.15 c -7.01,-1.07 -13.56,3.745 -14.63,10.755 -0.016,0.105 -0.031,0.21 -0.044,0.315 l -1.19,8.47 -8,57.15 c -2.833,20.208 6.492,40.191 23.8,51 l -0.09,0.13 v 0 c 6.23,3.716 13.132,6.17 20.31,7.22 v 0 -0.16 c 20.237,2.538 40.073,-7.069 50.63,-24.52 l 29.87,-49.37 4.43,-7.32 c 3.694,-6.047 1.787,-13.943 -4.259,-17.637 -0.008,-0.005 -0.015,-0.01 -0.022,-0.014 z"
               style="fill:#ffffff"
               id="path1726" />
            <path
               d="m 74.838,141.431 c -1.922,0 -3.854,-0.102 -5.791,-0.309 -0.345,0.075 -0.705,0.088 -1.063,0.035 -7.606,-1.112 -14.81,-3.673 -21.413,-7.611 -0.309,-0.185 -0.58,-0.421 -0.801,-0.696 C 28.015,121.309 18.478,100.452 21.427,79.423 L 30.666,13.454 C 31.984,4.818 40.079,-1.131 48.715,0.183 53.93,0.979 58.166,4.248 60.413,8.615 63.742,5.236 68.548,3.414 73.64,4.039 c 8.669,1.067 14.853,8.988 13.785,17.657 l -6.88,50.216 26.329,-43.262 c 4.518,-7.473 14.283,-9.879 21.765,-5.358 4.519,2.732 7.187,7.377 7.594,12.276 0.775,-0.327 1.581,-0.594 2.413,-0.798 4.107,-1.009 8.36,-0.357 11.976,1.834 0.009,0.006 0.019,0.011 0.028,0.017 0.003,0.002 0.011,0.007 0.014,0.009 l -10e-4,10e-4 c 7.456,4.617 9.778,14.333 5.245,21.753 l -34.293,56.679 c -9.971,16.482 -27.827,26.367 -46.777,26.368 z m -6.42,-6.402 c 0.124,0 0.249,0.008 0.373,0.023 19.038,2.387 37.759,-6.678 47.69,-23.096 l 34.301,-56.69 c 2.832,-4.636 1.368,-10.699 -3.257,-13.524 l 1.543,-2.573 -1.554,2.566 c -2.246,-1.36 -4.886,-1.766 -7.437,-1.139 -2.545,0.625 -4.696,2.202 -6.056,4.441 -0.005,0.008 -0.01,0.017 -0.015,0.025 -0.856,1.416 -2.697,1.872 -4.115,1.018 -1.305,-0.786 -1.798,-2.409 -1.202,-3.77 0.052,-0.12 0.113,-0.237 0.183,-0.353 2.811,-4.65 1.315,-10.72 -3.335,-13.531 -4.651,-2.811 -10.72,-1.315 -13.531,3.335 L 78.181,87.339 c -0.739,1.214 -2.228,1.745 -3.567,1.267 -1.339,-0.476 -2.16,-1.826 -1.968,-3.234 l 8.83,-64.45 c 0.316,-2.568 -0.398,-5.146 -2.015,-7.217 -1.617,-2.071 -3.945,-3.39 -6.553,-3.711 -5.3,-0.657 -10.101,2.97 -10.925,8.249 -0.255,1.635 -1.788,2.755 -3.422,2.502 C 56.926,20.493 55.803,18.963 56.053,17.328 56.872,11.964 53.174,6.934 47.81,6.116 42.448,5.295 37.417,8.994 36.598,14.359 l -1.229,8.75 -8,57.149 c -2.666,19.013 6.134,37.87 22.418,48.04 0.254,0.159 0.481,0.353 0.674,0.575 5.422,3.104 11.282,5.188 17.445,6.204 0.168,-0.033 0.339,-0.048 0.512,-0.048 z"
               style="fill:#222433"
               id="path1728" />
          </g>
          <g
             id="g1734">
            <path
               d="m 105.835,88.82 c -0.529,0 -1.064,-0.14 -1.55,-0.434 -1.417,-0.858 -1.872,-2.702 -1.014,-4.12 l 26.13,-43.19 c 0.858,-1.417 2.702,-1.871 4.12,-1.014 1.417,0.858 1.872,2.702 1.014,4.12 l -26.13,43.19 c -0.564,0.932 -1.555,1.448 -2.57,1.448 z"
               style="fill:#222433"
               id="path1732" />
          </g>
          <g
             id="g1738">
            <path
               d="m 3,293.15 c -0.333,0 -0.673,-0.056 -1.005,-0.174 -1.561,-0.555 -2.377,-2.27 -1.822,-3.832 l 62.538,-175.95 c 0.555,-1.561 2.271,-2.377 3.831,-1.822 1.561,0.555 2.377,2.27 1.822,3.832 L 5.827,291.154 C 5.39,292.383 4.234,293.15 3,293.15 Z"
               style="fill:#222433"
               id="path1736" />
          </g>
          <g
             id="g1742">
            <path
               d="m 52.202,69.75 c -0.138,0 -0.278,-0.01 -0.419,-0.029 -1.641,-0.229 -2.785,-1.746 -2.556,-3.387 l 6.99,-49.99 c 0.229,-1.641 1.741,-2.782 3.387,-2.556 1.641,0.229 2.785,1.746 2.556,3.387 l -6.99,49.99 c -0.211,1.5 -1.496,2.585 -2.968,2.585 z"
               style="fill:#222433"
               id="path1740" />
          </g>
          <g
             id="g1746">
            <path
               d="m 57.948,138.56 c -0.333,0 -0.673,-0.056 -1.005,-0.174 -1.561,-0.555 -2.376,-2.271 -1.822,-3.832 l 17.7,-49.78 c 0.555,-1.561 2.271,-2.377 3.832,-1.822 1.561,0.555 2.377,2.271 1.822,3.832 l -17.7,49.78 c -0.437,1.229 -1.593,1.996 -2.827,1.996 z"
               style="fill:#222433"
               id="path1744" />
          </g>
        </g>
      </g>
    </g>
  </g>
  <!--ITEM 11-->
  <g
     id="g1775"
     transform="translate(-33.56705,-77.017449)">
    <defs
       id="defs1759">
      <clipPath
         id="clip-path-id-viewbox-item-11">
        <rect
           x="0"
           y="0"
           width="37.400002"
           height="88.300003"
           id="rect1756" />
      </clipPath>
    </defs>
    <g
       transform="matrix(0.48128342,0,0,0.47565119,533,667)"
       id="g1773">
      <g
         clip-path="url(#clip-path-id-viewbox-item-11)"
         id="g1771">
        <g
           id="g1769">
          <path
             d="M 33.7,88.3 A 3,3 0 0 1 30.776,85.958 L 19.223,34.674 a 3.0002683,3.0002683 0 1 1 5.854,-1.318 L 36.626,84.641 A 3,3 0 0 1 33.7,88.3 Z"
             style="fill:#222433"
             id="path1761" />
          <g
             id="g1767">
            <circle
               cx="18.700001"
               cy="18.700001"
               r="15.7"
               style="fill:#ffffff"
               id="circle1763" />
            <path
               d="M 18.7,37.4 A 18.7,18.7 0 1 1 37.4,18.7 18.721,18.721 0 0 1 18.7,37.4 Z M 18.7,6 A 12.7,12.7 0 1 0 31.4,18.7 12.715,12.715 0 0 0 18.7,6 Z"
               style="fill:#222433"
               id="path1765" />
          </g>
        </g>
      </g>
    </g>
  </g>
  <!--ITEM 12-->
  <g
     id="g1817"
     transform="translate(-33.56705,-77.017449)">
    <defs
       id="defs1783">
      <clipPath
         id="clip-path-id-crop-item-12">
        <rect
           transform="scale(2.0242105,2.0322556)"
           x="0"
           y="0"
           width="56"
           height="192"
           id="rect1777" />
      </clipPath>
      <clipPath
         id="clip-path-id-viewbox-item-12">
        <rect
           x="0"
           y="0"
           width="115.38"
           height="540.58002"
           id="rect1780" />
      </clipPath>
    </defs>
    <g
       clip-path="url(#clip-path-id-crop-item-12)"
       transform="matrix(0.49140989,-0.05071336,0.0505126,0.48946454,1051.4975,522.62828)"
       id="g1815">
      <g
         clip-path="url(#clip-path-id-viewbox-item-12)"
         id="g1813">
        <g
           id="g1811">
          <g
             id="g1789">
            <path
               d="M 101.47,3 V 3 C 95.434,2.994 90.536,7.884 90.53,13.92 c 0,0.003 0,0.007 0,0.01 C 90.53,7.894 85.636,3 79.6,3 79.597,3 79.593,3 79.59,3 V 3 C 73.554,3 68.66,7.894 68.66,13.93 68.66,7.894 63.766,3 57.73,3 57.727,3 57.723,3 57.72,3 V 3 C 51.684,2.994 46.786,7.884 46.78,13.92 c 0,0.003 0,0.007 0,0.01 C 46.78,7.901 41.899,3.011 35.87,3 v 0 c -6.036,-0.039 -10.961,4.823 -11,10.86 0,0.023 0,0.047 0,0.07 C 24.87,7.894 19.976,3 13.94,3 V 3 C 7.904,2.995 3.006,7.884 3,13.92 c 0,0.003 0,0.007 0,0.01 V 59.7 c -0.005,30.199 24.471,54.684 54.67,54.69 0.007,0 0.013,0 0.02,0 v 0 c 30.204,0 54.69,-24.486 54.69,-54.69 v 0 -45.77 C 112.38,7.902 107.499,3.011 101.47,3 Z"
               style="fill:#ffffff"
               id="path1785" />
            <path
               d="M 57.69,117.39 C 42.263,117.387 27.779,111.385 16.887,100.489 5.994,89.592 -0.003,75.107 0,59.7 V 13.93 C 0.007,6.241 6.255,0 13.93,0 c 0.004,0 0.009,0 0.013,0 4.428,0 8.382,2.079 10.934,5.312 C 27.45,2.047 31.449,-0.02 35.889,0 40.295,0.008 44.232,2.083 46.78,5.306 49.334,2.074 53.284,0 57.71,0 c 0.004,0 0.009,0 0.013,0 4.43,0 8.383,2.075 10.937,5.304 C 71.213,2.075 75.164,0 79.59,0 84.023,0 87.976,2.076 90.531,5.305 93.084,2.074 97.035,0 101.46,0 c 0.005,0 0.01,0 0.016,0 7.667,0.014 13.905,6.263 13.905,13.93 V 59.7 C 115.38,91.511 89.5,117.39 57.69,117.39 Z M 13.933,6 C 9.561,6 6.004,9.552 6,13.923 V 59.7 c -0.002,13.805 5.371,26.784 15.13,36.546 9.759,9.763 22.736,15.141 36.54,15.144 28.521,0 51.71,-23.188 51.71,-51.69 V 13.93 c 0,-4.365 -3.551,-7.922 -7.916,-7.93 -0.001,0 -0.003,0 -0.004,0 -4.37,0 -7.926,3.552 -7.93,7.923 0,0 0,10e-4 0,10e-4 0,0.001 0,0.004 0,0.006 0,1.657 -1.343,3 -3,3 -1.634,0 -2.963,-1.307 -2.999,-2.932 0,-10e-4 0,-0.003 0,-0.005 v 0 c 0,-10e-4 0,-0.002 0,-0.004 0,0 0,0 0,-0.001 0,-0.003 0,-0.005 0,-0.008 0,-0.001 0,-0.002 0,-0.004 0,-0.002 0,-0.003 0,-0.005 0,0 0,-10e-4 0,-0.002 0,-0.007 0,-0.015 0,-0.022 0,-0.006 0,-0.011 0,-0.017 C 87.53,9.558 83.973,6 79.6,6 c -4.383,0 -7.94,3.558 -7.94,7.93 0,1.657 -1.343,3 -3,3 -1.657,0 -3,-1.343 -3,-3 C 65.66,9.557 62.103,6 57.73,6 c -0.002,0 -0.005,0 -0.007,0 -4.382,0 -7.939,3.552 -7.943,7.923 0,0 0,10e-4 0,10e-4 0,0.001 0,0.004 0,0.006 0,1.657 -1.343,3 -3,3 -1.636,0 -2.966,-1.309 -2.999,-2.937 0,-10e-4 0,-0.002 0,-0.004 0,-0.001 0,-0.003 0,-0.003 0,-0.001 0,-0.001 0,-0.002 0,-0.004 0,-0.008 0,-0.013 0,0 0,-10e-4 0,-0.002 0,-0.002 0,-0.005 0,-0.008 0,-10e-4 0,-0.002 0,-0.003 0,-0.004 0,-0.007 0,-0.011 0,-0.006 0,-0.011 0,-0.017 0,-4.365 -3.551,-7.922 -7.916,-7.93 -0.017,0 -0.035,0 -0.052,0 -4.363,0 -7.915,3.523 -7.943,7.879 0,0 0,0.001 0,0.002 0,0.016 0,0.032 0,0.048 0,1.657 -1.343,3 -3,3 -1.642,0 -2.976,-1.32 -3,-2.957 v 0 c 0,-10e-4 0,-0.003 0,-0.004 0,-10e-4 0,-0.003 0,-0.005 0,-0.002 0,-0.004 0,-0.005 0,0 0,-10e-4 0,-10e-4 0,-0.002 0,-0.005 0,-0.008 0,-10e-4 0,-0.002 0,-0.004 0,0 0,-10e-4 0,-0.002 0,-0.004 0,-0.009 0,-0.013 C 21.87,9.557 18.313,6 13.94,6 13.938,6 13.935,6 13.933,6 Z"
               style="fill:#222433"
               id="path1787" />
          </g>
          <g
             id="g1793">
            <path
               d="m 57.72,540.58 c -1.657,0 -3,-1.343 -3,-3 V 116.15 c 0,-1.657 1.343,-3 3,-3 1.657,0 3,1.343 3,3 v 421.43 c 0,1.657 -1.343,3 -3,3 z"
               style="fill:#222433"
               id="path1791" />
          </g>
          <g
             id="g1797">
            <path
               d="m 90.53,59.06 c -1.657,0 -3,-1.343 -3,-3 v -43 c 0,-1.657 1.343,-3 3,-3 1.657,0 3,1.343 3,3 v 43 c 0,1.657 -1.343,3 -3,3 z"
               style="fill:#222433"
               id="path1795" />
          </g>
          <g
             id="g1801">
            <path
               d="m 68.65,59.06 c -1.657,0 -3,-1.343 -3,-3 v -43 c 0,-1.657 1.343,-3 3,-3 1.657,0 3,1.343 3,3 v 43 c 0,1.657 -1.343,3 -3,3 z"
               style="fill:#222433"
               id="path1799" />
          </g>
          <g
             id="g1805">
            <path
               d="m 46.78,59.06 c -1.657,0 -3,-1.343 -3,-3 v -43 c 0,-1.657 1.343,-3 3,-3 1.657,0 3,1.343 3,3 v 43 c 0,1.657 -1.343,3 -3,3 z"
               style="fill:#222433"
               id="path1803" />
          </g>
          <g
             id="g1809">
            <path
               d="m 24.9,59.06 c -1.657,0 -3,-1.343 -3,-3 v -43 c 0,-1.657 1.343,-3 3,-3 1.657,0 3,1.343 3,3 v 43 c 0,1.657 -1.343,3 -3,3 z"
               style="fill:#222433"
               id="path1807" />
          </g>
        </g>
      </g>
    </g>
  </g>
  <!--ITEM 13-->
  <g
     id="g1865"
     transform="translate(-33.56705,-77.017449)">
    <defs
       id="defs1825">
      <clipPath
         id="clip-path-id-crop-item-13">
        <rect
           transform="scale(1.9825397,2.00125)"
           x="0"
           y="0"
           width="62"
           height="230"
           id="rect1819" />
      </clipPath>
      <clipPath
         id="clip-path-id-viewbox-item-13">
        <rect
           x="0"
           y="0"
           width="124.9"
           height="480.29999"
           id="rect1822" />
      </clipPath>
    </defs>
    <g
       clip-path="url(#clip-path-id-crop-item-13)"
       transform="matrix(0.49933696,0.0713128,-0.07064608,0.4946685,845.28206,477.75188)"
       id="g1863">
      <g
         clip-path="url(#clip-path-id-viewbox-item-13)"
         id="g1861">
        <g
           id="g1859">
          <g
             id="g1831">
            <circle
               cx="59.799999"
               cy="32.299999"
               r="29.299999"
               style="fill:#ffffff"
               id="circle1827" />
            <path
               d="M 59.8,64.6 A 32.3,32.3 0 1 1 92.1,32.3 32.337,32.337 0 0 1 59.8,64.6 Z M 59.8,6 A 26.3,26.3 0 1 0 86.1,32.3 26.33,26.33 0 0 0 59.8,6 Z"
               style="fill:#222433"
               id="path1829" />
          </g>
          <g
             id="g1837">
            <circle
               cx="90.800003"
               cy="94.800003"
               r="29.299999"
               style="fill:#ffffff"
               id="circle1833" />
            <path
               d="m 90.8,127.1 a 32.3,32.3 0 1 1 32.3,-32.3 32.336,32.336 0 0 1 -32.3,32.3 z m 0,-58.6 A 26.3,26.3 0 1 0 117.1,94.8 26.33,26.33 0 0 0 90.8,68.5 Z"
               style="fill:#222433"
               id="path1835" />
          </g>
          <g
             id="g1843">
            <circle
               cx="32.299999"
               cy="96.400002"
               r="29.299999"
               style="fill:#ffffff"
               id="circle1839" />
            <path
               d="M 32.3,128.7 A 32.3,32.3 0 1 1 64.6,96.4 32.337,32.337 0 0 1 32.3,128.7 Z m 0,-58.6 A 26.3,26.3 0 1 0 58.6,96.4 26.33,26.33 0 0 0 32.3,70.1 Z"
               style="fill:#222433"
               id="path1841" />
          </g>
          <g
             id="g1849">
            <circle
               cx="92.599998"
               cy="159.89999"
               r="29.299999"
               style="fill:#ffffff"
               id="circle1845" />
            <path
               d="m 92.6,192.2 a 32.3,32.3 0 1 1 32.3,-32.3 32.336,32.336 0 0 1 -32.3,32.3 z m 0,-58.6 a 26.3,26.3 0 1 0 26.3,26.3 26.33,26.33 0 0 0 -26.3,-26.3 z"
               style="fill:#222433"
               id="path1847" />
          </g>
          <g
             id="g1855">
            <circle
               cx="34.000999"
               cy="161.39999"
               r="29.299999"
               style="fill:#ffffff"
               id="circle1851" />
            <path
               d="M 34,193.7 A 32.3,32.3 0 1 1 66.3,161.4 32.337,32.337 0 0 1 34,193.7 Z m 0,-58.6 A 26.3,26.3 0 1 0 60.3,161.4 26.33,26.33 0 0 0 34,135.1 Z"
               style="fill:#222433"
               id="path1853" />
          </g>
          <path
             d="m 71.9,480.3 a 3,3 0 0 1 -3,-2.919 L 57.206,46.165 a 3.0011205,3.0011205 0 0 1 6,-0.164 L 74.9,477.219 a 3,3 0 0 1 -2.918,3.08 z"
             style="fill:#222433"
             id="path1857" />
        </g>
      </g>
    </g>
  </g>
  <!--ITEM 14-->
  <g
     id="g1892"
     transform="translate(-33.56705,-77.017449)">
    <defs
       id="defs1870">
      <clipPath
         id="clip-path-id-viewbox-item-14">
        <rect
           x="0"
           y="0"
           width="80.401001"
           height="131.202"
           id="rect1867" />
      </clipPath>
    </defs>
    <g
       transform="matrix(0.42288031,0,0,0.41920093,242,656)"
       id="g1890">
      <g
         clip-path="url(#clip-path-id-viewbox-item-14)"
         id="g1888">
        <g
           id="g1886">
          <g
             id="g1876">
            <path
               d="M 16.8,60.1 16.2,51 A 34.42,34.42 0 0 0 7,29.7 L 3,25.4 77.4,20.5 74,25.3 a 34.363,34.363 0 0 0 -6.3,22.4 l 0.6,9.1 A 25.75,25.75 0 0 1 44.31,84.2 H 44.3 A 25.794,25.794 0 0 1 16.808,60.224 Z"
               transform="translate(0,0.002)"
               style="fill:#ffffff"
               id="path1872" />
            <path
               d="M 42.5,87.262 A 28.8,28.8 0 0 1 13.815,60.428 l -0.009,-0.131 -0.6,-9.1 a 31.5,31.5 0 0 0 -8.4,-19.448 l -4,-4.306 a 3,3 0 0 1 2,-5.037 l 74.4,-4.9 a 3,3 0 0 1 2.646,4.728 l -3.4,4.8 a 31.441,31.441 0 0 0 -5.756,20.452 l 0.6,9.117 A 28.751,28.751 0 0 1 44.536,87.19 h -0.032 v 0 Q 43.5,87.262 42.5,87.262 Z M 19.793,59.9 v 0.064 a 22.793,22.793 0 0 0 24.279,21.245 h 0.04 v 0 A 22.751,22.751 0 0 0 65.307,57 l -0.6,-9.1 A 37.431,37.431 0 0 1 71.312,23.911 L 9.494,27.979 a 37.513,37.513 0 0 1 9.7,22.829 z"
               transform="translate(0,0.002)"
               style="fill:#222433"
               id="path1874" />
          </g>
          <path
             d="m 47.1,131.2 a 3,3 0 0 1 -2.991,-2.8 l -4.9,-73.3 a 3,3 0 1 1 5.986,-0.4 l 4.9,73.3 a 3,3 0 0 1 -2.793,3.193 C 47.231,131.2 47.164,131.2 47.1,131.2 Z"
             transform="translate(0,0.002)"
             style="fill:#222433"
             id="path1878" />
          <g
             id="g1884">
            <path
               d="m 40.2,25.51 a 2.987,2.987 0 0 1 -2.008,-0.773 l -15.2,-13.71 A 3,3 0 1 1 27.01,6.572 l 15.2,13.71 A 3,3 0 0 1 40.2,25.51 Z"
               transform="translate(0,0.002)"
               style="fill:#222433"
               id="path1880" />
            <path
               d="m 40.2,25.51 a 3,3 0 0 1 -2.992,-2.785 l -1.4,-19.51 a 3,3 0 1 1 5.984,-0.43 l 0.87,12.118 8.238,-9.83 a 3.0005548,3.0005548 0 0 1 4.6,3.854 l -13,15.51 a 3,3 0 0 1 -2.3,1.073 z"
               transform="translate(0,0.002)"
               style="fill:#222433"
               id="path1882" />
          </g>
        </g>
      </g>
    </g>
  </g>
  <!--ITEM 15-->
  <g
     id="g1917"
     transform="translate(-33.56705,-77.017449)">
    <defs
       id="defs1897">
      <clipPath
         id="clip-path-id-viewbox-item-15">
        <rect
           x="0"
           y="0"
           width="134.409"
           height="202.70599"
           id="rect1894" />
      </clipPath>
    </defs>
    <g
       transform="matrix(0.46059168,-0.08690479,0.08780842,0.46538086,769.64652,621.67265)"
       id="g1915">
      <g
         clip-path="url(#clip-path-id-viewbox-item-15)"
         id="g1913">
        <g
           id="g1911">
          <path
             d="m 66.7,202.706 a 3,3 0 0 1 -3,-3 v -146.9 a 3,3 0 0 1 6,0 v 146.9 a 3,3 0 0 1 -3,3 z"
             style="fill:#222433"
             id="path1899" />
          <g
             id="g1905">
            <path
               d="M 106.4,52.006 H 27 a 24.505,24.505 0 0 1 0,-49 h 79.4 a 24.505102,24.505102 0 1 1 1,49 z M 27,22.606 a 4.9,4.9 0 0 0 0,9.8 h 79.4 a 4.9,4.9 0 0 0 0,-9.8 z"
               style="fill:#ffffff"
               id="path1901" />
            <path
               d="M 106.4,55.006 H 27 a 27.500021,27.500021 0 0 1 -0.068,-55 H 106.4 a 27.532,27.532 0 0 1 28,26.933 27.545,27.545 0 0 1 -26.933,28.066 z M 106.951,6 c -0.16,0 -0.32,0 -0.482,0 H 27 a 21.506,21.506 0 0 0 0.066,43 H 107.4 A 21.506,21.506 0 0 0 106.951,6 Z M 106.4,35.406 H 27 a 7.9,7.9 0 0 1 0,-15.8 h 79.4 a 7.9,7.9 0 0 1 0,15.8 z M 27,25.606 a 1.9,1.9 0 0 0 0,3.8 h 79.4 a 1.9,1.9 0 0 0 0,-3.8 z"
               style="fill:#222433"
               id="path1903" />
          </g>
          <path
             d="m 101.4,120.606 c -9.594,0 -33.6,-15.05 -36.307,-16.766 A 3,3 0 0 1 65.086,98.777 C 67.8,97.05 91.8,81.906 101.4,81.906 a 19.353,19.353 0 0 1 0.069,38.7 z m -29,-19.308 c 9.873,5.932 23.785,13.277 28.964,13.308 a 13.354,13.354 0 0 0 -0.034,-26.7 c -5.091,0 -19.03,7.41 -28.924,13.394 z"
             style="fill:#222433"
             id="path1907" />
          <path
             d="m 31.1,120.706 c -0.033,0 -0.066,0 -0.1,0 a 19.405999,19.405999 0 0 1 0.965,-38.8 c 9.532,0 33.541,15.143 36.247,16.87 a 3,3 0 0 1 -0.007,5.063 C 65.5,105.556 41.5,120.606 31.9,120.606 h -0.03 a 2.963,2.963 0 0 1 -0.77,0.1 z m 0.5,-32.8 a 13.4,13.4 0 0 0 -0.777,26.787 5.879,5.879 0 0 1 1.079,-0.084 c 5.153,0 19.1,-7.363 29,-13.308 C 51.009,95.32 37.057,87.909 31.902,87.909 31.8,87.9 31.7,87.9 31.6,87.9 Z"
             style="fill:#222433"
             id="path1909" />
        </g>
      </g>
    </g>
  </g>
  <!--ITEM 16-->
  <g
     id="g1945"
     transform="translate(-33.56705,-77.017449)">
    <defs
       id="defs1925">
      <clipPath
         id="clip-path-id-crop-item-16">
        <rect
           transform="scale(2.0082791,2.0167117)"
           x="0"
           y="0"
           width="42"
           height="121"
           id="rect1919" />
      </clipPath>
      <clipPath
         id="clip-path-id-viewbox-item-16">
        <rect
           x="0"
           y="0"
           width="86.356003"
           height="328.724"
           id="rect1922" />
      </clipPath>
    </defs>
    <g
       clip-path="url(#clip-path-id-crop-item-16)"
       transform="matrix(0.48556461,-0.11031781,0.10985654,0.4835343,1018.4781,598.78864)"
       id="g1943">
      <g
         clip-path="url(#clip-path-id-viewbox-item-16)"
         id="g1941">
        <g
           id="g1939">
          <path
             d="m 51.875,328.723 a 3,3 0 0 1 -3,-2.894 L 37.451,3.106 a 3.0018721,3.0018721 0 0 1 6,-0.212 l 11.424,322.722 a 3,3 0 0 1 -2.892,3.105 z"
             transform="translate(0,0.002)"
             style="fill:#222433"
             id="path1927" />
          <g
             id="g1937">
            <path
               d="M 42.021,50.98 A 3,3 0 0 1 39.516,49.63 L 20.336,20.5 a 3.0004226,3.0004226 0 1 1 5.012,-3.3 L 41.817,42.214 56.5,16.053 a 3,3 0 1 1 5.232,2.936 L 44.639,49.448 a 3,3 0 0 1 -2.511,1.53 z"
               transform="translate(0,0.002)"
               style="fill:#222433"
               id="path1929" />
            <path
               d="M 43.069,81.176 A 3,3 0 0 1 40.557,79.814 L 12.842,37.319 a 3,3 0 1 1 5.026,-3.277 l 25,38.331 22.293,-40.051 A 3,3 0 1 1 70.4,35.24 l -24.712,44.4 a 3,3 0 0 1 -2.516,1.539 z"
               transform="translate(0,0.002)"
               style="fill:#222433"
               id="path1931" />
            <path
               d="m 44.328,115.671 a 3,3 0 0 1 -2.505,-1.35 L 5.869,59.727 a 3,3 0 0 1 5.01,-3.3 l 33.245,50.479 29.6,-52.733 a 3,3 0 1 1 5.232,2.936 l -32.01,57.03 a 3,3 0 0 1 -2.509,1.53 z"
               transform="translate(0,0.002)"
               style="fill:#222433"
               id="path1933" />
            <path
               d="m 45.482,148.908 a 3,3 0 0 1 -2.5,-1.349 L 0.5,83.1 A 3,3 0 1 1 5.51,79.8 L 45.284,140.147 80.74,77.1 a 3.0007801,3.0007801 0 0 1 5.231,2.942 L 48.1,147.379 a 3,3 0 0 1 -2.51,1.527 c -0.037,0.002 -0.072,0.002 -0.108,0.002 z"
               transform="translate(0,0.002)"
               style="fill:#222433"
               id="path1935" />
          </g>
        </g>
      </g>
    </g>
  </g>
  <!--ITEM 17-->
  <g
     id="g1971"
     transform="translate(-33.56705,-77.017449)">
    <defs
       id="defs1953">
      <clipPath
         id="clip-path-id-crop-item-17">
        <rect
           transform="scale(2.0773333,2.0970661)"
           x="0"
           y="0"
           width="29"
           height="68"
           id="rect1947" />
      </clipPath>
      <clipPath
         id="clip-path-id-viewbox-item-17">
        <rect
           x="0"
           y="0"
           width="62.32"
           height="253.745"
           id="rect1950" />
      </clipPath>
    </defs>
    <g
       clip-path="url(#clip-path-id-crop-item-17)"
       transform="matrix(0.48138639,0,0,0.47685669,998,642)"
       id="g1969">
      <g
         clip-path="url(#clip-path-id-viewbox-item-17)"
         id="g1967">
        <g
           id="g1965">
          <g
             id="g1959">
            <ellipse
               cx="29.860001"
               cy="29.811001"
               rx="26.860001"
               ry="26.811001"
               style="fill:#ffffff"
               id="ellipse1955" />
            <path
               d="M 29.86,59.622 C 13.395,59.622 0,46.249 0,29.811 0,13.373 13.395,0 29.86,0 46.325,0 59.72,13.373 59.72,29.811 59.72,46.249 46.325,59.622 29.86,59.622 Z M 29.86,6 C 16.704,6 6,16.681 6,29.811 6,42.941 16.704,53.622 29.86,53.622 43.016,53.622 53.72,42.94 53.72,29.811 53.72,16.682 43.016,6 29.86,6 Z"
               style="fill:#222433"
               id="path1957" />
          </g>
          <g
             id="g1963">
            <path
               d="m 59.316,253.745 c -1.48,0 -2.769,-1.096 -2.97,-2.604 L 26.886,30.207 c -0.219,-1.642 0.935,-3.151 2.577,-3.37 1.64,-0.222 3.151,0.935 3.37,2.577 l 29.46,220.934 c 0.219,1.642 -0.935,3.151 -2.577,3.37 -0.134,0.018 -0.267,0.027 -0.4,0.027 z"
               style="fill:#222433"
               id="path1961" />
          </g>
        </g>
      </g>
    </g>
  </g>
  <!--ITEM 18-->
  <g
     id="g2009"
     transform="translate(-33.56705,-77.017449)">
    <defs
       id="defs1979">
      <clipPath
         id="clip-path-id-crop-item-18">
        <rect
           transform="scale(2.1976667,2.2041278)"
           x="0"
           y="0"
           width="71"
           height="97"
           id="rect1973" />
      </clipPath>
      <clipPath
         id="clip-path-id-viewbox-item-18">
        <rect
           x="0"
           y="0"
           width="158.23199"
           height="293.14899"
           id="rect1976" />
      </clipPath>
    </defs>
    <g
       clip-path="url(#clip-path-id-crop-item-18)"
       transform="matrix(0.39111608,-0.23254838,0.23186669,0.38996956,442.07072,634.7387)"
       id="g2007">
      <g
         clip-path="url(#clip-path-id-viewbox-item-18)"
         id="g2005">
        <g
           id="g2003">
          <g
             id="g1985">
            <path
               d="m 149.068,39.169 c -6.06,-3.672 -13.95,-1.735 -17.621,4.326 -0.003,0.005 -0.006,0.01 -0.009,0.015 3.673,-6.075 1.725,-13.977 -4.35,-17.65 -6.075,-3.673 -13.977,-1.725 -17.65,4.35 l -33.82,55.57 8.83,-64.45 C 85.315,14.292 80.312,7.884 73.274,7.017 66.396,6.17 60.087,10.933 59.018,17.78 60.088,10.77 55.273,4.22 48.263,3.15 c -7.01,-1.07 -13.56,3.745 -14.63,10.755 -0.016,0.105 -0.031,0.21 -0.044,0.315 l -1.19,8.47 -8,57.15 c -2.833,20.208 6.492,40.191 23.8,51 l -0.09,0.13 v 0 c 6.23,3.716 13.132,6.17 20.31,7.22 v 0 -0.16 c 20.237,2.538 40.073,-7.069 50.63,-24.52 l 29.87,-49.37 4.43,-7.32 c 3.694,-6.047 1.787,-13.943 -4.259,-17.637 -0.008,-0.005 -0.015,-0.01 -0.022,-0.014 z"
               style="fill:#ffffff"
               id="path1981" />
            <path
               d="m 74.838,141.431 c -1.922,0 -3.854,-0.102 -5.791,-0.309 -0.345,0.075 -0.705,0.088 -1.063,0.035 -7.606,-1.112 -14.81,-3.673 -21.413,-7.611 -0.309,-0.185 -0.58,-0.421 -0.801,-0.696 C 28.015,121.309 18.478,100.452 21.427,79.423 L 30.666,13.454 C 31.984,4.818 40.079,-1.131 48.715,0.183 53.93,0.979 58.166,4.248 60.413,8.615 63.742,5.236 68.548,3.414 73.64,4.039 c 8.669,1.067 14.853,8.988 13.785,17.657 l -6.88,50.216 26.329,-43.262 c 4.518,-7.473 14.283,-9.879 21.765,-5.358 4.519,2.732 7.187,7.377 7.594,12.276 0.775,-0.327 1.581,-0.594 2.413,-0.798 4.107,-1.009 8.36,-0.357 11.976,1.834 0.009,0.006 0.019,0.011 0.028,0.017 0.003,0.002 0.011,0.007 0.014,0.009 l -10e-4,10e-4 c 7.456,4.617 9.778,14.333 5.245,21.753 l -34.293,56.679 c -9.971,16.482 -27.827,26.367 -46.777,26.368 z m -6.42,-6.402 c 0.124,0 0.249,0.008 0.373,0.023 19.038,2.387 37.759,-6.678 47.69,-23.096 l 34.301,-56.69 c 2.832,-4.636 1.368,-10.699 -3.257,-13.524 l 1.543,-2.573 -1.554,2.566 c -2.246,-1.36 -4.886,-1.766 -7.437,-1.139 -2.545,0.625 -4.696,2.202 -6.056,4.441 -0.005,0.008 -0.01,0.017 -0.015,0.025 -0.856,1.416 -2.697,1.872 -4.115,1.018 -1.305,-0.786 -1.798,-2.409 -1.202,-3.77 0.052,-0.12 0.113,-0.237 0.183,-0.353 2.811,-4.65 1.315,-10.72 -3.335,-13.531 -4.651,-2.811 -10.72,-1.315 -13.531,3.335 L 78.181,87.339 c -0.739,1.214 -2.228,1.745 -3.567,1.267 -1.339,-0.476 -2.16,-1.826 -1.968,-3.234 l 8.83,-64.45 c 0.316,-2.568 -0.398,-5.146 -2.015,-7.217 -1.617,-2.071 -3.945,-3.39 -6.553,-3.711 -5.3,-0.657 -10.101,2.97 -10.925,8.249 -0.255,1.635 -1.788,2.755 -3.422,2.502 C 56.926,20.493 55.803,18.963 56.053,17.328 56.872,11.964 53.174,6.934 47.81,6.116 42.448,5.295 37.417,8.994 36.598,14.359 l -1.229,8.75 -8,57.149 c -2.666,19.013 6.134,37.87 22.418,48.04 0.254,0.159 0.481,0.353 0.674,0.575 5.422,3.104 11.282,5.188 17.445,6.204 0.168,-0.033 0.339,-0.048 0.512,-0.048 z"
               style="fill:#222433"
               id="path1983" />
          </g>
          <g
             id="g1989">
            <path
               d="m 105.835,88.82 c -0.529,0 -1.064,-0.14 -1.55,-0.434 -1.417,-0.858 -1.872,-2.702 -1.014,-4.12 l 26.13,-43.19 c 0.858,-1.417 2.702,-1.871 4.12,-1.014 1.417,0.858 1.872,2.702 1.014,4.12 l -26.13,43.19 c -0.564,0.932 -1.555,1.448 -2.57,1.448 z"
               style="fill:#222433"
               id="path1987" />
          </g>
          <g
             id="g1993">
            <path
               d="m 3,293.15 c -0.333,0 -0.673,-0.056 -1.005,-0.174 -1.561,-0.555 -2.377,-2.27 -1.822,-3.832 l 62.538,-175.95 c 0.555,-1.561 2.271,-2.377 3.831,-1.822 1.561,0.555 2.377,2.27 1.822,3.832 L 5.827,291.154 C 5.39,292.383 4.234,293.15 3,293.15 Z"
               style="fill:#222433"
               id="path1991" />
          </g>
          <g
             id="g1997">
            <path
               d="m 52.202,69.75 c -0.138,0 -0.278,-0.01 -0.419,-0.029 -1.641,-0.229 -2.785,-1.746 -2.556,-3.387 l 6.99,-49.99 c 0.229,-1.641 1.741,-2.782 3.387,-2.556 1.641,0.229 2.785,1.746 2.556,3.387 l -6.99,49.99 c -0.211,1.5 -1.496,2.585 -2.968,2.585 z"
               style="fill:#222433"
               id="path1995" />
          </g>
          <g
             id="g2001">
            <path
               d="m 57.948,138.56 c -0.333,0 -0.673,-0.056 -1.005,-0.174 -1.561,-0.555 -2.376,-2.271 -1.822,-3.832 l 17.7,-49.78 c 0.555,-1.561 2.271,-2.377 3.832,-1.822 1.561,0.555 2.377,2.271 1.822,3.832 l -17.7,49.78 c -0.437,1.229 -1.593,1.996 -2.827,1.996 z"
               style="fill:#222433"
               id="path1999" />
          </g>
        </g>
      </g>
    </g>
  </g>
  <!--ITEM 19-->
  <g
     id="g2030"
     transform="translate(-33.56705,-77.017449)">
    <defs
       id="defs2014">
      <clipPath
         id="clip-path-id-viewbox-item-19">
        <rect
           x="0"
           y="0"
           width="37.400002"
           height="88.300003"
           id="rect2011" />
      </clipPath>
    </defs>
    <g
       transform="matrix(0.48128342,0,0,0.47565119,753,668)"
       id="g2028">
      <g
         clip-path="url(#clip-path-id-viewbox-item-19)"
         id="g2026">
        <g
           id="g2024">
          <path
             d="M 33.7,88.3 A 3,3 0 0 1 30.776,85.958 L 19.223,34.674 a 3.0002683,3.0002683 0 1 1 5.854,-1.318 L 36.626,84.641 A 3,3 0 0 1 33.7,88.3 Z"
             style="fill:#222433"
             id="path2016" />
          <g
             id="g2022">
            <circle
               cx="18.700001"
               cy="18.700001"
               r="15.7"
               style="fill:#ffffff"
               id="circle2018" />
            <path
               d="M 18.7,37.4 A 18.7,18.7 0 1 1 37.4,18.7 18.721,18.721 0 0 1 18.7,37.4 Z M 18.7,6 A 12.7,12.7 0 1 0 31.4,18.7 12.715,12.715 0 0 0 18.7,6 Z"
               style="fill:#222433"
               id="path2020" />
          </g>
        </g>
      </g>
    </g>
  </g>
  <!--ITEM 20-->
  <g
     id="g2069"
     transform="translate(-33.56705,-77.017449)">
    <defs
       id="defs2035">
      <clipPath
         id="clip-path-id-viewbox-item-20">
        <rect
           x="0"
           y="0"
           width="156.119"
           height="115.26"
           id="rect2032" />
      </clipPath>
    </defs>
    <g
       transform="matrix(-0.43556518,0,0,0.43380184,950,206)"
       id="g2067">
      <g
         clip-path="url(#clip-path-id-viewbox-item-20)"
         id="g2065">
        <g
           id="g2063">
          <g
             id="g2041">
            <path
               d="M 74.177,57.173 C 73.41,57.261 59.031,53.642 56.753,52.947 L 81.411,4.479 A 2.705,2.705 0 0 1 83.822,3 h 0.037 a 2.7,2.7 0 0 1 2.407,1.546 L 98.8,30.967 c 0.025,0.054 0.049,0.108 0.071,0.162 1.992,5.021 1.7,10.618 0.228,16.1 -0.336,0.171 -16.659,8.993 -24.922,9.944 z"
               style="fill:#ffffff"
               id="path2037" />
            <path
               d="m 74.365,60.161 c -2.469,0 -18.337,-4.3 -18.488,-4.345 a 3,3 0 0 1 -1.8,-4.23 L 78.737,3.118 a 5.706,5.706 0 0 1 10.24,0.141 l 12.535,26.423 c 0.049,0.1 0.093,0.205 0.136,0.308 2.056,5.186 2.169,11.237 0.349,18.015 a 3,3 0 0 1 -1.537,1.9 l -0.092,0.049 c -4.079,2.165 -18,9.3 -25.848,10.2 v 0 a 1.354,1.354 0 0 1 -0.155,0.007 z M 74.177,57.173 Z M 73.841,54.192 Z M 74.35,54.184 Z M 61.1,51.018 c 4.48,1.16 11.443,2.859 13.044,3.135 5.245,-0.727 14.753,-4.978 22.37,-8.955 1.151,-4.981 1.007,-9.337 -0.432,-12.963 L 83.814,6.373 Z"
               style="fill:#222433"
               id="path2039" />
          </g>
          <g
             id="g2047">
            <path
               d="m 103.287,75.349 41.613,-15 a 6.158,6.158 0 0 1 7.9,7.7 v 0 a 6.379,6.379 0 0 1 -3.8,3.9 l -10,3.5 8.5,1.4 a 6.1241326,6.1241326 0 1 1 -1.9,12.1 l -27.328,-4.325"
               style="fill:#ffffff"
               id="path2043" />
            <path
               d="m 146.575,92.026 a 9.269,9.269 0 0 1 -1.443,-0.113 L 117.8,87.587 a 3,3 0 0 1 0.937,-5.926 l 27.327,4.325 a 3.194,3.194 0 0 0 2.69,-0.835 3,3 0 0 0 0.8,-3.132 3.122,3.122 0 0 0 -2.535,-2.207 l -8.513,-1.4 a 3,3 0 0 1 -0.5,-5.791 l 9.944,-3.481 a 3.392,3.392 0 0 0 2,-2.036 3.036,3.036 0 0 0 -0.792,-3.186 3.089,3.089 0 0 0 -3.259,-0.738 L 104.3,78.171 a 3,3 0 1 1 -2.035,-5.644 l 41.614,-15 A 9.157,9.157 0 0 1 155.646,69 a 9.358,9.358 0 0 1 -5.246,5.62 9.133,9.133 0 0 1 4.9,5.629 9.027,9.027 0 0 1 -2.433,9.28 9.206,9.206 0 0 1 -6.292,2.497 z"
               style="fill:#222433"
               id="path2045" />
          </g>
          <polygon
             points="0,66.049 23.1,75.349 23.6,63.749 "
             style="fill:#222433"
             id="polygon2049" />
          <g
             id="g2055">
            <path
               d="m 34.1,85.549 a 23.509,23.509 0 0 1 10.3,9.2 v 0 a 36.847,36.847 0 0 0 10.5,11 c 15.1,10.6 35.8,7.9 48.5,-5.5 l 14.9,-15.8 -44.7,-28.8 a 46.528,46.528 0 0 1 -14.4,-8.8 23.337,23.337 0 0 0 -36.2,28.1 23.679,23.679 0 0 0 11.1,10.6 z"
               style="fill:#ffffff"
               id="path2051" />
            <path
               d="M 75.627,115.212 A 38.948,38.948 0 0 1 53.177,108.205 39.606,39.606 0 0 1 41.854,96.334 20.493,20.493 0 0 0 32.887,88.293 L 32.854,88.278 A 26.651,26.651 0 0 1 20.354,76.355 26.329,26.329 0 0 1 61.19,44.6 a 43.632,43.632 0 0 0 13.469,8.238 3.032,3.032 0 0 1 0.566,0.285 l 44.7,28.8 a 3,3 0 0 1 0.557,4.58 l -14.9,15.8 a 41.339,41.339 0 0 1 -29.955,12.909 z m -40.3,-32.4 a 26.456,26.456 0 0 1 11.617,10.347 33.7,33.7 0 0 0 9.648,10.112 c 13.64,9.577 32.815,7.38 44.631,-5.085 L 113.642,85.017 72.238,58.34 A 49.679,49.679 0 0 1 57.214,49.1 20.337,20.337 0 0 0 25.662,73.565 20.669,20.669 0 0 0 35.33,82.812 Z"
               style="fill:#222433"
               id="path2053" />
          </g>
          <circle
             cx="35.900002"
             cy="66.749001"
             r="6"
             style="fill:#222433"
             id="circle2057" />
          <path
             d="M 53.358,79.517 A 13.3,13.3 0 0 1 51,77.249 c -0.055,-0.074 -0.107,-0.15 -0.155,-0.228 a 15.48,15.48 0 0 1 -1.976,-11.312 9.928,9.928 0 0 0 -1.072,-7.1 c -0.16,-0.224 -0.3,-0.447 -0.442,-0.671 -0.081,-0.129 -0.158,-0.26 -0.255,-0.389 -0.048,-0.063 -0.094,-0.129 -0.136,-0.2 A 9.276,9.276 0 0 0 34.192,54.39 l -11.5,7.2 a 3,3 0 0 1 -4.518,-3.2 25.733,25.733 0 0 1 10.047,-15.257 26.189,26.189 0 0 1 32.992,1.492 41.674,41.674 0 0 0 11.9,7.608 l 54.451,-42.156 a 3,3 0 0 1 4.837,2.372 v 32.4 c 0,0.066 0,0.131 -0.007,0.2 -1.358,20.7 -33.2,35.272 -36.568,36.755 A 36.487,36.487 0 0 1 76.064,87.652 35.69,35.69 0 0 1 53.358,79.517 Z"
             style="fill:#5a38fd"
             id="path2059" />
          <path
             d="m 71.875,58.17 a 3,3 0 0 1 -0.21,-4.9 l 55.9,-43.2 a 3,3 0 0 1 4.835,2.374 v 12.3 a 31.547,31.547 0 0 1 -15.591,27.092 l -12.19,7.095 A 30.993,30.993 0 0 1 88.9,63.223 31.4,31.4 0 0 1 71.875,58.17 Z"
             style="fill:#82b1ff"
             id="path2061" />
        </g>
      </g>
    </g>
  </g>
  <!--ITEM 21-->
  <g
     id="g2090"
     transform="translate(-33.56705,-77.017449)">
    <defs
       id="defs2074">
      <clipPath
         id="clip-path-id-viewbox-item-21">
        <rect
           x="0"
           y="0"
           width="59.624001"
           height="59.622002"
           id="rect2071" />
      </clipPath>
    </defs>
    <g
       transform="matrix(0.50315309,0,0,0.50316997,1144,494)"
       id="g2088">
      <g
         clip-path="url(#clip-path-id-viewbox-item-21)"
         id="g2086">
        <g
           id="g2084">
          <g
             id="g2078">
            <path
               d="m 9.864,0 h 11.91 c 5.44,-0.001 9.851,4.408 9.852,9.848 0,1.532 -0.357,3.043 -1.042,4.412 L 15.814,43.81 1.045,14.26 C -1.391,9.396 0.578,3.478 5.442,1.042 6.815,0.355 8.329,-0.002 9.864,0 Z"
               style="fill:#82b1ff"
               id="path2076" />
          </g>
          <g
             id="g2082">
            <path
               d="m 59.624,37.85 v 11.91 c 0.007,5.44 -4.398,9.856 -9.838,9.862 -1.535,0.002 -3.05,-0.355 -4.422,-1.042 L 15.814,43.81 45.364,29.03 c 4.873,-2.43 10.794,-0.449 13.224,4.424 0.681,1.365 1.036,2.87 1.036,4.396 z"
               style="fill:#82b1ff"
               id="path2080" />
          </g>
        </g>
      </g>
    </g>
  </g>
  <!--ITEM 22-->
  <g
     id="g2195"
     transform="translate(-33.56705,-77.017449)">
    <defs
       id="defs2095">
      <clipPath
         id="clip-path-id-viewbox-item-22">
        <rect
           x="0"
           y="0"
           width="821.75299"
           height="908.61298"
           id="rect2092" />
      </clipPath>
    </defs>
    <g
       transform="matrix(0.50258411,0,0,0.50296441,333,77)"
       id="g2193">
      <g
         clip-path="url(#clip-path-id-viewbox-item-22)"
         id="g2191">
        <g
           id="g2189">
          <g
             id="g2101">
            <path
               d="m 247.16,437.253 c -11.768,8.763 -25.745,19.079 -35.86,26.16 -25.5,18 -107.3,48.1 -113.4,27.7 -3.7,-12.4 19.2,-16 58.2,-33 -37.1,9 -65,12.9 -67.3,-0.2 -2.3,-13.1 35.3,-22 63.9,-28.7 -20.1,-4.1 -47.4,-8.7 -47.6,-19 -0.2,-14.9 23.4,-11.9 39.1,-11.6 34.9,0.8 39.5,-15.6 53.8,-32.5 a 47.211,47.211 0 0 1 15.632,-11.752"
               style="fill:#ffffff"
               id="path2097" />
            <path
               d="m 113.031,500.9 a 31.4,31.4 0 0 1 -10.078,-1.378 c -5.227,-1.806 -7.2,-5.1 -7.927,-7.546 -2.494,-8.357 4.845,-12.968 7.257,-14.484 4.932,-3.1 12.376,-6.072 21.743,-9.69 -17.159,2.611 -27.386,1.944 -33.135,-1.819 a 11.022,11.022 0 0 1 -5.046,-7.548 c -2.3,-13.083 20.623,-20.993 52.957,-28.974 -19.1,-4 -36.5,-8.806 -36.7,-19.186 a 12.421,12.421 0 0 1 3.673,-9.455 c 6.541,-6.381 20.288,-5.859 32.41,-5.4 2.1,0.08 4.149,0.158 6.074,0.195 27.184,0.624 34.777,-9.551 44.413,-22.432 2.183,-2.918 4.441,-5.935 7.039,-9.006 a 50.431,50.431 0 0 1 16.618,-12.517 3,3 0 0 1 2.608,5.4 44.4,44.4 0 0 0 -14.644,10.985 c -2.484,2.936 -4.686,5.88 -6.816,8.728 -10.249,13.7 -19.142,25.531 -49.344,24.836 -1.949,-0.037 -4.032,-0.116 -6.176,-0.2 -10.382,-0.395 -23.295,-0.885 -27.992,3.7 a 6.474,6.474 0 0 0 -1.864,5.061 c 0.137,7.068 25.321,12.113 40.368,15.127 1.644,0.33 3.26,0.653 4.832,0.974 a 3,3 0 0 1 0.085,5.86 c -13.589,3.184 -30.5,7.145 -43.181,11.843 -17,6.3 -18.854,11.109 -18.449,13.418 a 5.1,5.1 0 0 0 2.421,3.565 c 9.087,5.943 39.288,-0.442 61.217,-5.762 a 3,3 0 0 1 1.906,5.666 c -10.754,4.687 -20.1,8.29 -28.354,11.468 -20.846,8.032 -29.986,11.84 -28.17,17.924 0.177,0.6 0.72,2.411 4.138,3.593 18.943,6.547 81.69,-16.674 104.657,-32.886 8.176,-5.724 19.883,-14.264 35.8,-26.115 a 3.0000167,3.0000167 0 1 1 3.584,4.812 c -15.962,11.886 -27.716,20.46 -35.931,26.211 -19.154,13.52 -72.275,35.032 -99.993,35.032 z"
               style="fill:#222433"
               id="path2099" />
          </g>
          <g
             id="g2107">
            <path
               d="m 209.26,395.3 c -8.179,8.362 -15.184,19 -24.36,28.309 -19.6,20 -30.4,34.5 -28.5,40.9 4.2,14.6 39.081,-19.577 72.581,-37.677"
               style="fill:#ffffff"
               id="path2103" />
            <path
               d="m 160.957,471.045 a 8.331,8.331 0 0 1 -2.805,-0.454 7.336,7.336 0 0 1 -4.635,-5.249 c -1.481,-4.987 0.5,-14.5 29.24,-43.829 a 194.476,194.476 0 0 0 12.806,-14.844 c 3.865,-4.8 7.516,-9.337 11.552,-13.463 a 3.0018369,3.0018369 0 0 1 4.29,4.2 c -3.833,3.918 -7.4,8.344 -11.168,13.03 a 198.989,198.989 0 0 1 -13.2,15.287 c -27.03,27.583 -28.418,35.722 -27.759,37.94 0.309,1.075 0.691,1.21 0.874,1.275 4.346,1.535 19.144,-8.846 32.2,-18 10.83,-7.593 23.1,-16.2 35.2,-22.736 a 3.0000727,3.0000727 0 0 1 2.852,5.279 c -11.792,6.371 -23.915,14.87 -34.61,22.369 -16.982,11.902 -27.772,19.195 -34.837,19.195 z"
               style="fill:#222433"
               id="path2105" />
          </g>
          <g
             id="g2121">
            <g
               id="g2113">
              <path
                 d="m 360.287,262.1 -121.436,65.994 a 60.000523,60.000523 0 1 0 57.3,105.437 l 39.241,-21.324 39,-110.851 z"
                 style="fill:#ffffff"
                 id="path2109" />
              <path
                 d="M 267.553,443.824 A 63.008,63.008 0 0 1 237.419,325.458 l 121.436,-65.991 a 3,3 0 0 1 4.256,1.622 l 14.1,39.252 a 3,3 0 0 1 0.007,2.01 l -39,110.852 a 3,3 0 0 1 -1.4,1.64 l -39.241,21.324 a 63.093,63.093 0 0 1 -30.024,7.657 z M 358.647,266.409 240.284,330.73 a 57.001911,57.001911 0 1 0 54.432,100.17 l 38.226,-20.773 38.265,-108.756 z"
                 style="fill:#222433"
                 id="path2111" />
            </g>
            <g
               id="g2119">
              <path
                 d="m 561.391,138.356 c 10,-7 31.243,-6.24 39,-7 l 56,28 c 2,3 10,31 8,43 l -103,43 z"
                 style="fill:#ffffff"
                 id="path2115" />
              <path
                 d="m 561.391,248.356 a 3,3 0 0 1 -3,-3 v -107 a 3,3 0 0 1 1.279,-2.458 c 8.688,-6.081 24.165,-6.746 34.406,-7.187 2.431,-0.1 4.529,-0.2 6.022,-0.341 a 3.015,3.015 0 0 1 1.635,0.3 l 56,28 a 3,3 0 0 1 1.154,1.02 c 2.63,3.944 10.537,32.711 8.463,45.157 a 3,3 0 0 1 -1.8,2.275 l -103,43 a 3,3 0 0 1 -1.159,0.234 z m 3,-108.349 v 100.845 l 97.235,-40.593 c 0.916,-11.189 -5.242,-33.856 -7.427,-38.645 l -54.392,-27.2 c -1.52,0.118 -3.377,0.2 -5.473,0.288 -8.467,0.368 -22.32,0.963 -29.943,5.305 z"
                 style="fill:#222433"
                 id="path2117" />
            </g>
          </g>
          <path
             d="M 814.2,260.812 A 74.981,74.981 0 0 0 728.355,209.8 l -65.964,9.555 -92,95 -40.152,55.209 -124.37,-98.158 a 106.615,106.615 0 0 0 -15.213,6.091 c -47.308,23.317 -69.051,77.03 -51.116,122.868 L 299,516.012 c -19,15.6 -50.6,41.7 -83.5,69.7 -19.5,16.5 -39.4,33.8 -57.3,50 -22.5,20.3 -41.9,38.8 -53.7,52.1 l 112.4,99.3 c 26.8,-30.2 132.6,-119 193.1,-168 a 75.607,75.607 0 0 0 23.6,-33.5 l 49.552,-141.436 c 0.686,-0.416 100.566,-32.405 100.566,-32.405 l -2.6,-2.055 1.277,0.639 48.023,-69.436 -41.122,60.147 126.104,73.946 62.2,-103.8 29.5,-49.2 a 72.232,72.232 0 0 0 3.8,-7.3 74.383,74.383 0 0 0 3.3,-53.9 z"
             style="fill:#ffffff"
             id="path2123" />
          <path
             d="m 218.5,786.613 v 0 l -36.1,47.4 a 16,16 0 0 0 3.1,22.5 15.654,15.654 0 0 0 4.8,2.5 v 0 c 27.2,6.1 35.5,20.9 33.6,48.8 v 0 l -115.5,0.8 -31.2,-26.7 -20.809,-68.557 -24.791,29.557 -31.6,-27 106.5,-124.7 z"
             style="fill:#5a38fd"
             id="path2125" />
          <path
             d="M 715.412,474.481 693.5,515.813 a 29.762,29.762 0 0 0 12.4,40.2 31.542,31.542 0 0 0 3.2,1.5 v 0 c 27.5,4.5 44.3,32.3 41.9,60.2 v 0 l -102.5,-1.2 -36.109,-20.157 -45,-69 -19.191,34.957 -36.6,-19.6 70.473,-130.97 7.227,-13.43 z"
             style="fill:#5a38fd"
             id="path2127" />
          <path
             d="m 410.152,182.17 c -10.4,-7.9 -27.652,-27.557 -35.552,-17.157 l -39.5,51.2 a 23.6,23.6 0 0 0 4.5,33.1 l 19.706,15.012 z"
             style="fill:#5a38fd"
             id="path2129" />
          <path
             d="m 444.023,198.012 c 2.4,-6.023 4.33,-11.779 8.595,-16.8 a 3.847,3.847 0 0 1 0.605,-0.559 23.938,23.938 0 0 0 -2.623,-2.339 l -35.8,-27.3 a 23.449,23.449 0 0 0 -32.9,4.4 l -7.3,9.6 61.9,47.25 c 2.515,-4.757 5.528,-9.249 7.523,-14.252 z"
             style="fill:#82b1ff"
             id="path2131" />
          <path
             d="m 638.5,205.719 c 4.547,-2.231 9.741,-4.337 14.893,-4.886 a 101.634,101.634 0 0 0 -7.982,-22.232 c -3.85,4.326 -7.942,8.43 -12.133,12.427 0.676,3.891 2.846,7.477 4.121,11.176 0.401,1.162 0.757,2.336 1.101,3.515 z"
             style="fill:#5a38fd"
             id="path2133" />
          <path
             d="m 716.4,477.013 a 2.983,2.983 0 0 1 -1.515,-0.413 l -126.11,-73.945 a 3,3 0 0 1 -0.959,-4.281 l 41.121,-60.147 a 3,3 0 0 1 4.953,3.386 l -39.307,57.493 120.771,70.816 60.673,-101.251 29.5,-49.2 a 67.872,67.872 0 0 0 3.627,-6.965 72.057,72.057 0 0 0 -79.221,-100.761 3,3 0 1 1 -1.156,-5.887 78.054,78.054 0 0 1 85.846,109.112 74.25,74.25 0 0 1 -3.932,7.555 l -29.518,49.23 -62.2,103.8 a 3,3 0 0 1 -2.573,1.458 z"
             style="fill:#222433"
             id="path2135" />
          <path
             d="m 285.892,556.879 a 3,3 0 0 1 -2.835,-3.983 l 13.108,-37.865 a 3.0000945,3.0000945 0 0 1 5.67,1.963 l -13.108,37.865 a 3,3 0 0 1 -2.835,2.02 z"
             style="fill:#222433"
             id="path2137" />
          <path
             d="m 216.9,790.113 a 2.992,2.992 0 0 1 -1.986,-0.752 l -112.4,-99.3 a 3,3 0 0 1 -0.258,-4.24 c 10.844,-12.222 28.99,-29.83 53.935,-52.336 16.849,-15.25 36.69,-32.563 57.372,-50.062 25.063,-21.331 52.95,-44.612 82.885,-69.2 l 39.9,-113.813 c -8.575,-22.708 -8.047,-47.9 1.514,-71.072 a 106.169,106.169 0 0 1 51.471,-54.534 109.731,109.731 0 0 1 15.64,-6.263 3.000651,3.000651 0 1 1 1.8,5.725 103.778,103.778 0 0 0 -14.784,5.919 c -45.243,22.3 -67.052,74.607 -49.649,119.084 a 3,3 0 0 1 0.037,2.086 l -40.54,115.646 a 3,3 0 0 1 -0.927,1.326 c -30.155,24.759 -58.234,48.2 -83.459,69.666 -20.639,17.464 -40.426,34.731 -57.232,49.94 -23.292,21.015 -40.582,37.692 -51.458,49.631 L 216.667,782.9 c 29.73,-32.128 132.289,-118.212 191.446,-166.123 a 72.489,72.489 0 0 0 22.656,-32.162 l 49.552,-141.433 a 2.991,2.991 0 0 1 1.276,-1.574 c 0.393,-0.239 0.989,-0.6 101.206,-32.7 a 3,3 0 0 1 1.83,5.714 c -25.4,8.134 -89.293,28.628 -99.129,31.907 L 436.431,586.605 A 78.5,78.5 0 0 1 411.9,621.438 C 351.461,670.385 245.7,759.18 219.144,789.1 a 2.993,2.993 0 0 1 -2.244,1.013 z"
             style="fill:#222433"
             id="path2139" />
          <path
             d="m 574.359,172 c 0.087,-5.771 5.875,-18.3 9.741,-23.584 -3.7,-6.065 -7.124,-11.178 -14.105,-17.2 -41.925,-36.185 -107,-25 -140.5,19 l -63.8,86.3 a 64.407,64.407 0 0 0 11.97,90.12 l 74.99,-145.68 a 60,60 0 0 1 108.91,50.1 60.089,60.089 0 0 1 26.1,-1.9 101.2,101.2 0 0 0 -0.691,-34.833 C 585.187,185.161 574.215,181.573 574.359,172 Z"
             style="fill:#5a38fd"
             id="path2141" />
          <g
             id="g2147">
            <path
               d="M 638.307,296.933 A 58.881,58.881 0 0 1 612.242,338.4 l -174,116.3 a 60,60 0 0 1 -86.688,-77.344 l 101.1,-196.4 a 60,60 0 0 1 108.915,50.1 60.065,60.065 0 0 1 34.524,-0.028 z"
               style="fill:#ffffff"
               id="path2143" />
            <path
               d="m 404.912,467.812 a 63,63 0 0 1 -56.025,-91.834 l 101.1,-196.4 a 63.006,63.006 0 0 1 116.29,47.192 62.906,62.906 0 0 1 30.673,1.381 2.994,2.994 0 0 1 1.668,1.256 l 42.215,65.907 a 3.011,3.011 0 0 1 0.448,2.017 61.71,61.71 0 0 1 -27.372,43.559 l -174,116.3 a 62.766,62.766 0 0 1 -34.997,10.622 z m 101.15,-316.429 a 57.158,57.158 0 0 0 -50.741,30.942 l -101.1,196.4 a 57,57 0 0 0 82.353,73.475 l 174,-116.3 a 55.78,55.78 0 0 0 24.6,-38.29 l -41,-64.016 a 56.843,56.843 0 0 0 -31.739,0.329 3,3 0 0 1 -3.645,-4.007 57.343,57.343 0 0 0 -26.7,-72.184 56.721,56.721 0 0 0 -26.028,-6.349 z"
               style="fill:#222433"
               id="path2145" />
          </g>
          <path
             d="m 448.1,302.313 a 3,3 0 0 1 -1.821,-5.385 c 2.981,-2.276 73.495,-55.868 114.383,-68.741 a 3,3 0 0 1 1.8,5.723 c -39.888,12.558 -111.825,67.237 -112.548,67.788 a 2.987,2.987 0 0 1 -1.814,0.615 z"
             style="fill:#222433"
             id="path2149" />
          <g
             id="g2155">
            <path
               d="m 629.6,306.113 c 14.3,-13.8 19.8,-28.1 50.9,-24.4 14,1.7 34.8,6.4 36,-7 0.8,-9.2 -23.3,-15.7 -40.9,-21.1 26.2,-3.5 60.5,-8.2 59.6,-20.2 -0.9,-12 -26.2,-10.8 -60.1,-6 36.3,-11.8 57,-13.1 54.8,-24.4 -3.7,-18.7 -79.5,-3.4 -103.8,10.4 -14.6,8.3 -31.9,18.7 -40.6,24.1 a 43.319,43.319 0 0 0 -8.8,7.2 v 0 c -14.1,14.9 -17.1,38.6 -4.1,54.6 18.7,22.7 47.5,16 57,6.8 z"
               style="fill:#ffffff"
               id="path2151" />
            <path
               d="m 604.641,317.676 q -1.3,0 -2.621,-0.073 A 43.425,43.425 0 0 1 570.284,301.22 c -13.486,-16.6 -11.66,-41.772 4.238,-58.569 a 46.167,46.167 0 0 1 9.388,-7.682 c 7.878,-4.89 25.211,-15.355 40.707,-24.164 21.4,-12.152 81.677,-25.359 101.051,-16.484 5.063,2.318 6.7,5.69 7.175,8.109 1.945,9.993 -8.236,13.748 -25.678,18.69 14.123,-0.558 22.516,0.972 27.065,4.633 a 10.215,10.215 0 0 1 3.962,7.435 c 0.9,12.052 -19.728,17.223 -48.761,21.523 16.37,5.172 30.864,10.985 30.058,20.261 a 11.578,11.578 0 0 1 -4.3,8.394 c -6.594,5.245 -18.978,3.526 -29.9,2.01 -1.78,-0.247 -3.508,-0.487 -5.143,-0.685 -23.961,-2.85 -31.209,5.074 -41.246,16.041 -2.244,2.451 -4.564,4.986 -7.21,7.539 -4.99,4.829 -15.108,9.405 -27.049,9.405 z m 102.141,-120.4 c -24.509,0 -63.3,9.719 -79.2,18.748 -15.421,8.767 -32.669,19.18 -40.5,24.041 a 40.22,40.22 0 0 0 -8.183,6.692 c -13.854,14.639 -15.552,36.412 -3.971,50.667 a 37.547,37.547 0 0 0 27.429,14.191 c 11.213,0.63 20.892,-3.526 25.156,-7.655 v 0 c 2.512,-2.424 4.767,-4.889 6.95,-7.273 10.393,-11.355 19.365,-21.162 46.388,-17.947 1.675,0.2 3.437,0.447 5.252,0.7 9.25,1.284 20.762,2.881 25.343,-0.763 a 5.654,5.654 0 0 0 2.062,-4.225 c 0.091,-1.045 -0.694,-3.947 -9.943,-8.159 -6.954,-3.167 -16.332,-6.008 -24.606,-8.515 -1.444,-0.437 -2.863,-0.867 -4.243,-1.29 a 3,3 0 0 1 0.482,-5.842 c 12.392,-1.655 27.813,-3.715 39.591,-6.839 11.327,-3 17.675,-6.708 17.416,-10.163 a 4.317,4.317 0 0 0 -1.741,-3.21 c -7.327,-5.9 -33.215,-3.121 -54.947,-0.044 a 3,3 0 0 1 -1.349,-5.823 c 9.968,-3.241 18.6,-5.646 26.208,-7.769 18.671,-5.206 27.6,-7.942 26.575,-13.2 -0.11,-0.558 -0.452,-2.284 -3.785,-3.81 -3.802,-1.756 -9.538,-2.515 -16.384,-2.515 z"
               style="fill:#222433"
               id="path2153" />
          </g>
          <g
             id="g2161">
            <path
               d="M 712.208,104.221 A 51.891,51.891 0 0 1 655.2,160.163 l -14.15,25.551 c -10.659,17.642 -31.659,22.642 -49.522,12.153 -18.434,-10.824 -23.137,-35.511 -14.137,-49.511 l 34.343,-58.678 -5.343,-17.322 69,-57 46.559,28.766 a 51.349,51.349 0 0 1 -5.522,36.193 c -0.091,0.163 -0.183,0.324 -0.276,0.485"
               style="fill:#ffffff"
               id="path2157" />
            <path
               d="m 610.976,206.386 a 41.29,41.29 0 0 1 -39.861,-31.948 c -2.413,-10.111 -1.057,-20.185 3.718,-27.651 L 608.479,89.3 603.524,73.24 a 3,3 0 0 1 0.957,-3.2 l 69,-57 a 3,3 0 0 1 3.487,-0.239 l 46.559,28.769 a 3,3 0 0 1 1.353,1.913 54.453,54.453 0 0 1 -5.837,38.3 l -0.292,0.513 a 3.0016662,3.0016662 0 0 1 -5.2,-3 l 0.265,-0.464 a 48.5,48.5 0 0 0 5.453,-32.846 L 675.644,19.038 609.85,73.39 l 4.752,15.4 a 3,3 0 0 1 -0.279,2.4 l -34.343,58.681 c -0.021,0.036 -0.043,0.072 -0.066,0.107 -3.866,6.015 -4.974,14.638 -2.963,23.067 a 35.2,35.2 0 0 0 16.1,22.235 c 16.542,9.714 35.63,5.058 45.406,-11.069 l 14.119,-25.5 a 3,3 0 0 1 2.929,-1.531 48.892,48.892 0 0 0 53.718,-52.7 3.0001865,3.0001865 0 0 1 5.979,-0.506 54.892,54.892 0 0 1 -58.317,59.347 l -13.206,23.852 c -0.018,0.033 -0.038,0.066 -0.058,0.1 -7.513,12.427 -19.683,19.113 -32.645,19.113 z"
               style="fill:#222433"
               id="path2159" />
          </g>
          <g
             id="g2167">
            <polyline
               points="714.391 72.356 722.63 103.9 704.553 104.457"
               style="fill:#ffffff"
               id="polyline2163" />
            <path
               d="m 704.551,107.457 a 3.000345,3.000345 0 0 1 -0.091,-6 l 14.317,-0.442 -7.288,-27.9 a 3,3 0 1 1 5.8,-1.516 l 8.239,31.543 a 3,3 0 0 1 -2.809,3.757 l -18.077,0.558 z"
               style="fill:#222433"
               id="path2165" />
          </g>
          <path
             d="m 701.935,132.471 a 21.106,21.106 0 0 1 -16.631,-8.017 l -2.364,-2.936 a 3,3 0 1 1 4.672,-3.764 l 2.373,2.947 a 15.268,15.268 0 0 0 14.446,5.578 l 1.448,-0.24 a 3,3 0 1 1 0.983,5.918 l -1.479,0.246 a 22.432,22.432 0 0 1 -3.448,0.268 z"
             style="fill:#222433"
             id="path2169" />
          <circle
             cx="696.789"
             cy="72.257004"
             r="5.5040002"
             transform="rotate(-60.667,696.78612,72.257648)"
             style="fill:#222433"
             id="circle2171" />
          <path
             d="m 654.688,163.158 a 2.964,2.964 0 0 1 -0.351,-0.021 55.266,55.266 0 0 1 -43.581,-31.3 3.0000082,3.0000082 0 0 1 5.426,-2.561 49.27,49.27 0 0 0 38.849,27.9 3,3 0 0 1 -0.343,5.98 z"
             style="fill:#222433"
             id="path2173" />
          <g
             id="g2179">
            <path
               d="m 638.608,80.005 7.869,4.421 30.034,-60.555 45.537,20.306 v 0 a 51.968,51.968 0 0 0 -96.1,-14.7 52.392,52.392 0 0 0 -2.337,4.692"
               style="fill:#ffffff"
               id="path2175" />
            <path
               d="m 646.477,87.426 a 3,3 0 0 1 -1.47,-0.384 l -7.869,-4.421 a 3.0000451,3.0000451 0 0 1 2.939,-5.231 l 5.116,2.874 28.63,-57.726 a 3,3 0 0 1 3.91,-1.407 l 39.722,17.714 a 48.978,48.978 0 0 0 -88.889,-7.9 c -0.805,1.432 -1.546,2.921 -2.2,4.424 a 3.0004166,3.0004166 0 1 1 -5.5,-2.4 c 0.737,-1.685 1.568,-3.354 2.47,-4.96 a 54.968,54.968 0 0 1 101.647,15.55 3,3 0 0 1 -4.158,3.358 L 677.919,27.784 649.164,85.759 a 3,3 0 0 1 -2.687,1.667 z"
               style="fill:#222433"
               id="path2177" />
          </g>
          <g
             id="g2185">
            <path
               d="m 638.608,80.005 a 28.39,28.39 0 1 0 -26.874,9.677"
               style="fill:#ffffff"
               id="path2181" />
            <path
               d="m 611.738,92.683 a 2.96,2.96 0 0 1 -0.544,-0.05 31.387,31.387 0 1 1 29.712,-10.7 3.0015183,3.0015183 0 1 1 -4.6,-3.857 25.57,25.57 0 0 0 2.7,-3.9 25.387,25.387 0 1 0 -26.732,12.558 3,3 0 0 1 -0.536,5.952 z"
               style="fill:#222433"
               id="path2183" />
          </g>
          <path
             d="m 621.941,67.583 a 3.015,3.015 0 0 1 -0.433,-0.032 l -14.532,-2.11 a 3.0001922,3.0001922 0 0 1 0.863,-5.938 l 7.982,1.159 -6.132,-9.451 a 3,3 0 1 1 5.033,-3.266 l 9.734,15.005 a 3,3 0 0 1 -2.515,4.633 z"
             style="fill:#222433"
             id="path2187" />
        </g>
      </g>
    </g>
  </g>
  <!--ITEM 23-->
  <g
     id="g2220"
     transform="translate(-33.56705,-77.017449)">
    <defs
       id="defs2200">
      <clipPath
         id="clip-path-id-viewbox-item-23">
        <rect
           x="0"
           y="0"
           width="65.016998"
           height="66.458"
           id="rect2197" />
      </clipPath>
    </defs>
    <g
       transform="matrix(0.39989541,0,0,0.40627163,510,540)"
       id="g2218">
      <g
         clip-path="url(#clip-path-id-viewbox-item-23)"
         id="g2216">
        <g
           id="g2214">
          <g
             id="g2206">
            <path
               d="M 3.252,53.812 3.002,41.902 C 2.886,36.463 7.2,31.96 12.639,31.843 c 1.531,-0.033 3.049,0.292 4.433,0.949 l 29.85,14.14 -29.22,15.39 C 12.883,64.858 6.921,63.008 4.384,58.189 3.673,56.837 3.286,55.339 3.252,53.812 Z"
               style="fill:#ffffff"
               id="path2202" />
            <path
               d="m 13.125,66.463 c -1.281,0 -2.568,-0.193 -3.827,-0.584 C 6.017,64.861 3.329,62.626 1.73,59.586 0.807,57.833 0.296,55.858 0.253,53.878 c 0,-10e-4 0,-0.002 0,-0.002 l -0.25,-11.91 c -0.073,-3.43 1.194,-6.685 3.568,-9.164 2.375,-2.479 5.572,-3.884 9.003,-3.957 1.998,-0.043 3.988,0.385 5.784,1.238 L 48.206,44.22 c 1.027,0.487 1.691,1.512 1.715,2.648 0.024,1.136 -0.596,2.188 -1.602,2.718 L 19.1,64.976 c -1.874,0.987 -3.916,1.487 -5.975,1.487 z M 6.252,53.749 c 0.023,1.056 0.295,2.108 0.788,3.042 0.854,1.622 2.287,2.814 4.037,3.357 1.751,0.543 3.607,0.372 5.229,-0.481 L 40.216,47.074 15.788,35.503 C 14.83,35.048 13.776,34.822 12.703,34.842 10.874,34.881 9.17,35.63 7.904,36.952 6.638,38.273 5.963,40.008 6.002,41.837 Z"
               style="fill:#222433"
               id="path2204" />
          </g>
          <g
             id="g2212">
            <path
               d="m 40.072,3.252 11.91,-0.25 c 5.445,-0.096 9.937,4.239 10.033,9.684 0.027,1.515 -0.296,3.016 -0.943,4.386 l -14.15,29.86 -15.39,-29.25 C 29.007,12.857 30.871,6.899 35.696,4.374 37.049,3.666 38.546,3.282 40.072,3.252 Z"
               style="fill:#ffffff"
               id="path2208" />
            <path
               d="m 46.922,49.932 c -1.112,0 -2.135,-0.616 -2.654,-1.603 L 28.878,19.079 C 25.587,12.79 28.023,5.004 34.306,1.716 36.059,0.798 38.032,0.292 40.01,0.253 l 11.91,-0.25 c 7.1,-0.123 12.97,5.54 13.096,12.63 0.035,1.966 -0.391,3.944 -1.23,5.721 L 49.633,48.216 c -0.487,1.027 -1.512,1.691 -2.648,1.715 -0.021,0.001 -0.042,0.001 -0.063,0.001 z M 52.159,6 c -0.041,0 -0.082,0 -0.123,0.001 l -11.9,0.25 c -0.001,0 -0.002,0 -0.003,0 -1.056,0.021 -2.108,0.291 -3.044,0.781 -3.352,1.754 -4.651,5.907 -2.897,9.259 L 46.784,40.223 58.363,15.788 c 0.446,-0.945 0.673,-2 0.655,-3.049 C 58.95,8.998 55.885,6 52.159,6 Z M 40.072,3.252 h 0.01 z"
               style="fill:#222433"
               id="path2210" />
          </g>
        </g>
      </g>
    </g>
  </g>
  <!--ITEM 24-->
  <g
     id="g2245"
     transform="translate(-33.56705,-77.017449)">
    <defs
       id="defs2225">
      <clipPath
         id="clip-path-id-viewbox-item-24">
        <rect
           x="0"
           y="0"
           width="65.016998"
           height="66.458"
           id="rect2222" />
      </clipPath>
    </defs>
    <g
       transform="matrix(0.38451482,0,0,0.37617744,808,538)"
       id="g2243">
      <g
         clip-path="url(#clip-path-id-viewbox-item-24)"
         id="g2241">
        <g
           id="g2239">
          <g
             id="g2231">
            <path
               d="M 3.252,53.812 3.002,41.902 C 2.886,36.463 7.2,31.96 12.639,31.843 c 1.531,-0.033 3.049,0.292 4.433,0.949 l 29.85,14.14 -29.22,15.39 C 12.883,64.858 6.921,63.008 4.384,58.189 3.673,56.837 3.286,55.339 3.252,53.812 Z"
               style="fill:#ffffff"
               id="path2227" />
            <path
               d="m 13.125,66.463 c -1.281,0 -2.568,-0.193 -3.827,-0.584 C 6.017,64.861 3.329,62.626 1.73,59.586 0.807,57.833 0.296,55.858 0.253,53.878 c 0,-10e-4 0,-0.002 0,-0.002 l -0.25,-11.91 c -0.073,-3.43 1.194,-6.685 3.568,-9.164 2.375,-2.479 5.572,-3.884 9.003,-3.957 1.998,-0.043 3.988,0.385 5.784,1.238 L 48.206,44.22 c 1.027,0.487 1.691,1.512 1.715,2.648 0.024,1.136 -0.596,2.188 -1.602,2.718 L 19.1,64.976 c -1.874,0.987 -3.916,1.487 -5.975,1.487 z M 6.252,53.749 c 0.023,1.056 0.295,2.108 0.788,3.042 0.854,1.622 2.287,2.814 4.037,3.357 1.751,0.543 3.607,0.372 5.229,-0.481 L 40.216,47.074 15.788,35.503 C 14.83,35.048 13.776,34.822 12.703,34.842 10.874,34.881 9.17,35.63 7.904,36.952 6.638,38.273 5.963,40.008 6.002,41.837 Z"
               style="fill:#222433"
               id="path2229" />
          </g>
          <g
             id="g2237">
            <path
               d="m 40.072,3.252 11.91,-0.25 c 5.445,-0.096 9.937,4.239 10.033,9.684 0.027,1.515 -0.296,3.016 -0.943,4.386 l -14.15,29.86 -15.39,-29.25 C 29.007,12.857 30.871,6.899 35.696,4.374 37.049,3.666 38.546,3.282 40.072,3.252 Z"
               style="fill:#ffffff"
               id="path2233" />
            <path
               d="m 46.922,49.932 c -1.112,0 -2.135,-0.616 -2.654,-1.603 L 28.878,19.079 C 25.587,12.79 28.023,5.004 34.306,1.716 36.059,0.798 38.032,0.292 40.01,0.253 l 11.91,-0.25 c 7.1,-0.123 12.97,5.54 13.096,12.63 0.035,1.966 -0.391,3.944 -1.23,5.721 L 49.633,48.216 c -0.487,1.027 -1.512,1.691 -2.648,1.715 -0.021,0.001 -0.042,0.001 -0.063,0.001 z M 52.159,6 c -0.041,0 -0.082,0 -0.123,0.001 l -11.9,0.25 c -0.001,0 -0.002,0 -0.003,0 -1.056,0.021 -2.108,0.291 -3.044,0.781 -3.352,1.754 -4.651,5.907 -2.897,9.259 L 46.784,40.223 58.363,15.788 c 0.446,-0.945 0.673,-2 0.655,-3.049 C 58.95,8.998 55.885,6 52.159,6 Z M 40.072,3.252 h 0.01 z"
               style="fill:#222433"
               id="path2235" />
          </g>
        </g>
      </g>
    </g>
  </g>
  <!--ITEM 25-->
  <g
     id="g2262"
     transform="translate(-33.56705,-77.017449)">
    <defs
       id="defs2250">
      <clipPath
         id="clip-path-id-viewbox-item-25">
        <rect
           x="0"
           y="0"
           width="268.89999"
           height="164"
           id="rect2247" />
      </clipPath>
    </defs>
    <g
       transform="matrix(0.51971912,0.06959795,-0.06960216,0.51975058,216.33114,366.02301)"
       id="g2260">
      <g
         clip-path="url(#clip-path-id-viewbox-item-25)"
         id="g2258">
        <g
           id="g2256">
          <path
             d="m 3,164 a 3,3 0 0 1 -2.068,-5.173 c 28.539,-27.159 48.115,-49.546 58.182,-66.54 q 0.824,-1.388 1.534,-2.679 c -10.64,1.156 -17.816,-0.782 -21.634,-5.789 -4.488,-5.886 -3.241,-12.859 3.255,-18.2 7.851,-6.45 21.105,-8.6 27.1,-1.832 3.558,4.022 3.98,10.029 1.38,17.841 C 107.088,72.433 172.13,38.106 230.678,0.476 a 3.0002433,3.0002433 0 0 1 3.244,5.048 c -27.956,17.968 -71.208,43.542 -108.757,61.434 -24,11.438 -43.018,18.589 -57.23,21.489 -8.706,18.022 -29.991,43.441 -62.866,74.726 A 2.992,2.992 0 0 1 3,164 Z M 58.816,65.593 a 21.6,21.6 0 0 0 -12.738,4.665 c -2.765,2.272 -5.407,5.838 -2.293,9.923 3.018,3.957 10.041,4.728 20.037,2.958 4.189,-9.932 2.3,-13.961 1.049,-15.374 -1.337,-1.51 -3.538,-2.172 -6.055,-2.172 z"
             style="fill:#222433"
             id="path2252" />
          <path
             d="m 151.9,99.6 a 3,3 0 0 1 -1.012,-5.825 c 42.081,-15.071 112.5,-68.134 113.2,-68.669 a 3.0001232,3.0001232 0 0 1 3.619,4.786 c -2.914,2.2 -71.859,54.153 -114.8,69.531 A 2.984,2.984 0 0 1 151.9,99.6 Z"
             style="fill:#222433"
             id="path2254" />
        </g>
      </g>
    </g>
  </g>
</svg>
