<svg xmlns="http://www.w3.org/2000/svg" width="1366" height="161.2" viewBox="0 0 1366 161.2">
    <g id="layered-waves" transform="translate(0 -439.8)">
      <path id="Path_155" data-name="Path 155" d="M0,441l12.6,4c12.749,4,37.944,12,63.291,17.5s50.542,8.5,75.889,1.5,50.542-24,75.889-24.2c25.347-.1,50.542,16.5,75.889,22.9C328.9,469,354.1,465,379.444,467s50.542,10,75.889,11.2c25.347,1.1,50.542-4.5,75.889-3.4,25.347,1.2,50.542,9.2,75.889,8.4,25.347-.9,50.542-10.5,75.889-18.4,25.347-7.8,50.542-13.8,75.889-13,25.347.9,50.542,8.5,75.889,8.7s50.542-7.2,75.889-5.7,50.542,11.9,75.889,9.7,50.542-16.8,75.889-19.5,50.542,6.7,75.889,7.7,50.542-6.4,75.889-6.4,50.542,7.4,75.889,14.2,50.542,13.2,63.291,16.3L1366,480V601H0Z" fill="#7289da"/>
      <path id="Path_156" data-name="Path 156" d="M0,513l12.6-3.5C25.347,506,50.542,499,75.889,489.8c25.347-9.1,50.542-20.5,75.889-27.6,25.347-7.2,50.542-10.2,75.889-1,25.347,9.1,50.542,30.5,75.889,31.6C328.9,494,354.1,475,379.444,469s50.542,1,75.889,6.3c25.347,5.4,50.542,9,75.889,14.2s50.542,11.8,75.889,13.2c25.347,1.3,50.542-2.7,75.889-6,25.347-3.4,50.542-6,75.889-3.7s50.542,9.7,75.889,9.5,50.542-7.8,75.889-15.2c25.347-7.3,50.542-14.3,75.889-20.6,25.347-6.4,50.542-12,75.889-4.7s50.542,27.7,75.889,35.3c25.347,7.7,50.542,2.7,75.889-2.6,25.347-5.4,50.542-11,75.889-17.4,25.347-6.3,50.542-13.3,63.291-16.8L1366,457V601H0Z" fill="#8894d2"/>
      <path id="Path_157" data-name="Path 157" d="M0,528l12.6-6.7c12.749-6.6,37.944-20,63.291-21.8s50.542,7.8,75.889,10,50.542-3.2,75.889-2.7,50.542,6.9,75.889,6.9,50.542-6.4,75.889-5.7,50.542,8.3,75.889,6,50.542-14.7,75.889-14.5,50.542,12.8,75.889,18.2c25.347,5.3,50.542,3.3,75.889-4.2s50.542-20.5,75.889-24,50.542,2.5,75.889,5.7c25.347,3.1,50.542,3.5,75.889,3.8s50.542.7,75.889,5.7,50.542,14.6,75.889,19.8,50.542,5.8,75.889,4,50.542-6.2,75.889-8,50.542-1.2,75.889-.3c25.347.8,50.542,1.8,63.291,2.3l12.6.5v78H0Z" fill="#9aa0ca"/>
      <path id="Path_158" data-name="Path 158" d="M0,519l12.6,3.5C25.347,526,50.542,533,75.889,536.8a257.421,257.421,0,0,0,75.889.9c25.347-3.7,50.542-11.7,75.889-15.4,25.347-3.6,50.542-3,75.889-3.6,25.347-.7,50.542-2.7,75.889,2.8s50.542,18.5,75.889,18.3c25.347-.1,50.542-13.5,75.889-17.5s50.542,1.4,75.889,4.2a337.867,337.867,0,0,0,75.889.3c25.347-2.8,50.542-8.8,75.889-5,25.347,3.9,50.542,17.5,75.889,20.5s50.542-4.6,75.889-8.8,50.542-4.8,75.889-4a719.826,719.826,0,0,1,75.889,6.7c25.347,3.5,50.542,8.1,75.889,11a427.933,427.933,0,0,0,75.889,2.1c25.347-1.6,50.542-6,75.889-6s50.542,4.4,63.291,6.5L1366,552v49H0Z" fill="#aaacc2"/>
      <path id="Path_159" data-name="Path 159" d="M0,544l12.6,3.8c12.749,3.9,37.944,11.5,63.291,12.2s50.542-5.7,75.889-6,50.542,5.3,75.889,8.2a332.076,332.076,0,0,0,75.889-.2c25.347-3,50.542-9,75.889-7.7,25.347,1.4,50.542,10,75.889,11.7s50.542-3.7,75.889-6.3c25.347-2.7,50.542-2.7,75.889-1.9,25.347.9,50.542,2.5,75.889,4.5s50.542,4.4,75.889,3.7,50.542-4.3,75.889-6.5,50.542-2.8,75.889-.5,50.542,7.7,75.889,10.7,50.542,3.6,75.889-1c25.347-4.7,50.542-14.7,75.889-16.7s50.542,4,75.889,8.5,50.542,7.5,75.889,7.3c25.347-.1,50.542-3.5,63.291-5.1L1366,561v40H0Z" fill="#bdc3c7"/>
    </g>
  </svg>
  