<svg id="visual" viewBox="0 0 900 600" width="900" height="600" xmlns="http://www.w3.org/2000/svg" xmlns:xlink="http://www.w3.org/1999/xlink" version="1.1"><rect x="0" y="0" width="900" height="600" fill="#3F3D56"></rect><defs><linearGradient id="grad1_0" x1="33.3%" y1="0%" x2="100%" y2="100%"><stop offset="20%" stop-color="#0067ff" stop-opacity="1"></stop><stop offset="80%" stop-color="#0067ff" stop-opacity="1"></stop></linearGradient></defs><defs><linearGradient id="grad1_1" x1="33.3%" y1="0%" x2="100%" y2="100%"><stop offset="20%" stop-color="#0067ff" stop-opacity="1"></stop><stop offset="80%" stop-color="#315fe1" stop-opacity="1"></stop></linearGradient></defs><defs><linearGradient id="grad1_2" x1="33.3%" y1="0%" x2="100%" y2="100%"><stop offset="20%" stop-color="#3f58c3" stop-opacity="1"></stop><stop offset="80%" stop-color="#315fe1" stop-opacity="1"></stop></linearGradient></defs><defs><linearGradient id="grad1_3" x1="33.3%" y1="0%" x2="100%" y2="100%"><stop offset="20%" stop-color="#3f58c3" stop-opacity="1"></stop><stop offset="80%" stop-color="#4551a6" stop-opacity="1"></stop></linearGradient></defs><defs><linearGradient id="grad1_4" x1="33.3%" y1="0%" x2="100%" y2="100%"><stop offset="20%" stop-color="#464a8a" stop-opacity="1"></stop><stop offset="80%" stop-color="#4551a6" stop-opacity="1"></stop></linearGradient></defs><defs><linearGradient id="grad1_5" x1="33.3%" y1="0%" x2="100%" y2="100%"><stop offset="20%" stop-color="#464a8a" stop-opacity="1"></stop><stop offset="80%" stop-color="#444370" stop-opacity="1"></stop></linearGradient></defs><defs><linearGradient id="grad1_6" x1="33.3%" y1="0%" x2="100%" y2="100%"><stop offset="20%" stop-color="#3f3d56" stop-opacity="1"></stop><stop offset="80%" stop-color="#444370" stop-opacity="1"></stop></linearGradient></defs><defs><linearGradient id="grad2_0" x1="0%" y1="0%" x2="66.7%" y2="100%"><stop offset="20%" stop-color="#0067ff" stop-opacity="1"></stop><stop offset="80%" stop-color="#0067ff" stop-opacity="1"></stop></linearGradient></defs><defs><linearGradient id="grad2_1" x1="0%" y1="0%" x2="66.7%" y2="100%"><stop offset="20%" stop-color="#315fe1" stop-opacity="1"></stop><stop offset="80%" stop-color="#0067ff" stop-opacity="1"></stop></linearGradient></defs><defs><linearGradient id="grad2_2" x1="0%" y1="0%" x2="66.7%" y2="100%"><stop offset="20%" stop-color="#315fe1" stop-opacity="1"></stop><stop offset="80%" stop-color="#3f58c3" stop-opacity="1"></stop></linearGradient></defs><defs><linearGradient id="grad2_3" x1="0%" y1="0%" x2="66.7%" y2="100%"><stop offset="20%" stop-color="#4551a6" stop-opacity="1"></stop><stop offset="80%" stop-color="#3f58c3" stop-opacity="1"></stop></linearGradient></defs><defs><linearGradient id="grad2_4" x1="0%" y1="0%" x2="66.7%" y2="100%"><stop offset="20%" stop-color="#4551a6" stop-opacity="1"></stop><stop offset="80%" stop-color="#464a8a" stop-opacity="1"></stop></linearGradient></defs><defs><linearGradient id="grad2_5" x1="0%" y1="0%" x2="66.7%" y2="100%"><stop offset="20%" stop-color="#444370" stop-opacity="1"></stop><stop offset="80%" stop-color="#464a8a" stop-opacity="1"></stop></linearGradient></defs><defs><linearGradient id="grad2_6" x1="0%" y1="0%" x2="66.7%" y2="100%"><stop offset="20%" stop-color="#444370" stop-opacity="1"></stop><stop offset="80%" stop-color="#3f3d56" stop-opacity="1"></stop></linearGradient></defs><g transform="translate(900, 0)"><path d="M0 401C-17.6 399.5 -35.2 398 -51.8 393.6C-68.5 389.2 -84.2 382.1 -101.7 379.6C-119.2 377.2 -138.4 379.5 -155.2 374.7C-172.1 370 -186.7 358.3 -199.5 345.5C-212.3 332.8 -223.4 319 -235.6 307C-247.7 295.1 -261 285 -275.1 275.1C-289.2 265.1 -304.2 255.4 -316.5 242.9C-328.9 230.4 -338.6 215.2 -343.8 198.5C-349.1 181.8 -349.9 163.7 -357.5 148.1C-365.2 132.4 -379.7 119.2 -385.4 103.3C-391.2 87.3 -388.2 68.6 -386.7 50.9C-385.1 33.2 -385.1 16.6 -385 0L0 0Z" fill="#424063"></path><path d="M0 343.7C-15.1 342.4 -30.1 341.1 -44.4 337.4C-58.7 333.6 -72.2 327.5 -87.2 325.4C-102.2 323.3 -118.6 325.3 -133.1 321.2C-147.5 317.2 -160 307.1 -171 296.2C-182 285.2 -191.5 273.4 -201.9 263.2C-212.4 252.9 -223.7 244.3 -235.8 235.8C-247.9 227.3 -260.7 218.9 -271.3 208.2C-281.9 197.5 -290.2 184.4 -294.7 170.1C-299.2 155.9 -299.9 140.4 -306.5 126.9C-313 113.5 -325.4 102.2 -330.3 88.5C-335.3 74.8 -332.7 58.8 -331.4 43.6C-330.1 28.5 -330.1 14.2 -330 0L0 0Z" fill="#45467d"></path><path d="M0 286.4C-12.6 285.3 -25.1 284.3 -37 281.1C-48.9 278 -60.2 272.9 -72.7 271.1C-85.1 269.4 -98.8 271 -110.9 267.7C-122.9 264.3 -133.3 255.9 -142.5 246.8C-151.7 237.7 -159.6 227.8 -168.3 219.3C-177 210.8 -186.4 203.6 -196.5 196.5C-206.6 189.4 -217.3 182.4 -226.1 173.5C-234.9 164.6 -241.8 153.7 -245.6 141.8C-249.3 129.9 -249.9 117 -255.4 105.8C-260.8 94.6 -271.2 85.2 -275.3 73.8C-279.4 62.4 -277.3 49 -276.2 36.4C-275.1 23.7 -275.1 11.9 -275 0L0 0Z" fill="#464d98"></path><path d="M0 229.1C-10 228.3 -20.1 227.4 -29.6 224.9C-39.1 222.4 -48.1 218.3 -58.1 216.9C-68.1 215.5 -79.1 216.8 -88.7 214.1C-98.3 211.4 -106.7 204.7 -114 197.5C-121.3 190.2 -127.7 182.3 -134.6 175.4C-141.6 168.6 -149.1 162.8 -157.2 157.2C-165.2 151.5 -173.8 145.9 -180.9 138.8C-187.9 131.7 -193.5 123 -196.5 113.4C-199.5 103.9 -199.9 93.6 -204.3 84.6C-208.7 75.7 -216.9 68.1 -220.2 59C-223.5 49.9 -221.8 39.2 -221 29.1C-220.1 19 -220 9.5 -220 0L0 0Z" fill="#4354b4"></path><path d="M0 171.9C-7.5 171.2 -15.1 170.6 -22.2 168.7C-29.4 166.8 -36.1 163.7 -43.6 162.7C-51.1 161.6 -59.3 162.6 -66.5 160.6C-73.8 158.6 -80 153.6 -85.5 148.1C-91 142.6 -95.8 136.7 -101 131.6C-106.2 126.5 -111.8 122.1 -117.9 117.9C-123.9 113.6 -130.4 109.5 -135.7 104.1C-141 98.7 -145.1 92.2 -147.3 85.1C-149.6 77.9 -150 70.2 -153.2 63.5C-156.5 56.8 -162.7 51.1 -165.2 44.3C-167.6 37.4 -166.4 29.4 -165.7 21.8C-165.1 14.2 -165 7.1 -165 0L0 0Z" fill="#395bd2"></path><path d="M0 114.6C-5 114.1 -10 113.7 -14.8 112.5C-19.6 111.2 -24.1 109.2 -29.1 108.5C-34.1 107.8 -39.5 108.4 -44.4 107.1C-49.2 105.7 -53.3 102.4 -57 98.7C-60.7 95.1 -63.8 91.1 -67.3 87.7C-70.8 84.3 -74.6 81.4 -78.6 78.6C-82.6 75.8 -86.9 73 -90.4 69.4C-94 65.8 -96.7 61.5 -98.2 56.7C-99.7 52 -100 46.8 -102.2 42.3C-104.3 37.8 -108.5 34.1 -110.1 29.5C-111.8 24.9 -110.9 19.6 -110.5 14.5C-110 9.5 -110 4.7 -110 0L0 0Z" fill="#2363f0"></path><path d="M0 57.3C-2.5 57.1 -5 56.9 -7.4 56.2C-9.8 55.6 -12 54.6 -14.5 54.2C-17 53.9 -19.8 54.2 -22.2 53.5C-24.6 52.9 -26.7 51.2 -28.5 49.4C-30.3 47.5 -31.9 45.6 -33.7 43.9C-35.4 42.2 -37.3 40.7 -39.3 39.3C-41.3 37.9 -43.5 36.5 -45.2 34.7C-47 32.9 -48.4 30.7 -49.1 28.4C-49.9 26 -50 23.4 -51.1 21.2C-52.2 18.9 -54.2 17 -55.1 14.8C-55.9 12.5 -55.5 9.8 -55.2 7.3C-55 4.7 -55 2.4 -55 0L0 0Z" fill="#0067ff"></path></g><g transform="translate(0, 600)"><path d="M0 -405.6C16.7 -397.4 33.4 -389.1 51 -387.7C68.7 -386.2 87.2 -391.5 104 -388.3C120.9 -385.2 136 -373.6 150.4 -363.1C164.8 -352.6 178.5 -343.2 193.5 -335.2C208.5 -327.1 224.8 -320.4 238 -310.2C251.3 -300 261.5 -286.2 275.8 -275.8C290.1 -265.3 308.4 -258.1 319.7 -245.3C331 -232.6 335.4 -214.3 343.8 -198.5C352.3 -182.7 364.9 -169.5 369.6 -153.1C374.2 -136.7 370.9 -117.1 371.9 -99.6C372.8 -82.2 378 -66.8 383.7 -50.5C389.4 -34.3 395.7 -17.1 402 0L0 0Z" fill="#424063"></path><path d="M0 -347.7C14.3 -340.6 28.6 -333.5 43.7 -332.3C58.9 -331 74.8 -335.5 89.2 -332.8C103.6 -330.1 116.6 -320.2 128.9 -311.2C141.3 -302.2 153 -294.2 165.9 -287.3C178.7 -280.4 192.7 -274.6 204 -265.9C215.4 -257.1 224.1 -245.4 236.4 -236.4C248.6 -227.4 264.3 -221.2 274 -210.3C283.8 -199.4 287.4 -183.7 294.7 -170.1C301.9 -156.6 312.8 -145.3 316.8 -131.2C320.8 -117.1 318 -100.4 318.8 -85.4C319.6 -70.4 324 -57.2 328.9 -43.3C333.8 -29.4 339.2 -14.7 344.6 0L0 0Z" fill="#45467d"></path><path d="M0 -289.7C11.9 -283.8 23.9 -278 36.5 -276.9C49 -275.8 62.3 -279.6 74.3 -277.4C86.3 -275.1 97.1 -266.8 107.4 -259.3C117.7 -251.9 127.5 -245.1 138.2 -239.4C148.9 -233.6 160.6 -228.9 170 -221.6C179.5 -214.3 186.8 -204.5 197 -197C207.2 -189.5 220.3 -184.3 228.4 -175.2C236.5 -166.1 239.5 -153.1 245.6 -141.8C251.6 -130.5 260.6 -121.1 264 -109.3C267.3 -97.6 265 -83.7 265.6 -71.2C266.3 -58.7 270 -47.7 274.1 -36.1C278.2 -24.5 282.6 -12.2 287.1 0L0 0Z" fill="#464d98"></path><path d="M0 -231.8C9.5 -227.1 19.1 -222.4 29.2 -221.5C39.2 -220.7 49.8 -223.7 59.5 -221.9C69.1 -220.1 77.7 -213.5 85.9 -207.5C94.2 -201.5 102 -196.1 110.6 -191.5C119.1 -186.9 128.4 -183.1 136 -177.3C143.6 -171.4 149.4 -163.6 157.6 -157.6C165.7 -151.6 176.2 -147.5 182.7 -140.2C189.2 -132.9 191.6 -122.4 196.5 -113.4C201.3 -104.4 208.5 -96.8 211.2 -87.5C213.8 -78.1 212 -66.9 212.5 -56.9C213 -47 216 -38.2 219.3 -28.9C222.5 -19.6 226.1 -9.8 229.7 0L0 0Z" fill="#4354b4"></path><path d="M0 -173.8C7.2 -170.3 14.3 -166.8 21.9 -166.1C29.4 -165.5 37.4 -167.8 44.6 -166.4C51.8 -165.1 58.3 -160.1 64.5 -155.6C70.6 -151.1 76.5 -147.1 82.9 -143.6C89.4 -140.2 96.3 -137.3 102 -132.9C107.7 -128.6 112.1 -122.7 118.2 -118.2C124.3 -113.7 132.2 -110.6 137 -105.1C141.9 -99.7 143.7 -91.8 147.3 -85.1C151 -78.3 156.4 -72.6 158.4 -65.6C160.4 -58.6 159 -50.2 159.4 -42.7C159.8 -35.2 162 -28.6 164.4 -21.6C166.9 -14.7 169.6 -7.3 172.3 0L0 0Z" fill="#395bd2"></path><path d="M0 -115.9C4.8 -113.5 9.5 -111.2 14.6 -110.8C19.6 -110.3 24.9 -111.8 29.7 -110.9C34.5 -110 38.9 -106.7 43 -103.7C47.1 -100.7 51 -98.1 55.3 -95.8C59.6 -93.5 64.2 -91.5 68 -88.6C71.8 -85.7 74.7 -81.8 78.8 -78.8C82.9 -75.8 88.1 -73.7 91.3 -70.1C94.6 -66.5 95.8 -61.2 98.2 -56.7C100.6 -52.2 104.3 -48.4 105.6 -43.7C106.9 -39 106 -33.5 106.3 -28.5C106.5 -23.5 108 -19.1 109.6 -14.4C111.3 -9.8 113.1 -4.9 114.9 0L0 0Z" fill="#2363f0"></path><path d="M0 -57.9C2.4 -56.8 4.8 -55.6 7.3 -55.4C9.8 -55.2 12.5 -55.9 14.9 -55.5C17.3 -55 19.4 -53.4 21.5 -51.9C23.5 -50.4 25.5 -49 27.6 -47.9C29.8 -46.7 32.1 -45.8 34 -44.3C35.9 -42.9 37.4 -40.9 39.4 -39.4C41.4 -37.9 44.1 -36.9 45.7 -35C47.3 -33.2 47.9 -30.6 49.1 -28.4C50.3 -26.1 52.1 -24.2 52.8 -21.9C53.5 -19.5 53 -16.7 53.1 -14.2C53.3 -11.7 54 -9.5 54.8 -7.2C55.6 -4.9 56.5 -2.4 57.4 0L0 0Z" fill="#0067ff"></path></g></svg>