<svg id="email" xmlns="http://www.w3.org/2000/svg" width="28" height="28" viewBox="0 0 28 28">
    <g id="Group_31" data-name="Group 31" transform="translate(11.586 11.477)">
      <g id="Group_30" data-name="Group 30">
        <path id="Path_121" data-name="Path 121" d="M214.468,210a2.468,2.468,0,1,0,2.468,2.468A2.471,2.471,0,0,0,214.468,210Z" transform="translate(-212 -210)" fill="#fff"/>
      </g>
    </g>
    <g id="Group_33" data-name="Group 33">
      <g id="Group_32" data-name="Group 32">
        <path id="Path_122" data-name="Path 122" d="M13.945,0a14,14,0,0,0,0,28A14.149,14.149,0,0,0,28,13.945,14.055,14.055,0,0,0,13.945,0ZM19.8,18.047a3.275,3.275,0,0,1-2.681-1.4,4.1,4.1,0,1,1-.6-5.962v-.021a.82.82,0,1,1,1.641,0v4.1a1.641,1.641,0,0,0,3.281,0c0-5.49-3.633-8.2-7.383-8.2a7.383,7.383,0,1,0,0,14.766,7.3,7.3,0,0,0,4.488-1.52.82.82,0,0,1,1,1.3,8.935,8.935,0,0,1-5.487,1.86,9.023,9.023,0,1,1,0-18.047c4.533,0,9.023,3.343,9.023,9.844A3.284,3.284,0,0,1,19.8,18.047Z" fill="#fff"/>
      </g>
    </g>
  </svg>
  