<svg xmlns="http://www.w3.org/2000/svg" width="28" height="28" viewBox="0 0 28 28">
  <path id="github" d="M14,0A14.055,14.055,0,0,0,0,14,14.53,14.53,0,0,0,10.719,28V23.368A3.371,3.371,0,0,1,6.94,21.687c-.318-.537-.882-1.119-1.47-1.076l-.144-1.634a3.374,3.374,0,0,1,3.025,1.872,1.814,1.814,0,0,0,1.053.9,2.205,2.205,0,0,0,1.377-.12,3.845,3.845,0,0,1,.965-1.973h0c-3.647-.544-5.1-2.478-5.677-4.005a6.424,6.424,0,0,1,1-6.161.22.22,0,0,0,.055-.17,5.37,5.37,0,0,1,.163-3.585A5.668,5.668,0,0,1,10.391,6.9l.393.236c.164.1.113.042.277.03A11.881,11.881,0,0,1,14,6.757a11.932,11.932,0,0,1,2.979.424l.127.013c-.011,0,.035-.008.111-.054,2.842-1.722,2.74-1.159,3.5-1.407a5.462,5.462,0,0,1,.16,3.587c-.083.255,2.464,2.587,1.053,6.33-.577,1.528-2.03,3.462-5.676,4.006h0a3.6,3.6,0,0,1,1.026,2.561V28A14.53,14.53,0,0,0,28,14,14.054,14.054,0,0,0,14,0Zm0,0" transform="translate(0)" fill="#fff"/>
</svg>
