<?xml version="1.0" encoding="UTF-8" standalone="no"?>
<svg
   width="585.99896"
   height="495.12411"
   viewBox="0 0 585.99896 495.12411"
   fill="none"
   version="1.1"
   id="svg934"
   sodipodi:docname="lighthouse.svg"
   inkscape:version="1.1.1 (3bf5ae0d25, 2021-09-20)"
   xmlns:inkscape="http://www.inkscape.org/namespaces/inkscape"
   xmlns:sodipodi="http://sodipodi.sourceforge.net/DTD/sodipodi-0.dtd"
   xmlns="http://www.w3.org/2000/svg"
   xmlns:svg="http://www.w3.org/2000/svg">
  <sodipodi:namedview
     id="namedview936"
     pagecolor="#505050"
     bordercolor="#eeeeee"
     borderopacity="1"
     inkscape:pageshadow="0"
     inkscape:pageopacity="0"
     inkscape:pagecheckerboard="0"
     showgrid="false"
     inkscape:zoom="0.23069359"
     inkscape:cx="1328.6022"
     inkscape:cy="244.91361"
     inkscape:window-width="1920"
     inkscape:window-height="1001"
     inkscape:window-x="-9"
     inkscape:window-y="-9"
     inkscape:window-maximized="1"
     inkscape:current-layer="svg934" />
  <path
     fill="transparent"
     d="M -79.789368,113.18467 H 820.21063 v 600 H -79.789368 Z"
     id="path881" />
  <defs
     id="defs932">
    <linearGradient
       id="a"
       x1="324.81799"
       y1="779.32202"
       x2="587.22302"
       y2="-404.561"
       gradientUnits="userSpaceOnUse"
       gradientTransform="translate(-137.012,-39.959897)">
      <stop
         stop-color="#fff"
         id="stop917" />
      <stop
         offset="1"
         stop-color="#EEE"
         id="stop919" />
    </linearGradient>
    <linearGradient
       id="b"
       x1="287.52701"
       y1="351.03799"
       x2="409.146"
       y2="-195.47"
       gradientUnits="userSpaceOnUse"
       gradientTransform="translate(-137.012,-39.959897)">
      <stop
         stop-color="#fff"
         id="stop922" />
      <stop
         offset="1"
         stop-color="#EEE"
         id="stop924" />
    </linearGradient>
    <linearGradient
       id="c"
       x1="578.85699"
       y1="640.91998"
       x2="683.151"
       y2="158.612"
       gradientUnits="userSpaceOnUse"
       gradientTransform="translate(-137.012,-39.959897)">
      <stop
         stop-color="#fff"
         id="stop927" />
      <stop
         offset="1"
         stop-color="#EEE"
         id="stop929" />
    </linearGradient>
  </defs>
  <path
     d="m 20.138998,309.2641 c -3.894,71.753 136.388002,217.654 309.295002,163.651 80.418,-25.118 73.606,-66.809 134.755,-121.754 36.449,-32.748 88.818,-57.511 103.384,-105.113 12.583,-41.08699 4.866,-85.25 -16.948,-113.975 C 501.564,67.472104 402.52,23.236104 304.931,125.0201 207.341,226.8041 30.202002,124.2091 20.138998,309.2641 Z"
     fill="url(#a)"
     id="path883"
     style="fill:url(#a)" />
  <path
     d="m 58.594002,153.2541 c 13.645,24.35201 43.527998,27.69801 91.403998,23.07001 36.006,-3.486 68.84,-6.184 104.849,-25.81701 25.204,-13.732 45.154,-32.31 59.715,-50.354 C 330.341,80.605104 352.366,58.296104 341.569,36.133104 326.731,5.6861033 240.927,-19.956897 157.608,21.977104 66.083002,68.055104 45.246002,129.4541 58.594002,153.2541 Z"
     fill="url(#b)"
     id="path885"
     style="fill:url(#b)" />
  <path
     d="m 406.35,454.9711 c 31.788,-44.471 64.343,-91.737 106.965,-115.017 43.962,-24.025 52.07,-9.218 55.113,14.322 3.043,23.54 -10.52,79.315 -70.517,111.048 -60.012,31.744 -121.305,31.268 -91.561,-10.353 z"
     fill="url(#c)"
     id="path887"
     style="fill:url(#c)" />
  <path
     d="m 476.818,332.2771 v 150.544 H 262.084 v -22.588 c 0,-21.019 -19.975,-28.586 -67.19,-25.41 -37.771,2.541 -49.635,-12.251 -50.846,-19.965 v -96.648 l -34.049,-11.343 c 2.573,-64.734 27.149,-203.913 104.871,-242.753996 97.152,-48.55 185.809,-26.545 244.243,60.347996 43.102,64.09501 27.995,159.567 17.705,207.816 z"
     fill="#666AF6"
     id="path889"
     style="fill:#0067ff;fill-opacity:1" />
  <ellipse
     rx="17"
     ry="16.5"
     transform="scale(1,-1)"
     fill="#31446c"
     id="ellipse891"
     cx="568.99896"
     cy="-188.32111" />
  <circle
     r="10.5"
     transform="scale(1,-1)"
     fill="#f8ae9d"
     id="circle893"
     cx="500.49896"
     cy="-113.32111" />
  <circle
     r="23.5"
     transform="scale(1,-1)"
     fill="#666af6"
     id="circle895"
     cx="23.5"
     cy="-386.32108" />
  <ellipse
     rx="11"
     ry="11.5"
     transform="scale(1,-1)"
     fill="#f8ae9d"
     id="ellipse897"
     cx="47"
     cy="-301.32111" />
  <ellipse
     cx="-86"
     cy="-238.32111"
     rx="6"
     ry="5.5"
     transform="scale(-1)"
     fill="#e1e4e5"
     id="ellipse899" />
  <circle
     r="11.5"
     transform="scale(1,-1)"
     fill="#e1e4e5"
     id="circle901"
     cx="114.5"
     cy="-448.32108" />
  <circle
     r="14.5"
     transform="scale(1,-1)"
     fill="#e1e4e5"
     id="circle903"
     cx="439.48798"
     cy="-350.5401" />
  <circle
     cx="220"
     cy="225.82111"
     r="18"
     fill="#ffffff"
     id="circle905" />
  <path
     d="m 217.639,329.8211 -0.069,0.551 c 0.023,-0.022 0.069,-0.16 0.069,-0.551 z m 0.023,137.902 c 0,0.046 0,0.091 0.023,0.137 0,-0.091 0,-0.114 -0.023,-0.137 z m -2.733,-116.725 v -0.023 c 0,-0.046 -0.023,-0.092 -0.023,-0.138 z m 10.978,141.392 1.08,0.069 c 0,-0.023 -0.276,-0.046 -1.08,-0.069 z m 274.081,-0.022 c 0.092,0 0.183,0 0.252,-0.023 -0.16,0 -0.229,0.023 -0.252,0.023 z m -231.98,2.733 h -0.069 c -0.091,0 -0.206,0.023 -0.275,0.023 z"
     fill="#b1cbc0"
     id="path907" />
  <path
     d="m 500.67,489.0841 c -14.49,0.369 -18.324,1.934 -33.365,1.29 -7.164,0.092 -14.81,-0.185 -21.814,-0.369 -3.329,-1.197 -9.185,0 -13.134,-1.013 l -1.516,0.645 c -1.355,-0.369 -2.939,-0.553 -4.317,-0.185 l 0.092,0.185 c -2.021,-0.461 -4.317,-0.185 -5.304,-0.461 l 0.092,0.184 -2.457,-0.092 0.413,0.277 c -3.536,-0.553 -7.164,-0.553 -10.379,-0.369 l 0.276,-0.829 c -6.866,0.921 -9.369,-0.737 -15.546,0.277 l 0.092,0.184 c -7.83,-2.119 -12.354,1.473 -20.414,-0.553 1.011,0.277 -0.436,0.369 -0.344,0.645 -3.72,-0.184 -7.669,-0.368 -7.738,-1.934 -2.71,0 -2.205,0.46 -2.549,1.105 0.023,-0.645 -2.342,-1.013 -4.455,-1.013 l 0.965,0.276 -6.062,-0.276 1.194,-1.29 c -3.215,0.369 -0.827,1.566 -3.881,1.29 l 0.046,-1.105 c -4.432,0.184 -7.05,1.842 -11.343,2.671 -17.865,0.46 -37.062,-2.303 -53.663,-0.369 l -0.735,0.829 c -0.322,1.197 -4.593,-1.75 -5.213,-0.645 l -1.929,-0.552 c -0.551,0.184 -1.699,0.46 -0.734,0.737 -1.791,0.092 -1.837,-0.185 -3.123,-0.461 l -1.929,0.737 c -7.049,0.552 -13.043,-0.829 -20.459,-0.553 -8.91,1.474 -25.695,0.092 -35.362,-0.644 -13.594,-1.75 -29.392,2.947 -43.307,0.921 -0.46,0.184 -1.631,-0.185 -1.608,-0.369 l -12.744,0.184 c 0,0 -61.744998,0.461 -14.833,-9.394 l -0.322,-0.276 c 6.981,-0.645 11.366,-0.737 16.166,0.552 0.757,-1.566 5.717,-0.184 7.348,-0.645 l -0.161,-0.092 c 4.248,1.198 8.748,-1.013 12.859,0.092 -0.161,-0.092 -0.253,-0.552 -1.194,-0.552 2.985,0.184 7.072,0.553 7.302,-0.369 7.141,0.277 17.084,-0.184 21.653,1.29 l -0.321,-0.276 c 2.594,1.013 3.375,0.184 6.291,0.644 0.161,-0.092 0.368,-0.184 0.322,-0.276 2.847,1.013 8.289,0.184 10.562,0.553 l 0.138,-0.645 5.649,0.184 -2.113,0.092 c 0.735,1.658 4.271,-1.105 8.359,0 3.834,-0.184 7.784,3.5 11.756,2.671 1.906,0.829 -1.676,-1.289 1.171,-0.645 0.092,-0.921 -1.331,-0.552 -0.596,-1.289 2.778,0.461 4.569,-0.921 8.013,-0.276 l 0.138,-0.645 c 4.478,1.289 8.45,-0.921 11.435,0.276 4.616,0.553 3.1,-2.026 7.922,-0.737 l 1.883,-0.921 c 2.067,-0.184 1.47,1.106 3.766,0.645 -0.138,-0.552 2.893,-0.46 1.539,-1.013 5.166,-0.921 10.493,1.289 17.313,-0.276 1.47,1.105 4.914,0.46 6.016,1.289 0.184,-0.46 6.866,-0.092 3.031,-1.197 -0.321,-0.092 -0.918,-0.092 -0.872,0.092 l -0.46,-0.645 c 3.881,-1.289 7.05,0.737 10.908,0.461 -1.149,0.184 -2.664,0.184 -1.654,0.644 l 3.582,-0.092 -0.734,-0.552 5.327,-0.369 -0.735,0.737 c 2.595,-0.368 3.513,-1.566 6.453,-0.553 1.331,0.553 -2.457,0.922 0.275,1.198 3.49,-0.461 8.703,-1.197 13.134,-1.382 -0.413,0.829 0.781,0.737 2.021,0.921 l 0.138,-0.644 c 4.707,0.921 1.722,-1.474 6.406,-0.737 l -0.413,-0.461 1.24,1.474 c 4.225,1.381 2.273,-1.382 6.958,0.46 -1.86,-0.092 -0.873,1.474 1.4,1.198 l -0.574,-0.645 c 1.263,0.184 1.676,0.461 2.526,0.276 -0.758,-0.368 -0.39,-0.921 1.47,-0.829 l -1.24,-0.829 3.513,1.198 c 2.71,-0.737 7.003,0.184 8.129,-0.737 0,0 5.832,-0.461 7.164,0.553 -1.171,-0.645 2.044,-0.921 1.125,-1.658 1.516,0.737 5.97,1.289 7.761,0.552 l -0.344,-0.092 c 6.613,-0.829 11.297,1.106 17.222,0.092 -0.276,0.829 2.87,0.369 2.089,1.382 6.131,1.013 11.183,-2.118 13.41,1.105 2.802,0.184 3.307,-0.737 4.753,-0.921 l -0.666,-0.184 c 5.236,0.276 6.751,0.276 10.632,0.184 1.929,0.276 2.25,1.75 5.718,1.382 -1.126,-0.553 0.298,-0.461 1.584,-0.461 -0.827,-0.092 -1.079,-0.276 0.62,-0.737 0.23,0.185 0.62,0.277 0.964,0.369 0.023,0 0.092,-0.092 0.046,-0.184 2.159,0.184 1.791,0.368 0.781,0.46 0.046,0.092 -0.023,0.184 -0.344,0.369 2.25,-0.737 6.268,0.092 6.544,-0.922 6.521,0.277 11.183,1.29 16.602,1.658 0.62,-0.552 -0.666,-1.013 -2.228,-1.197 l 3.858,0.184 c -0.023,-0.737 -2.204,-0.46 -3.398,-0.552 4.592,-1.198 9.46,1.197 14.833,0.092 l 1.125,0.552 0.322,-0.092 c -0.023,0.277 1.194,0.737 1.975,0.829 0.757,-0.645 -0.046,-1.474 2.617,-1.474 2.113,-0.644 5.97,0.277 8.726,0.645 -1.493,0.092 -1.01,0.461 -0.367,0.737 1.331,0 2.089,-0.645 3.122,-0.368 l 0.138,-0.829 c -0.528,0.829 3.468,0.921 3.973,1.197 0.757,-0.645 -2.067,-0.553 -2.388,-1.013 5.327,0.092 2.663,0 8.013,0.092 2.848,0.645 -0.528,0.829 0.85,1.566 2.503,0.184 4.96,0.737 7.853,0.276 l -0.918,0.737 c 4.73,0.645 7.554,0.552 10.723,-0.276 35.178,6.263 7.417,8.565 7.417,8.565 -13.915,1.934 -21.057,-0.276 -37.543,-0.921 z"
     fill="#666af6"
     id="path909" />
  <path
     d="m 489.813,380.8341 -0.69,0.528 c 0.023,0.023 0.207,-0.115 0.69,-0.528 z m -173.594,13.62 -0.138,0.161 c 0.092,-0.092 0.138,-0.138 0.138,-0.161 z m 146.698,7.281 0.046,-0.023 0.138,-0.161 z"
     fill="#b1cbc0"
     id="path911" />
  <path
     d="m 308.988,437.0401 a 7,7 0 1 0 0,-14 7,7 0 0 0 0,14 z"
     fill="#ffffff"
     id="path913" />
  <path
     d="m 381.488,423.0401 c 8.008,0 14.5,-6.492 14.5,-14.5 0,-8.008 -6.492,-14.5 -14.5,-14.5 -8.008,0 -14.5,6.492 -14.5,14.5 0,8.008 6.492,14.5 14.5,14.5 z"
     fill="#31446c"
     id="path915" />
</svg>
