<svg xmlns="http://www.w3.org/2000/svg" width="28" height="28" viewBox="0 0 28 28">
    <g id="linkedin" transform="translate(0 0.001)">
      <circle id="Ellipse_10" data-name="Ellipse 10" cx="14" cy="14" r="14" transform="translate(0 -0.001)" fill="#fff"/>
      <g id="Group_29" data-name="Group 29" transform="translate(6.83 6.041)">
        <path id="Path_120" data-name="Path 120" d="M42.541,33.033v5.721H39.224V33.417c0-1.34-.479-2.256-1.68-2.256a1.814,1.814,0,0,0-1.7,1.213,2.27,2.27,0,0,0-.11.808v5.572H32.415s.045-9.04,0-9.976h3.317v1.414c-.007.011-.016.022-.022.033h.022v-.033a3.294,3.294,0,0,1,2.989-1.648c2.182,0,3.818,1.426,3.818,4.49Zm-13.6-9.064a1.729,1.729,0,1,0-.044,3.448h.022a1.729,1.729,0,1,0,.022-3.448Zm-1.68,14.785h3.316V28.778H27.265Z" transform="translate(-27.068 -23.969)" fill="#007ab9"/>
      </g>
    </g>
  </svg>
  