<svg xmlns="http://www.w3.org/2000/svg" width="16" height="17.707" viewBox="0 0 16 17.707">
    <path id="Path_46" data-name="Path 46" d="M16.333,14.516a2.588,2.588,0,0,0-1.742.684L8.253,11.511a2.91,2.91,0,0,0,.08-.622,2.91,2.91,0,0,0-.08-.622L14.52,6.613a2.661,2.661,0,1,0-.853-1.947,2.91,2.91,0,0,0,.08.622L7.48,8.942a2.667,2.667,0,1,0,0,3.893l6.329,3.7a2.508,2.508,0,0,0-.071.578,2.6,2.6,0,1,0,2.6-2.6Zm0-10.738a.889.889,0,1,1-.889.889A.892.892,0,0,1,16.333,3.778Zm-10.667,8a.889.889,0,1,1,.889-.889A.892.892,0,0,1,5.667,11.778Zm10.667,6.24a.889.889,0,1,1,.889-.889A.892.892,0,0,1,16.333,18.018Z" transform="translate(-3 -2)" fill="#0067ff"/>
  </svg>
  