<svg xmlns="http://www.w3.org/2000/svg" xmlns:xlink="http://www.w3.org/1999/xlink" width="1366" height="551.412" viewBox="0 0 1366 551.412">
  <defs>
    <linearGradient id="linear-gradient" y1="0.5" x2="1" y2="0.5" gradientUnits="objectBoundingBox">
      <stop offset="0" stop-color="#fff"/>
      <stop offset="1" stop-color="#fff" stop-opacity="0.302"/>
    </linearGradient>
  </defs>
  <g id="Group_53" data-name="Group 53" transform="translate(0 -1553)">
    <g id="blob-scene-haikei" transform="translate(0 1553.025)">
      <rect id="Rectangle_195" data-name="Rectangle 195" width="1366" height="551" transform="translate(0 -0.025)" fill="#3f3d56"/>
      <g id="Group_48" data-name="Group 48" transform="translate(977.177)">
        <path id="Path_220" data-name="Path 220" d="M0,401c-17.6-1.5-35.2-3-51.8-7.4-16.7-4.4-32.4-11.5-49.9-14-17.5-2.4-36.7-.1-53.5-4.9-16.9-4.7-31.5-16.4-44.3-29.2-12.8-12.7-23.9-26.5-36.1-38.5-12.1-11.9-25.4-22-39.5-31.9-14.1-10-29.1-19.7-41.4-32.2-12.4-12.5-22.1-27.7-27.3-44.4-5.3-16.7-6.1-34.8-13.7-50.4-7.7-15.7-22.2-28.9-27.9-44.8-5.8-16-2.8-34.7-1.3-52.4,1.6-17.7,1.6-34.3,1.7-50.9H0Z" transform="translate(388.823)" fill="#424063"/>
        <path id="Path_221" data-name="Path 221" d="M0,343.7c-15.1-1.3-30.1-2.6-44.4-6.3-14.3-3.8-27.8-9.9-42.8-12s-31.4-.1-45.9-4.2c-14.4-4-26.9-14.1-37.9-25-11-11-20.5-22.8-30.9-33-10.5-10.3-21.8-18.9-33.9-27.4s-24.9-16.9-35.5-27.6a95.424,95.424,0,0,1-23.4-38.1c-4.5-14.2-5.2-29.7-11.8-43.2-6.5-13.4-18.9-24.7-23.8-38.4-5-13.7-2.4-29.7-1.1-44.9,1.3-15.1,1.3-29.4,1.4-43.6H0Z" transform="translate(388.823)" fill="#45467d"/>
        <path id="Path_222" data-name="Path 222" d="M0,286.4c-12.6-1.1-25.1-2.1-37-5.3-11.9-3.1-23.2-8.2-35.7-10-12.4-1.7-26.1-.1-38.2-3.4-12-3.4-22.4-11.8-31.6-20.9s-17.1-19-25.8-27.5a223.008,223.008,0,0,0-28.2-22.8c-10.1-7.1-20.8-14.1-29.6-23a80.281,80.281,0,0,1-19.5-31.7c-3.7-11.9-4.3-24.8-9.8-36-5.4-11.2-15.8-20.6-19.9-32s-2-24.8-.9-37.4c1.1-12.7,1.1-24.5,1.2-36.4H0Z" transform="translate(388.823)" fill="#464d98"/>
        <path id="Path_223" data-name="Path 223" d="M0,229.1c-10-.8-20.1-1.7-29.6-4.2s-18.5-6.6-28.5-8-21-.1-30.6-2.8-18-9.4-25.3-16.6c-7.3-7.3-13.7-15.2-20.6-22.1a173.071,173.071,0,0,0-22.6-18.2c-8-5.7-16.6-11.3-23.7-18.4a63.675,63.675,0,0,1-15.6-25.4c-3-9.5-3.4-19.8-7.8-28.8-4.4-8.9-12.6-16.5-15.9-25.6s-1.6-19.8-.8-29.9c.9-10.1,1-19.6,1-29.1H0Z" transform="translate(388.823)" fill="#4354b4"/>
        <path id="Path_224" data-name="Path 224" d="M0,171.9c-7.5-.7-15.1-1.3-22.2-3.2-7.2-1.9-13.9-5-21.4-6-7.5-1.1-15.7-.1-22.9-2.1-7.3-2-13.5-7-19-12.5s-10.3-11.4-15.5-16.5a124.863,124.863,0,0,0-16.9-13.7c-6-4.3-12.5-8.4-17.8-13.8a47.433,47.433,0,0,1-11.6-19c-2.3-7.2-2.7-14.9-5.9-21.6-3.3-6.7-9.5-12.4-12-19.2-2.4-6.9-1.2-14.9-.5-22.5.6-7.6.7-14.7.7-21.8H0Z" transform="translate(388.823)" fill="#395bd2"/>
        <path id="Path_225" data-name="Path 225" d="M0,114.6a103.416,103.416,0,0,1-14.8-2.1c-4.8-1.3-9.3-3.3-14.3-4s-10.4-.1-15.3-1.4c-4.8-1.4-8.9-4.7-12.6-8.4-3.7-3.6-6.8-7.6-10.3-11a90,90,0,0,0-11.3-9.1c-4-2.8-8.3-5.6-11.8-9.2a31.081,31.081,0,0,1-7.8-12.7c-1.5-4.7-1.8-9.9-4-14.4-2.1-4.5-6.3-8.2-7.9-12.8-1.7-4.6-.8-9.9-.4-15A143.437,143.437,0,0,0-110,0H0Z" transform="translate(388.823)" fill="#2363f0"/>
        <path id="Path_226" data-name="Path 226" d="M0,57.3a36.729,36.729,0,0,1-7.4-1.1c-2.4-.6-4.6-1.6-7.1-2-2.5-.3-5.3,0-7.7-.7a14.375,14.375,0,0,1-6.3-4.1c-1.8-1.9-3.4-3.8-5.2-5.5a41.54,41.54,0,0,0-5.6-4.6,37.414,37.414,0,0,1-5.9-4.6,15.491,15.491,0,0,1-3.9-6.3c-.8-2.4-.9-5-2-7.2-1.1-2.3-3.1-4.2-4-6.4-.8-2.3-.4-5-.1-7.5.2-2.6.2-4.9.2-7.3H0Z" transform="translate(388.823)" fill="#0067ff"/>
      </g>
      <g id="Group_49" data-name="Group 49" transform="translate(0 145.787)">
        <path id="Path_227" data-name="Path 227" d="M0-405.6c16.7,8.2,33.4,16.5,51,17.9,17.7,1.5,36.2-3.8,53-.6,16.9,3.1,32,14.7,46.4,25.2s28.1,19.9,43.1,27.9c15,8.1,31.3,14.8,44.5,25,13.3,10.2,23.5,24,37.8,34.4,14.3,10.5,32.6,17.7,43.9,30.5,11.3,12.7,15.7,31,24.1,46.8,8.5,15.8,21.1,29,25.8,45.4,4.6,16.4,1.3,36,2.3,53.5.9,17.4,6.1,32.8,11.8,49.1,5.7,16.2,12,33.4,18.3,50.5H0Z" transform="translate(0 405.6)" fill="#424063"/>
        <path id="Path_228" data-name="Path 228" d="M0-347.7c14.3,7.1,28.6,14.2,43.7,15.4,15.2,1.3,31.1-3.2,45.5-.5s27.4,12.6,39.7,21.6c12.4,9,24.1,17,37,23.9,12.8,6.9,26.8,12.7,38.1,21.4,11.4,8.8,20.1,20.5,32.4,29.5,12.2,9,27.9,15.2,37.6,26.1,9.8,10.9,13.4,26.6,20.7,40.2,7.2,13.5,18.1,24.8,22.1,38.9s1.2,30.8,2,45.8,5.2,28.2,10.1,42.1S339.2-14.7,344.6,0H0Z" transform="translate(0 405.6)" fill="#45467d"/>
        <path id="Path_229" data-name="Path 229" d="M0-289.7c11.9,5.9,23.9,11.7,36.5,12.8,12.5,1.1,25.8-2.7,37.8-.5,12,2.3,22.8,10.6,33.1,18.1,10.3,7.4,20.1,14.2,30.8,19.9,10.7,5.8,22.4,10.5,31.8,17.8,9.5,7.3,16.8,17.1,27,24.6s23.3,12.7,31.4,21.8,11.1,22.1,17.2,33.4c6,11.3,15,20.7,18.4,32.5,3.3,11.7,1,25.6,1.6,38.1.7,12.5,4.4,23.5,8.5,35.1s8.5,23.9,13,36.1H0Z" transform="translate(0 405.6)" fill="#464d98"/>
        <path id="Path_230" data-name="Path 230" d="M0-231.8c9.5,4.7,19.1,9.4,29.2,10.3,10,.8,20.6-2.2,30.3-.4,9.6,1.8,18.2,8.4,26.4,14.4a215.964,215.964,0,0,0,24.7,16c8.5,4.6,17.8,8.4,25.4,14.2,7.6,5.9,13.4,13.7,21.6,19.7,8.1,6,18.6,10.1,25.1,17.4s8.9,17.8,13.8,26.8c4.8,9,12,16.6,14.7,25.9,2.6,9.4.8,20.6,1.3,30.6.5,9.9,3.5,18.7,6.8,28,3.2,9.3,6.8,19.1,10.4,28.9H0Z" transform="translate(0 405.6)" fill="#4354b4"/>
        <path id="Path_231" data-name="Path 231" d="M0-173.8c7.2,3.5,14.3,7,21.9,7.7,7.5.6,15.5-1.7,22.7-.3,7.2,1.3,13.7,6.3,19.9,10.8a160.785,160.785,0,0,0,18.4,12c6.5,3.4,13.4,6.3,19.1,10.7,5.7,4.3,10.1,10.2,16.2,14.7s14,7.6,18.8,13.1c4.9,5.4,6.7,13.3,10.3,20,3.7,6.8,9.1,12.5,11.1,19.5s.6,15.4,1,22.9,2.6,14.1,5,21.1c2.5,6.9,5.2,14.3,7.9,21.6H0Z" transform="translate(0 405.6)" fill="#395bd2"/>
        <path id="Path_232" data-name="Path 232" d="M0-115.9c4.8,2.4,9.5,4.7,14.6,5.1,5,.5,10.3-1,15.1-.1s9.2,4.2,13.3,7.2a102.309,102.309,0,0,0,12.3,7.9c4.3,2.3,8.9,4.3,12.7,7.2s6.7,6.8,10.8,9.8,9.3,5.1,12.5,8.7c3.3,3.6,4.5,8.9,6.9,13.4s6.1,8.3,7.4,13,.4,10.2.7,15.2c.2,5,1.7,9.4,3.3,14.1,1.7,4.6,3.5,9.5,5.3,14.4H0Z" transform="translate(0 405.6)" fill="#2363f0"/>
        <path id="Path_233" data-name="Path 233" d="M0-57.9c2.4,1.1,4.8,2.3,7.3,2.5s5.2-.5,7.6-.1c2.4.5,4.5,2.1,6.6,3.6a45.62,45.62,0,0,0,6.1,4c2.2,1.2,4.5,2.1,6.4,3.6,1.9,1.4,3.4,3.4,5.4,4.9s4.7,2.5,6.3,4.4c1.6,1.8,2.2,4.4,3.4,6.6,1.2,2.3,3,4.2,3.7,6.5.7,2.4.2,5.2.3,7.7a27.561,27.561,0,0,0,1.7,7c.8,2.3,1.7,4.8,2.6,7.2H0Z" transform="translate(0 405.6)" fill="#0067ff"/>
      </g>
    </g>
    <g id="Group_52" data-name="Group 52">
      <g id="Group_50" data-name="Group 50" transform="translate(0 19)">
        <g id="universe" transform="translate(548 1709)">
          <circle id="Ellipse_79" data-name="Ellipse 79" cx="46.972" cy="46.972" r="46.972" transform="translate(197.53 -42.819)" fill="#e6e6e6"/>
          <circle id="Ellipse_80" data-name="Ellipse 80" cx="5.39" cy="5.39" r="5.39" transform="translate(234.491 -33.578)" fill="#cbcbcb"/>
          <circle id="Ellipse_81" data-name="Ellipse 81" cx="5.39" cy="5.39" r="5.39" transform="translate(243.732 20.324)" fill="#cbcbcb"/>
          <circle id="Ellipse_82" data-name="Ellipse 82" cx="3.85" cy="3.85" r="3.85" transform="translate(266.063 -8.167)" fill="#cbcbcb"/>
          <circle id="Ellipse_83" data-name="Ellipse 83" cx="12.321" cy="12.321" r="12.321" transform="translate(213.701 -4.317)" fill="#cbcbcb"/>
          <circle id="Ellipse_84" data-name="Ellipse 84" cx="4.279" cy="4.279" r="4.279" transform="translate(163.496 71.225)" fill="#0067ff"/>
          <circle id="Ellipse_85" data-name="Ellipse 85" cx="4.279" cy="4.279" r="4.279" transform="translate(278.17 82.35)" fill="#0067ff"/>
          <circle id="Ellipse_86" data-name="Ellipse 86" cx="2.567" cy="2.567" r="2.567" transform="translate(228.963 92.191)" fill="#e6e6e6"/>
          <circle id="Ellipse_88" data-name="Ellipse 88" cx="2.567" cy="2.567" r="2.567" transform="translate(183.179 241.953)" fill="#e6e6e6"/>
          <path id="Path_187" data-name="Path 187" d="M153.181,544.574l-1.282,1.272-1.272-1.281-.854.849,1.273,1.281-1.282,1.273.849.854,1.281-1.273,1.273,1.281.854-.849-1.273-1.281,1.282-1.273Z" transform="translate(-97.085 -331.703)" fill="#e6e6e6"/>
          <path id="Path_188" data-name="Path 188" d="M179.224,355.763l-1.282,1.272-1.272-1.281-.855.848,1.273,1.282-1.282,1.273.849.854,1.281-1.273,1.273,1.281.855-.848-1.273-1.282,1.282-1.273Z" transform="translate(-112.858 -217.344)" fill="#e6e6e6"/>
          <path id="Path_189" data-name="Path 189" d="M746.744,155.015l-1.282,1.272-1.272-1.281-.854.848,1.273,1.282-1.282,1.273.849.854,1.282-1.272,1.272,1.281.854-.848-1.273-1.282,1.282-1.273Z" transform="translate(-456.593 -95.755)" fill="#e6e6e6"/>
          <path id="Path_190" data-name="Path 190" d="M490.655,245.08l-1.281,1.273-1.273-1.282-.854.849,1.273,1.281-1.281,1.273.848.855,1.281-1.273,1.273,1.282.854-.849-1.272-1.282,1.281-1.272Z" transform="translate(-301.485 -150.306)" fill="#e6e6e6"/>
          <path id="Path_191" data-name="Path 191" d="M691.1,410.364l21.044-24.636,21.044-24.636,11.88-13.908c.657-.769-.357-1.97-1.015-1.2L723.007,370.62l-21.044,24.636-11.88,13.908c-.657.77.357,1.97,1.015,1.2Z" transform="translate(-341.277 -350.443)" opacity="0.8" fill="url(#linear-gradient)"/>
          <path id="Path_192" data-name="Path 192" d="M632.5,549.26l21.044-24.636,21.044-24.636,11.88-13.908c.657-.77-.357-1.97-1.015-1.2l-21.044,24.636-21.044,24.636-11.88,13.908c-.657.769.357,1.97,1.014,1.2Z" transform="translate(-320.081 -400.685)" opacity="0.8" fill="url(#linear-gradient)"/>
          <path id="Path_193" data-name="Path 193" d="M293.526,331.322h24.39v9.6a6.235,6.235,0,0,1-6.235,6.235h-11.92a6.235,6.235,0,0,1-6.235-6.235Z" transform="translate(-184.158 -202.546)" fill="#2f2e41"/>
          <path id="Path_194" data-name="Path 194" d="M471.793,499.832c-5.554,5.627-11.117,5.665-16.687.181l-4.279-37.836-3,37.914c-5.567,4.506-10.755,5.113-15.4.167-4.434-32.758-6.845-63.192-3-86.433l-8.13-32.947,18.4-8.558c3.705,9.165-2.138,13.853,11.076,13.7,13.1-.156,12.12-5.083,11.6-13.7l16.926,6.51a6.066,6.066,0,0,1,3.607,7.488L474.36,413.4C477.652,427.069,474.272,465.095,471.793,499.832Z" transform="translate(-329.906 -243.546)" fill="#e6e6e6"/>
          <path id="Path_195" data-name="Path 195" d="M456.7,724.693s-13.66,1.2-15.489.443h0q-.173-.071-.337-.155a4.065,4.065,0,0,1-.261-6.969l5.39-3.588-4.707-25.245,18.185.214Z" transform="translate(-340.482 -435.459)" fill="#2f2e41"/>
          <path id="Path_196" data-name="Path 196" d="M507.653,725.236s13.659,1.2,15.489.443h0q.173-.071.337-.155a4.065,4.065,0,0,0,.261-6.969l-5.39-3.588,6.633-25.245H505.942Z" transform="translate(-381.17 -435.788)" fill="#2f2e41"/>
          <path id="Path_197" data-name="Path 197" d="M409.181,450.81l2.708,10.83a6.526,6.526,0,0,1-2.839,7.1h0a6.526,6.526,0,0,1-9.98-4.812l-.585-5.413-2.139-51.441A21.639,21.639,0,0,1,409.7,387.081l4.192-1.738Z" transform="translate(-314.789 -251.432)" fill="#e6e6e6"/>
          <path id="Path_198" data-name="Path 198" d="M574.486,405.986l-.013.3-1.729,41.522-.334,8.023-.064,1.592-.586,5.413a6.526,6.526,0,1,1-12.82-2.285l2.708-10.83-.06-.8-.359-5.032-4.287-59.631L561.136,386a21.671,21.671,0,0,1,13.35,19.991Z" transform="translate(-412.06 -250.775)" fill="#e6e6e6"/>
          <path id="Path_199" data-name="Path 199" d="M461.768,549.653c-15.543,0-25.131-5.39-25.266-5.469l.428-.741c.191.11,19.42,10.9,47.671,1.547l.269.812a73.3,73.3,0,0,1-23.1,3.851Z" transform="translate(-339.111 -347.19)" fill="#2f2e41"/>
          <path id="Path_200" data-name="Path 200" d="M456.266,593.85c-3.421-7.7-3.438-41.148-3.437-42.569h.856c0,.346.016,34.689,3.363,42.22Z" transform="translate(-349.001 -351.937)" fill="#2f2e41"/>
          <path id="Path_201" data-name="Path 201" d="M451.757,652.6a12.843,12.843,0,0,1-6.391-1.393,5.855,5.855,0,0,1-2.919-3.279l.829-.212-.415.106.414-.108a5.055,5.055,0,0,0,2.549,2.77c2.311,1.285,6.962,2.244,15.993-.487l.247.819A36.123,36.123,0,0,1,451.757,652.6Z" transform="translate(-342.712 -410.347)" fill="#2f2e41"/>
          <rect id="Rectangle_170" data-name="Rectangle 170" width="0.856" height="67.099" transform="matrix(0.999, -0.049, 0.049, 0.999, 100.546, 132.899)" fill="#2f2e41"/>
          <path id="Path_202" data-name="Path 202" d="M533.945,593.85l-.782-.348c3.347-7.531,3.364-41.874,3.363-42.22h.856C537.383,552.7,537.366,586.153,533.945,593.85Z" transform="translate(-397.657 -351.938)" fill="#2f2e41"/>
          <path id="Path_203" data-name="Path 203" d="M514.8,652.6a36.1,36.1,0,0,1-10.307-1.786l.247-.819c9.032,2.731,13.682,1.773,15.993.487a5.051,5.051,0,0,0,2.548-2.77l.829.214a5.856,5.856,0,0,1-2.919,3.279A12.846,12.846,0,0,1,514.8,652.6Z" transform="translate(-380.294 -410.347)" fill="#2f2e41"/>
          <rect id="Rectangle_171" data-name="Rectangle 171" width="67.099" height="0.856" transform="translate(138.874 199.878) rotate(-87.202)" fill="#2f2e41"/>
          <path id="Path_204" data-name="Path 204" d="M317.4,367.131l-6.367,9.413H297.345l-4.578-9.413h2.011l3.423,7.7h11.553l5.563-7.7Z" transform="translate(-183.699 -224.235)" fill="#0067ff"/>
          <path id="Path_205" data-name="Path 205" d="M394.443,379.067l.111.223-.111.205Z" transform="translate(-245.281 -231.464)"/>
          <path id="Path_206" data-name="Path 206" d="M583.4,413.545l-.013.3-8.117,2.358-5.023-10.047,5.139-9.422A21.613,21.613,0,0,1,583.4,413.545Z" transform="translate(-420.118 -258.334)" fill="#0067ff"/>
          <path id="Path_207" data-name="Path 207" d="M395.01,413.545l.013.3,8.117,2.358,5.023-10.047-5.139-9.422A21.613,21.613,0,0,0,395.01,413.545Z" transform="translate(-313.981 -258.334)" fill="#0067ff"/>
          <circle id="Ellipse_89" data-name="Ellipse 89" cx="22.678" cy="22.678" r="22.678" transform="translate(98.884 90.48)" fill="#e6e6e6"/>
          <circle id="Ellipse_90" data-name="Ellipse 90" cx="16.688" cy="16.688" r="16.688" transform="translate(104.875 99.465)" fill="#2f2e41"/>
          <path id="Path_208" data-name="Path 208" d="M405.881,498.4l-.347,8.023-10.975-5.9-.285-1.019-.374-5.032Z" transform="translate(-244.953 -301.368)" fill="#0067ff"/>
          <path id="Path_209" data-name="Path 209" d="M226.324,498.4l.365,8.023,11.535-5.9.3-1.019.393-5.032Z" transform="translate(-143.455 -301.368)" fill="#0067ff"/>
          <path id="Path_210" data-name="Path 210" d="M305.2,358.275H291.012l-7.855-16.148-.4-5.808.854-.059L284,341.9l7.549,15.517h13.2l9.681-14.31,2.061-6.318.814.265-2.132,6.483Z" transform="translate(-177.633 -205.537)" fill="#2f2e41"/>
        </g>
        <circle id="Ellipse_91" data-name="Ellipse 91" cx="4.279" cy="4.279" r="4.279" transform="translate(837.496 1863.225)" fill="#0067ff"/>
        <circle id="Ellipse_92" data-name="Ellipse 92" cx="4.279" cy="4.279" r="4.279" transform="translate(952.17 1874.35)" fill="#0067ff"/>
        <circle id="Ellipse_93" data-name="Ellipse 93" cx="2.567" cy="2.567" r="2.567" transform="translate(902.963 1884.191)" fill="#e6e6e6"/>
        <circle id="Ellipse_95" data-name="Ellipse 95" cx="2.567" cy="2.567" r="2.567" transform="translate(857.179 2033.953)" fill="#e6e6e6"/>
        <path id="Path_235" data-name="Path 235" d="M583.975,438.232l-1.281,1.273-1.273-1.282-.854.849,1.272,1.282-1.281,1.272.849.854,1.282-1.273,1.273,1.282.854-.849-1.273-1.281,1.282-1.273Z" transform="translate(315.993 1524.707)" fill="#0067ff"/>
        <path id="Path_236" data-name="Path 236" d="M153.181,544.574l-1.282,1.272-1.272-1.281-.854.849,1.273,1.281-1.282,1.273.849.854,1.281-1.273,1.273,1.281.854-.849-1.273-1.281,1.282-1.273Z" transform="translate(576.915 1460.297)" fill="#e6e6e6"/>
        <path id="Path_237" data-name="Path 237" d="M179.224,355.763l-1.282,1.272-1.272-1.281-.855.848,1.273,1.282-1.282,1.273.849.854,1.281-1.273,1.273,1.281.855-.848-1.273-1.282,1.282-1.273Z" transform="translate(561.142 1574.656)" fill="#e6e6e6"/>
        <path id="Path_238" data-name="Path 238" d="M746.744,155.015l-1.282,1.272-1.272-1.281-.854.848,1.273,1.282-1.282,1.273.849.854,1.282-1.272,1.272,1.281.854-.848-1.273-1.282,1.282-1.273Z" transform="translate(217.407 1696.245)" fill="#e6e6e6"/>
        <path id="Path_239" data-name="Path 239" d="M490.655,245.08l-1.281,1.273-1.273-1.282-.854.849,1.273,1.281-1.281,1.273.848.855,1.281-1.273,1.273,1.282.854-.849-1.272-1.282,1.281-1.272Z" transform="translate(372.515 1641.694)" fill="#e6e6e6"/>
        <circle id="Ellipse_97" data-name="Ellipse 97" cx="4.279" cy="4.279" r="4.279" transform="translate(795.17 1944.35)" fill="#0067ff"/>
        <circle id="Ellipse_98" data-name="Ellipse 98" cx="2.567" cy="2.567" r="2.567" transform="translate(745.963 1954.191)" fill="#e6e6e6"/>
        <circle id="Ellipse_100" data-name="Ellipse 100" cx="2.567" cy="2.567" r="2.567" transform="translate(862.179 1920.953)" fill="#e6e6e6"/>
        <path id="Path_241" data-name="Path 241" d="M583.975,438.232l-1.281,1.273-1.273-1.282-.854.849,1.272,1.282-1.281,1.272.849.854,1.282-1.273,1.273,1.282.854-.849-1.273-1.281,1.282-1.273Z" transform="translate(320.993 1411.707)" fill="#0067ff"/>
        <path id="Path_242" data-name="Path 242" d="M153.181,544.574l-1.282,1.272-1.272-1.281-.854.849,1.273,1.281-1.282,1.273.849.854,1.281-1.273,1.273,1.281.854-.849-1.273-1.281,1.282-1.273Z" transform="translate(581.915 1347.297)" fill="#e6e6e6"/>
        <path id="Path_243" data-name="Path 243" d="M179.224,355.763l-1.282,1.272-1.272-1.281-.855.848,1.273,1.282-1.282,1.273.849.854,1.281-1.273,1.273,1.281.855-.848-1.273-1.282,1.282-1.273Z" transform="translate(566.142 1461.656)" fill="#e6e6e6"/>
        <path id="Path_244" data-name="Path 244" d="M746.744,155.015l-1.282,1.272-1.272-1.281-.854.848,1.273,1.282-1.282,1.273.849.854,1.282-1.272,1.272,1.281.854-.848-1.273-1.282,1.282-1.273Z" transform="translate(60.407 1766.245)" fill="#e6e6e6"/>
        <path id="Path_245" data-name="Path 245" d="M490.655,245.08l-1.281,1.273-1.273-1.282-.854.849,1.273,1.281-1.281,1.273.848.855,1.281-1.273,1.273,1.282.854-.849-1.272-1.282,1.281-1.272Z" transform="translate(215.515 1711.694)" fill="#e6e6e6"/>
        <circle id="Ellipse_101" data-name="Ellipse 101" cx="2.567" cy="2.567" r="2.567" transform="translate(810.278 2004.063)" fill="#e6e6e6"/>
        <path id="Path_246" data-name="Path 246" d="M153.181,544.574l-1.282,1.272-1.272-1.281-.854.849,1.273,1.281-1.282,1.273.849.854,1.281-1.273,1.273,1.281.854-.849-1.273-1.281,1.282-1.273Z" transform="translate(681.915 1499.297)" fill="#e6e6e6"/>
        <path id="Path_247" data-name="Path 247" d="M179.224,355.763l-1.282,1.272-1.272-1.281-.855.848,1.273,1.282-1.282,1.273.849.854,1.281-1.273,1.273,1.281.855-.848-1.273-1.282,1.282-1.273Z" transform="translate(666.142 1613.656)" fill="#e6e6e6"/>
        <circle id="Ellipse_102" data-name="Ellipse 102" cx="2.567" cy="2.567" r="2.567" transform="translate(850.963 1993.191)" fill="#e6e6e6"/>
        <path id="Path_248" data-name="Path 248" d="M490.655,245.08l-1.281,1.273-1.273-1.282-.854.849,1.273,1.281-1.281,1.273.848.855,1.281-1.273,1.273,1.282.854-.849-1.272-1.282,1.281-1.272Z" transform="translate(320.515 1750.694)" fill="#e6e6e6"/>
        <circle id="Ellipse_104" data-name="Ellipse 104" cx="4.279" cy="4.279" r="4.279" transform="translate(753.17 1890.35)" fill="#0067ff"/>
        <circle id="Ellipse_105" data-name="Ellipse 105" cx="2.567" cy="2.567" r="2.567" transform="translate(703.963 1900.191)" fill="#e6e6e6"/>
        <circle id="Ellipse_106" data-name="Ellipse 106" cx="2.567" cy="2.567" r="2.567" transform="translate(506.278 1981.063)" fill="#e6e6e6"/>
        <circle id="Ellipse_107" data-name="Ellipse 107" cx="2.567" cy="2.567" r="2.567" transform="translate(658.179 2049.953)" fill="#e6e6e6"/>
        <path id="Path_249" data-name="Path 249" d="M583.975,438.232l-1.281,1.273-1.273-1.282-.854.849,1.272,1.282-1.281,1.272.849.854,1.282-1.273,1.273,1.282.854-.849-1.273-1.281,1.282-1.273Z" transform="translate(116.993 1540.707)" fill="#0067ff"/>
        <path id="Path_250" data-name="Path 250" d="M153.181,544.574l-1.282,1.272-1.272-1.281-.854.849,1.273,1.281-1.282,1.273.849.854,1.281-1.273,1.273,1.281.854-.849-1.273-1.281,1.282-1.273Z" transform="translate(377.915 1476.297)" fill="#e6e6e6"/>
        <path id="Path_251" data-name="Path 251" d="M179.224,355.763l-1.282,1.272-1.272-1.281-.855.848,1.273,1.282-1.282,1.273.849.854,1.281-1.273,1.273,1.281.855-.848-1.273-1.282,1.282-1.273Z" transform="translate(362.142 1590.656)" fill="#e6e6e6"/>
        <path id="Path_252" data-name="Path 252" d="M746.744,155.015l-1.282,1.272-1.272-1.281-.854.848,1.273,1.282-1.282,1.273.849.854,1.282-1.272,1.272,1.281.854-.848-1.273-1.282,1.282-1.273Z" transform="translate(18.407 1712.245)" fill="#e6e6e6"/>
        <path id="Path_253" data-name="Path 253" d="M490.655,245.08l-1.281,1.273-1.273-1.282-.854.849,1.273,1.281-1.281,1.273.848.855,1.281-1.273,1.273,1.282.854-.849-1.272-1.282,1.281-1.272Z" transform="translate(173.515 1657.694)" fill="#e6e6e6"/>
        <circle id="Ellipse_108" data-name="Ellipse 108" cx="4.279" cy="4.279" r="4.279" transform="translate(481.496 1949.225)" fill="#0067ff"/>
        <circle id="Ellipse_109" data-name="Ellipse 109" cx="4.279" cy="4.279" r="4.279" transform="translate(596.17 1960.35)" fill="#0067ff"/>
        <circle id="Ellipse_110" data-name="Ellipse 110" cx="2.567" cy="2.567" r="2.567" transform="translate(546.963 1970.191)" fill="#e6e6e6"/>
        <circle id="Ellipse_111" data-name="Ellipse 111" cx="2.567" cy="2.567" r="2.567" transform="translate(511.278 1868.063)" fill="#e6e6e6"/>
        <circle id="Ellipse_112" data-name="Ellipse 112" cx="2.567" cy="2.567" r="2.567" transform="translate(663.179 1936.953)" fill="#e6e6e6"/>
        <path id="Path_255" data-name="Path 255" d="M153.181,544.574l-1.282,1.272-1.272-1.281-.854.849,1.273,1.281-1.282,1.273.849.854,1.281-1.273,1.273,1.281.854-.849-1.273-1.281,1.282-1.273Z" transform="translate(382.915 1363.297)" fill="#e6e6e6"/>
        <path id="Path_256" data-name="Path 256" d="M179.224,355.763l-1.282,1.272-1.272-1.281-.855.848,1.273,1.282-1.282,1.273.849.854,1.281-1.273,1.273,1.281.855-.848-1.273-1.282,1.282-1.273Z" transform="translate(367.142 1477.656)" fill="#e6e6e6"/>
        <path id="Path_257" data-name="Path 257" d="M746.744,155.015l-1.282,1.272-1.272-1.281-.854.848,1.273,1.282-1.282,1.273.849.854,1.282-1.272,1.272,1.281.854-.848-1.273-1.282,1.282-1.273Z" transform="translate(-138.593 1782.245)" fill="#e6e6e6"/>
        <circle id="Ellipse_113" data-name="Ellipse 113" cx="2.567" cy="2.567" r="2.567" transform="translate(611.278 2020.063)" fill="#e6e6e6"/>
        <path id="Path_259" data-name="Path 259" d="M153.181,544.574l-1.282,1.272-1.272-1.281-.854.849,1.273,1.281-1.282,1.273.849.854,1.281-1.273,1.273,1.281.854-.849-1.273-1.281,1.282-1.273Z" transform="translate(482.915 1515.297)" fill="#e6e6e6"/>
        <path id="Path_260" data-name="Path 260" d="M179.224,355.763l-1.282,1.272-1.272-1.281-.855.848,1.273,1.282-1.282,1.273.849.854,1.281-1.273,1.273,1.281.855-.848-1.273-1.282,1.282-1.273Z" transform="translate(467.142 1629.656)" fill="#e6e6e6"/>
        <circle id="Ellipse_114" data-name="Ellipse 114" cx="2.567" cy="2.567" r="2.567" transform="translate(651.963 2009.191)" fill="#e6e6e6"/>
        <circle id="Ellipse_115" data-name="Ellipse 115" cx="4.279" cy="4.279" r="4.279" transform="translate(567.341 1755.659) rotate(60)" fill="#0067ff"/>
        <circle id="Ellipse_116" data-name="Ellipse 116" cx="4.279" cy="4.279" r="4.279" transform="translate(682.015 1766.784) rotate(60)" fill="#0067ff"/>
        <circle id="Ellipse_117" data-name="Ellipse 117" cx="2.567" cy="2.567" r="2.567" transform="translate(630.47 1777.252) rotate(60)" fill="#e6e6e6"/>
        <circle id="Ellipse_118" data-name="Ellipse 118" cx="2.567" cy="2.567" r="2.567" transform="translate(432.785 1858.123) rotate(60)" fill="#e6e6e6"/>
        <circle id="Ellipse_119" data-name="Ellipse 119" cx="2.567" cy="2.567" r="2.567" transform="translate(584.686 1927.013) rotate(60)" fill="#e6e6e6"/>
        <path id="Path_262" data-name="Path 262" d="M583.975,438.232l-1.281,1.273-1.273-1.282-.854.849,1.272,1.282-1.281,1.272.849.854,1.282-1.273,1.273,1.282.854-.849-1.273-1.281,1.282-1.273Z" transform="translate(712.698 1134.259) rotate(60)" fill="#0067ff"/>
        <path id="Path_263" data-name="Path 263" d="M153.181,544.574l-1.282,1.272-1.272-1.281-.854.849,1.273,1.281-1.282,1.273.849.854,1.281-1.273,1.273,1.281.854-.849-1.273-1.281,1.282-1.273Z" transform="translate(850.318 1496.1) rotate(60)" fill="#e6e6e6"/>
        <path id="Path_264" data-name="Path 264" d="M179.224,355.763l-1.282,1.272-1.272-1.281-.855.848,1.273,1.282-1.282,1.273.849.854,1.281-1.273,1.273,1.281.855-.848-1.273-1.282,1.282-1.273Z" transform="translate(684.051 1493.499) rotate(60)" fill="#e6e6e6"/>
        <path id="Path_265" data-name="Path 265" d="M746.744,155.015l-1.282,1.272-1.272-1.281-.854.848,1.273,1.282-1.282,1.273.849.854,1.282-1.272,1.272,1.281.854-.848-1.273-1.282,1.282-1.273Z" transform="translate(450.223 1023.227) rotate(60)" fill="#e6e6e6"/>
        <path id="Path_266" data-name="Path 266" d="M490.655,245.08l-1.281,1.273-1.273-1.282-.854.849,1.273,1.281-1.281,1.273.848.855,1.281-1.273,1.273,1.282.854-.849-1.272-1.282,1.281-1.272Z" transform="translate(555.285 1235.489) rotate(60)" fill="#e6e6e6"/>
        <circle id="Ellipse_120" data-name="Ellipse 120" cx="4.279" cy="4.279" r="4.279" transform="translate(410.341 1825.659) rotate(60)" fill="#0067ff"/>
        <circle id="Ellipse_121" data-name="Ellipse 121" cx="4.279" cy="4.279" r="4.279" transform="translate(525.015 1836.784) rotate(60)" fill="#0067ff"/>
        <circle id="Ellipse_122" data-name="Ellipse 122" cx="2.567" cy="2.567" r="2.567" transform="translate(473.47 1847.252) rotate(60)" fill="#e6e6e6"/>
        <circle id="Ellipse_123" data-name="Ellipse 123" cx="2.567" cy="2.567" r="2.567" transform="translate(437.785 1745.123) rotate(60)" fill="#e6e6e6"/>
        <circle id="Ellipse_124" data-name="Ellipse 124" cx="2.567" cy="2.567" r="2.567" transform="translate(589.686 1814.013) rotate(60)" fill="#e6e6e6"/>
        <path id="Path_267" data-name="Path 267" d="M583.975,438.232l-1.281,1.273-1.273-1.282-.854.849,1.272,1.282-1.281,1.272.849.854,1.282-1.273,1.273,1.282.854-.849-1.273-1.281,1.282-1.273Z" transform="translate(717.698 1021.259) rotate(60)" fill="#0067ff"/>
        <path id="Path_268" data-name="Path 268" d="M153.181,544.574l-1.282,1.272-1.272-1.281-.854.849,1.273,1.281-1.282,1.273.849.854,1.281-1.273,1.273,1.281.854-.849-1.273-1.281,1.282-1.273Z" transform="translate(855.318 1383.1) rotate(60)" fill="#e6e6e6"/>
        <path id="Path_269" data-name="Path 269" d="M179.224,355.763l-1.282,1.272-1.272-1.281-.855.848,1.273,1.282-1.282,1.273.849.854,1.281-1.273,1.273,1.281.855-.848-1.273-1.282,1.282-1.273Z" transform="translate(689.051 1380.499) rotate(60)" fill="#e6e6e6"/>
        <path id="Path_270" data-name="Path 270" d="M746.744,155.015l-1.282,1.272-1.272-1.281-.854.848,1.273,1.282-1.282,1.273.849.854,1.282-1.272,1.272,1.281.854-.848-1.273-1.282,1.282-1.273Z" transform="translate(293.223 1093.227) rotate(60)" fill="#e6e6e6"/>
        <path id="Path_271" data-name="Path 271" d="M490.655,245.08l-1.281,1.273-1.273-1.282-.854.849,1.273,1.281-1.281,1.273.848.855,1.281-1.273,1.273,1.282.854-.849-1.272-1.282,1.281-1.272Z" transform="translate(398.285 1305.489) rotate(60)" fill="#e6e6e6"/>
        <path id="Path_273" data-name="Path 273" d="M179.224,355.763l-1.282,1.272-1.272-1.281-.855.848,1.273,1.282-1.282,1.273.849.854,1.281-1.273,1.273,1.281.855-.848-1.273-1.282,1.282-1.273Z" transform="translate(789.05 1532.499) rotate(60)" fill="#e6e6e6"/>
      </g>
    </g>
  </g>
</svg>
