<svg xmlns="http://www.w3.org/2000/svg" xmlns:xlink="http://www.w3.org/1999/xlink" width="279.5" height="267.939" viewBox="0 0 279.5 267.939">
    <defs>
      <linearGradient id="linear-gradient" y1="0.5" x2="1" y2="0.5" gradientUnits="objectBoundingBox">
        <stop offset="0" stop-color="#fff"/>
        <stop offset="1" stop-color="#fff" stop-opacity="0.302"/>
      </linearGradient>
    </defs>
    <g id="universe" transform="translate(0 0)">
      <path id="Path_185" data-name="Path 185" d="M405.1,193.066c-35.283,53.389-51.878,115.872-115.872,115.872A115.872,115.872,0,0,1,173.351,193.066c0-63.994,57.825-88.932,115.872-115.872C477.766-10.309,484.042,73.606,405.1,193.066Z" transform="translate(-173.351 -41)" fill="#3f3d56"/>
      <circle id="Ellipse_79" data-name="Ellipse 79" cx="21.682" cy="21.682" r="21.682" transform="translate(197.622 9.181)" fill="#e6e6e6"/>
      <circle id="Ellipse_80" data-name="Ellipse 80" cx="2.488" cy="2.488" r="2.488" transform="translate(214.683 13.446)" fill="#cbcbcb"/>
      <circle id="Ellipse_81" data-name="Ellipse 81" cx="2.488" cy="2.488" r="2.488" transform="translate(218.949 38.327)" fill="#cbcbcb"/>
      <circle id="Ellipse_82" data-name="Ellipse 82" cx="1.777" cy="1.777" r="1.777" transform="translate(229.256 25.176)" fill="#cbcbcb"/>
      <circle id="Ellipse_83" data-name="Ellipse 83" cx="5.687" cy="5.687" r="5.687" transform="translate(205.087 26.953)" fill="#cbcbcb"/>
      <circle id="Ellipse_84" data-name="Ellipse 84" cx="3.554" cy="3.554" r="3.554" transform="translate(141.108 60.72)" fill="#0067ff"/>
      <circle id="Ellipse_85" data-name="Ellipse 85" cx="3.554" cy="3.554" r="3.554" transform="translate(236.365 69.961)" fill="#0067ff"/>
      <circle id="Ellipse_86" data-name="Ellipse 86" cx="2.133" cy="2.133" r="2.133" transform="translate(195.49 78.136)" fill="#e6e6e6"/>
      <circle id="Ellipse_87" data-name="Ellipse 87" cx="2.133" cy="2.133" r="2.133" transform="translate(31.278 145.313)" fill="#e6e6e6"/>
      <circle id="Ellipse_88" data-name="Ellipse 88" cx="2.133" cy="2.133" r="2.133" transform="translate(157.458 202.539)" fill="#e6e6e6"/>
      <path id="Path_186" data-name="Path 186" d="M583.4,438.23l-1.064,1.057-1.057-1.065-.71.7,1.057,1.065-1.065,1.057.7.71,1.065-1.057,1.057,1.065.709-.7L583.037,440l1.065-1.057Z" transform="translate(-390.394 -294.681)" fill="#0067ff"/>
      <path id="Path_187" data-name="Path 187" d="M152.6,544.573l-1.065,1.057-1.057-1.065-.71.7,1.057,1.065-1.065,1.057.7.71,1.064-1.057,1.057,1.065.71-.7-1.057-1.064,1.065-1.057Z" transform="translate(-100.708 -366.191)" fill="#e6e6e6"/>
      <path id="Path_188" data-name="Path 188" d="M178.646,355.761l-1.065,1.057-1.057-1.064-.71.7,1.057,1.065-1.065,1.057.7.71,1.064-1.057,1.057,1.064.71-.7-1.057-1.065,1.065-1.057Z" transform="translate(-118.221 -239.225)" fill="#e6e6e6"/>
      <path id="Path_189" data-name="Path 189" d="M746.166,155.013,745.1,156.07l-1.057-1.064-.71.7,1.057,1.065-1.065,1.057.7.709,1.065-1.057,1.057,1.064.71-.7-1.057-1.065,1.065-1.057Z" transform="translate(-499.848 -104.233)" fill="#e6e6e6"/>
      <path id="Path_190" data-name="Path 190" d="M490.077,245.078l-1.065,1.057-1.057-1.065-.709.7,1.057,1.064-1.064,1.057.7.71,1.065-1.057,1.057,1.065.709-.7-1.057-1.065,1.064-1.057Z" transform="translate(-327.642 -164.797)" fill="#e6e6e6"/>
      <path id="Path_191" data-name="Path 191" d="M690.5,378.9l10.8-12.643,10.8-12.643,6.1-7.137c.337-.395-.183-1.011-.521-.616l-10.8,12.643-10.8,12.643-6.1,7.137c-.337.395.183,1.011.521.616Z" transform="translate(-520.683 -245.918)" opacity="0.8" fill="url(#linear-gradient)"/>
      <path id="Path_192" data-name="Path 192" d="M631.9,517.8l10.8-12.643,10.8-12.643,6.1-7.137c.337-.395-.183-1.011-.521-.616l-10.8,12.643-10.8,12.643-6.1,7.137c-.337.395.183,1.011.521.616Z" transform="translate(-481.28 -339.319)" opacity="0.8" fill="url(#linear-gradient)"/>
      <path id="Path_193" data-name="Path 193" d="M293.526,331.322h20.26v7.972a5.179,5.179,0,0,1-5.179,5.179h-9.9a5.179,5.179,0,0,1-5.179-5.179Z" transform="translate(-197.381 -222.796)" fill="#2f2e41"/>
      <path id="Path_194" data-name="Path 194" d="M463.244,478.242c-4.614,4.674-9.234,4.706-13.862.151l-3.554-31.429-2.488,31.495c-4.625,3.743-8.934,4.247-12.8.139-3.684-27.212-5.686-52.492-2.488-71.8L421.3,379.43l15.284-7.109c3.078,7.613-1.776,11.507,9.2,11.377,10.88-.129,10.068-4.222,9.638-11.377l14.06,5.408a5.039,5.039,0,0,1,3,6.22l-7.1,22.494C468.111,417.8,465.3,449.386,463.244,478.242Z" transform="translate(-340.085 -263.796)" fill="#e6e6e6"/>
      <path id="Path_195" data-name="Path 195" d="M453.659,718.679s-11.347.994-12.867.368h0q-.144-.059-.28-.129a3.376,3.376,0,0,1-.216-5.789l4.477-2.981-3.91-20.971,15.106.178Z" transform="translate(-351.827 -476.865)" fill="#2f2e41"/>
      <path id="Path_196" data-name="Path 196" d="M507.364,719.222s11.347.994,12.867.368h0q.144-.059.28-.129a3.376,3.376,0,0,0,.216-5.789l-4.477-2.981,5.509-20.971H505.942Z" transform="translate(-397.001 -477.23)" fill="#2f2e41"/>
      <path id="Path_197" data-name="Path 197" d="M407.007,439.725l2.249,9a5.421,5.421,0,0,1-2.359,5.895h0a5.421,5.421,0,0,1-8.29-4l-.486-4.5-1.777-42.731a17.975,17.975,0,0,1,11.091-16.6l3.482-1.444Z" transform="translate(-323.302 -272.552)" fill="#e6e6e6"/>
      <path id="Path_198" data-name="Path 198" d="M571.516,402.307l-.011.252-1.436,34.491-.277,6.664-.053,1.322-.487,4.5a5.421,5.421,0,1,1-10.649-1.9l2.25-9-.05-.668-.3-4.18-3.561-49.534,3.483,1.443a18,18,0,0,1,11.09,16.606Z" transform="translate(-431.296 -271.823)" fill="#e6e6e6"/>
      <path id="Path_199" data-name="Path 199" d="M457.489,548.6c-12.911,0-20.876-4.478-20.988-4.543l.355-.616c.159.092,16.132,9.052,39.6,1.285l.224.675a60.891,60.891,0,0,1-19.19,3.2Z" transform="translate(-350.306 -378.866)" fill="#2f2e41"/>
      <path id="Path_200" data-name="Path 200" d="M455.684,586.642c-2.841-6.393-2.856-34.181-2.855-35.361h.711c0,.287.013,28.815,2.794,35.071Z" transform="translate(-361.285 -384.137)" fill="#2f2e41"/>
      <path id="Path_201" data-name="Path 201" d="M450.18,651.777a10.669,10.669,0,0,1-5.309-1.157,4.863,4.863,0,0,1-2.425-2.724l.689-.176-.344.088.344-.09a4.2,4.2,0,0,0,2.117,2.3c1.919,1.067,5.783,1.864,13.285-.4l.205.68A30.006,30.006,0,0,1,450.18,651.777Z" transform="translate(-354.304 -448.985)" fill="#2f2e41"/>
      <rect id="Rectangle_170" data-name="Rectangle 170" width="0.711" height="55.738" transform="matrix(0.999, -0.049, 0.049, 0.999, 88.818, 111.95)" fill="#2f2e41"/>
      <path id="Path_202" data-name="Path 202" d="M533.813,586.642l-.65-.289c2.781-6.256,2.794-34.784,2.794-35.071h.711C536.669,552.461,536.654,580.249,533.813,586.642Z" transform="translate(-415.306 -384.137)" fill="#2f2e41"/>
      <path id="Path_203" data-name="Path 203" d="M513.058,651.777a29.99,29.99,0,0,1-8.562-1.483l.205-.68c7.5,2.268,11.365,1.472,13.285.4a4.2,4.2,0,0,0,2.117-2.3l.688.178a4.865,4.865,0,0,1-2.425,2.724A10.671,10.671,0,0,1,513.058,651.777Z" transform="translate(-396.028 -448.985)" fill="#2f2e41"/>
      <rect id="Rectangle_171" data-name="Rectangle 171" width="55.738" height="0.711" transform="translate(120.655 167.588) rotate(-87.202)" fill="#2f2e41"/>
      <path id="Path_204" data-name="Path 204" d="M313.233,367.131l-5.289,7.819H296.57l-3.8-7.819h1.671l2.844,6.4h9.6l4.621-6.4Z" transform="translate(-196.87 -246.876)" fill="#0067ff"/>
      <path id="Path_205" data-name="Path 205" d="M394.443,379.067l.092.185-.092.171Z" transform="translate(-265.242 -254.902)"/>
      <path id="Path_206" data-name="Path 206" d="M581.172,410.7l-.011.252-6.743,1.958-4.173-8.346,4.269-7.827A17.953,17.953,0,0,1,581.172,410.7Z" transform="translate(-440.242 -280.214)" fill="#0067ff"/>
      <path id="Path_207" data-name="Path 207" d="M395.01,410.7l.011.252,6.743,1.958,4.173-8.346-4.269-7.827A17.953,17.953,0,0,0,395.01,410.7Z" transform="translate(-322.405 -280.214)" fill="#0067ff"/>
      <circle id="Ellipse_89" data-name="Ellipse 89" cx="18.838" cy="18.838" r="18.838" transform="translate(87.437 76.714)" fill="#e6e6e6"/>
      <circle id="Ellipse_90" data-name="Ellipse 90" cx="13.862" cy="13.862" r="13.862" transform="translate(92.413 84.178)" fill="#2f2e41"/>
      <path id="Path_208" data-name="Path 208" d="M403.852,497.74l-.289,6.664-9.116-4.9-.236-.846-.311-4.18Z" transform="translate(-264.877 -332.512)" fill="#0067ff"/>
      <path id="Path_209" data-name="Path 209" d="M226.324,497.74l.3,6.664,9.582-4.9.249-.846.327-4.18Z" transform="translate(-152.191 -332.512)" fill="#0067ff"/>
      <path id="Path_210" data-name="Path 210" d="M301.4,354.547H289.614l-6.525-13.413-.335-4.825.709-.049.326,4.687,6.271,12.889h10.963l8.041-11.887,1.712-5.248.676.22-1.771,5.385Z" transform="translate(-190.136 -226.117)" fill="#2f2e41"/>
    </g>
  </svg>
  