<svg xmlns="http://www.w3.org/2000/svg" width="293.921" height="269.098" viewBox="0 0 293.921 269.098">
  <g id="Group_45" data-name="Group 45" transform="translate(-377 -120)">
    <g id="contactMe" transform="translate(377 120)">
      <path id="Path_78" data-name="Path 78" d="M717.357,653.744l2.824,6.333a4.063,4.063,0,0,0-4.479,4.113,5.7,5.7,0,0,0,4.3,5.5c-.439,1.955-2.332,2.817-3.976,3.607s-3.415,2.1-3.293,4.184a4.668,4.668,0,0,0,2.95,3.743,9.948,9.948,0,0,0,4.5.4c-2.254,2.358-2.474,6.79-.494,9.97s5.933,4.745,8.893,3.521c-2.092,2.6-1.637,7.367.959,10.052,2.617,2.707,6.409,2.969,9.725,2.684a43.07,43.07,0,0,0,23.127-9.165,21.28,21.28,0,0,0,6.348-7.472,13.674,13.674,0,0,0,.525-10.517c.363,4.4,4.772,7.883,8.737,8.078s7.428-2.039,10.371-4.586c3.913-3.388,7.536-8.136,7-13.995-.266-2.9-1.533-5.69-2.775-8.392l-2.409-5.238a27.14,27.14,0,0,0-3.431-6.04c-1.464-1.775-3.5-3.148-5.528-3.135a17.021,17.021,0,0,0,.542-6.583c-.389-2.256-1.881-4.593-3.91-5.121-2.582-.673-4.77,1.71-7.366,1.485-2.5-.216-4.563-2.724-6.989-3.717a5.6,5.6,0,0,0-6.038,1.044,6.956,6.956,0,0,0-1.627,6.438c.483,2.1,1.77,3.957,2.551,5.985s.9,4.635-.6,5.743c-1.81,1.336-4.565-.482-5.979-2.682s-2.226-4.864-4.014-6.714c-2.11-2.184-5.414-2.7-7.586-1.175s-3,4.924-1.908,7.818c.9,2.366,2.947,4.76,2.236,6.988-.752,2.355-4.043,2.057-6.028.392s-3.3-4.171-5.264-5.872a8.155,8.155,0,0,0-6.875-2,7.077,7.077,0,0,0-5.072,4.532" transform="translate(-529.049 -438.842)" fill="#e6e6e6"/>
      <path id="Path_79" data-name="Path 79" d="M843.154,621.258l-5.86,2.723a4.5,4.5,0,0,1-2.845.383,1.939,1.939,0,0,1-1.577-1.428l-1.364-6.369c-.257-1.2.738-2.623,2.366-3.379l3.236-1.5c1.628-.757,3.356-.6,4.109.371l3.988,5.149a1.939,1.939,0,0,1,.074,2.126A4.5,4.5,0,0,1,843.154,621.258Z" transform="translate(-609.118 -424.153)" fill="#3f3d56"/>
      <path id="Path_80" data-name="Path 80" d="M294.6,116.291a115.3,115.3,0,0,1,25.243-40.406c9.447-9.807,24.151-9.4,24.151-9.4l.084-.1a28.525,28.525,0,0,1,30.145-9.417,6.355,6.355,0,0,0,2.993.4c9.35-3.272,8.911-10.658,16.978-16.608,14.125-10.418,60.975,1.516,67.581,20.687,5.354,15.538,29.255,23.069,38.184,34.953q2.094,2.788,4.11,5.64.945,1.325,1.869,2.67a237.9,237.9,0,0,1,16.984,28.712,167.457,167.457,0,0,1,8.5,20.091c9.312,27.223,6.128,47.505-19.549,42.494q-4.559-.892-8.9-1.6-6.285-1.026-12.131-1.686-7.873-.9-14.98-1.173-2.39-.1-4.692-.129c-22.692-.315-39.524,3.956-52.347,10.586q-3.261,1.682-6.18,3.558a76.88,76.88,0,0,0-8.494,6.292,83.016,83.016,0,0,0-10.234,10.487l-.17.208c-15,18.346-19.934,38.655-30.367,42.231-44.6,15.289-72.8-40.133-75.7-94.347q-.219-4.1-.242-8.172-.014-1.821.018-3.633c.046-3.151.185-6.281.417-9.374q.13-1.774.3-3.528c.126-1.262.264-2.516.423-3.762A116.652,116.652,0,0,1,294.6,116.291Z" transform="translate(-242.279 -36.897)" fill="#3f3d56"/>
      <path id="Path_81" data-name="Path 81" d="M727.324,371.532c-3.562,1.658-3.62,9.086-2.5,11.492l2.024,4.356,12.9-5.994-2.024-4.356C736.6,374.624,730.888,369.879,727.324,371.532Z" transform="translate(-536.774 -262.31)" fill="#7289da"/>
      <path id="Path_82" data-name="Path 82" d="M624.471,494.33a1.411,1.411,0,0,1-.6-2.69L690.5,460.685a1.41,1.41,0,1,1,1.189,2.558h0L625.065,494.2A1.4,1.4,0,0,1,624.471,494.33Z" transform="translate(-468.589 -322.567)" fill="#3f3d56"/>
      <rect id="Rectangle_138" data-name="Rectangle 138" width="20.999" height="70.899" transform="translate(188.955 130.702) rotate(-24.92)" fill="#e6e6e6"/>
      <path id="Path_83" data-name="Path 83" d="M561.4,161.806c-3.562,1.658-3.62,9.085-2.5,11.492l2.024,4.356,12.9-5.994-2.024-4.356C570.674,164.9,564.959,160.153,561.4,161.806Z" transform="translate(-424.888 -120.892)" fill="#7289da"/>
      <path id="Path_84" data-name="Path 84" d="M788.727,643.953l-5.86,2.723a4.5,4.5,0,0,1-2.845.384,1.939,1.939,0,0,1-1.577-1.428l-1.364-6.369c-.257-1.2.738-2.623,2.366-3.379l3.236-1.5c1.628-.756,3.356-.6,4.109.371l3.988,5.149a1.939,1.939,0,0,1,.074,2.126A4.5,4.5,0,0,1,788.727,643.953Z" transform="translate(-572.418 -439.456)" fill="#3f3d56"/>
      <path id="Path_85" data-name="Path 85" d="M733.408,671.4l-5.86,2.723a4.5,4.5,0,0,1-2.845.384,1.939,1.939,0,0,1-1.577-1.428l-1.364-6.369c-.258-1.2.737-2.623,2.366-3.379l3.236-1.5c1.628-.757,3.356-.6,4.108.371l3.988,5.15a1.939,1.939,0,0,1,.074,2.126A4.5,4.5,0,0,1,733.408,671.4Z" transform="translate(-535.117 -457.962)" fill="#3f3d56"/>
      <rect id="Rectangle_139" data-name="Rectangle 139" width="20.999" height="143.314" transform="translate(139.992 73.331) rotate(-24.92)" fill="#e6e6e6"/>
      <path id="Path_86" data-name="Path 86" d="M544.527,392.782l-2.137-4.7,1.23-.567,2.13,4.687L576.6,460.6l-1.229.571" transform="translate(-365.732 -261.298)" fill="#3f3d56"/>
      <path id="Path_87" data-name="Path 87" d="M618.527,380.782l-2.137-4.7,1.23-.567,2.13,4.687L650.6,448.6l-1.229.571" transform="translate(-415.63 -253.207)" fill="#3f3d56"/>
      <path id="Path_88" data-name="Path 88" d="M598.169,226.373l-25.8,11.989c-1.643-2.556-6.6-15.653-5.483-19.539l-.835-3.706,17.817-8.278,2.385,2.934C589.789,210.858,596.681,223.16,598.169,226.373Z" transform="translate(-430.146 -151.488)" fill="#e6e6e6"/>
      <path id="Path_89" data-name="Path 89" d="M579.538,188.462,561.152,197c-.679.315-1.4.2-1.614-.259a.636.636,0,0,1-.056-.209l-.952-10.151a1.357,1.357,0,0,1,.9-1.191l12.193-5.665a1.357,1.357,0,0,1,1.49.081l7.145,7.274c.366.372.167,1.009-.443,1.422A1.977,1.977,0,0,1,579.538,188.462Z" transform="translate(-425.074 -132.953)" fill="#e6e6e6"/>
      <path id="Path_90" data-name="Path 90" d="M639.872,376.926a2.485,2.485,0,0,1-.591-.07,1.826,1.826,0,0,1-1.269-.985l-11.241-24.194a2.274,2.274,0,0,1,1.392-2.855l16.46-7.648a2.273,2.273,0,0,1,3.08.778l11.241,24.194a1.825,1.825,0,0,1-.065,1.605,2.77,2.77,0,0,1-1.327,1.25l-16.459,7.647A2.905,2.905,0,0,1,639.872,376.926Z" transform="translate(-470.988 -241.884)" fill="#7289da"/>
      <rect id="Rectangle_140" data-name="Rectangle 140" width="20.999" height="70.899" transform="translate(152.093 147.552) rotate(-24.92)" fill="#e6e6e6"/>
      <path id="Path_91" data-name="Path 91" d="M583.122,198.82l-5.585,2.595c-1.078.5-2.532-.334-3.241-1.86s-.409-3.175.669-3.676l5.585-2.595c1.078-.5,2.532.334,3.241,1.86S584.2,198.319,583.122,198.82Z" transform="translate(-435.449 -142.25)" fill="#3f3d56"/>
      <path id="Path_92" data-name="Path 92" d="M615.289,422.736c-3.562,1.658-3.62,9.086-2.5,11.492l2.024,4.356,12.9-5.994-2.024-4.356C624.568,425.828,618.854,421.083,615.289,422.736Z" transform="translate(-461.229 -296.836)" fill="#7289da"/>
      <path id="Path_93" data-name="Path 93" d="M436.438,373.455a1.165,1.165,0,0,1-1.263-1.958A1.165,1.165,0,0,1,436.438,373.455Z" transform="translate(-341.541 -262.381)" fill="#e6e6e6"/>
      <path id="Path_94" data-name="Path 94" d="M838.438,285.455a1.165,1.165,0,0,1-1.263-1.958A1.165,1.165,0,0,1,838.438,285.455Z" transform="translate(-612.608 -203.043)" fill="#e6e6e6"/>
      <path id="Path_95" data-name="Path 95" d="M564.438,355.455a1.165,1.165,0,0,1-1.263-1.958A1.165,1.165,0,0,1,564.438,355.455Z" transform="translate(-427.851 -250.244)" fill="#e6e6e6"/>
      <path id="Path_96" data-name="Path 96" d="M436.438,595.455a1.165,1.165,0,0,1-1.263-1.958A1.165,1.165,0,0,1,436.438,595.455Z" transform="translate(-341.541 -412.075)" fill="#e6e6e6"/>
      <path id="Path_97" data-name="Path 97" d="M633.438,94.455a1.165,1.165,0,0,1-1.263-1.958A1.165,1.165,0,0,1,633.438,94.455Z" transform="translate(-474.377 -74.252)" fill="#e6e6e6"/>
      <path id="Path_98" data-name="Path 98" d="M443.438,212.455a1.165,1.165,0,0,1-1.263-1.958A1.165,1.165,0,0,1,443.438,212.455Z" transform="translate(-346.261 -153.819)" fill="#e6e6e6"/>
      <path id="Path_99" data-name="Path 99" d="M566.978,143.937l-.8-.176.175-.8-.534-.117-.175.8-.8-.175-.117.534.8.176-.175.8.534.117.176-.8.8.176Z" transform="translate(-380.794 -96.319)" fill="#e6e6e6"/>
      <path id="Path_100" data-name="Path 100" d="M166.881,348.716l-.8-.176.175-.8-.534-.117-.176.8-.8-.175-.117.534.8.176-.175.8.534.117.176-.8.8.175Z" transform="translate(-111.009 -234.401)" fill="#e6e6e6"/>
      <path id="Path_101" data-name="Path 101" d="M809.253,466.726a2.772,2.772,0,0,1-3.677-1.344l-3.294-7.089a2.768,2.768,0,1,1,5.021-2.333l3.294,7.089A2.772,2.772,0,0,1,809.253,466.726Z" transform="translate(-589.264 -318.389)" fill="#3f3d56"/>
      <path id="Path_102" data-name="Path 102" d="M637.253,546.726a2.772,2.772,0,0,1-3.677-1.344l-3.294-7.089a2.768,2.768,0,1,1,5.021-2.333l3.294,7.089A2.772,2.772,0,0,1,637.253,546.726Z" transform="translate(-473.285 -372.333)" fill="#3f3d56"/>
      <path id="Path_103" data-name="Path 103" d="M752.92,410.3l-22.085,10.261c-1.406-2.187-5.645-13.4-4.693-16.723l.467-3.721,13.186-6.469,2.922,2.444C746.835,394.7,752.886,404.906,752.92,410.3Z" transform="translate(-538.004 -277.455)" fill="#e6e6e6"/>
      <path id="Path_104" data-name="Path 104" d="M756.719,427.211l-5.585,2.595c-1.078.5-2.717-.734-3.655-2.751s-.823-4.067.254-4.568l5.585-2.595c1.078-.5,2.718.734,3.655,2.751S757.8,426.71,756.719,427.211Z" transform="translate(-552.057 -295.074)" fill="#3f3d56"/>
      <path id="Path_105" data-name="Path 105" d="M478.527,435.782l-2.137-4.7,1.23-.567,2.13,4.687L510.6,503.6l-1.229.571" transform="translate(-321.228 -290.293)" fill="#3f3d56"/>
      <path id="Path_106" data-name="Path 106" d="M638.642,461.507l-22.085,10.261c-3.258-1.682-8.237-12.69-4.693-16.723l.467-3.721,13.186-6.469,2.922,2.444C631.47,448.229,637.369,458.758,638.642,461.507Z" transform="translate(-460.217 -311.981)" fill="#e6e6e6"/>
      <path id="Path_107" data-name="Path 107" d="M644.055,477.4,638.471,480c-1.078.5-2.616-.514-3.428-2.262s-.6-3.578.482-4.078l5.585-2.595c1.078-.5,2.616.514,3.428,2.262S645.133,476.9,644.055,477.4Z" transform="translate(-476.337 -329.566)" fill="#3f3d56"/>
      <circle id="Ellipse_5" data-name="Ellipse 5" cx="33.547" cy="33.547" r="33.547" transform="translate(22.243 33.171)" fill="#ff6584"/>
      <path id="Path_108" data-name="Path 108" d="M737.755,225.753l20.387-59.541L735.756,225.04a1.121,1.121,0,1,0,2,.713Z" transform="translate(-544.416 -124.094)" fill="#f0f0f0" opacity="0.3"/>
      <path id="Path_109" data-name="Path 109" d="M394.1,177.034q-5.986,1.99-13.273,3.909c-25.126,6.615-58.806,11.776-94.834,14.53s-70.1,2.775-95.94.057c-12.587-1.324-22.544-3.229-29.591-5.661-7.462-2.575-11.382-5.678-11.654-9.222-.528-6.9,13.1-12.982,24.621-16.864l.312.926c-15.824,5.331-24.332,10.965-23.958,15.864.477,6.239,15.192,11.336,40.372,13.986,25.783,2.712,59.793,2.691,95.763-.059s69.588-7.9,94.659-14.5c24.484-6.446,38.254-13.722,37.777-19.961-.4-5.18-10.607-9.612-28.752-12.478l.153-.965c13.184,2.083,29.018,6.093,29.574,13.369.271,3.544-3.133,7.207-10.116,10.886A102.072,102.072,0,0,1,394.1,177.034Z" transform="translate(-148.79 -110.865)" fill="#3f3d56"/>
      <circle id="Ellipse_6" data-name="Ellipse 6" cx="3.486" cy="3.486" r="3.486" transform="translate(251.678 118.697)" fill="#ff6584"/>
      <circle id="Ellipse_7" data-name="Ellipse 7" cx="3.486" cy="3.486" r="3.486" transform="translate(273.826 213.151)" fill="#f2f2f2"/>
      <circle id="Ellipse_8" data-name="Ellipse 8" cx="6.796" cy="6.796" r="6.796" transform="translate(151.634 227.754)" fill="#f2f2f2"/>
      <circle id="Ellipse_9" data-name="Ellipse 9" cx="3.486" cy="3.486" r="3.486" transform="translate(103.158 144.428)" fill="#3f3d56"/>
      <path id="Path_110" data-name="Path 110" d="M687.226,478.768l15.04,3.893,9.224,18.118-15.595.612Z" transform="translate(-463.394 -322.832)" fill="#e6e6e6"/>
      <path id="Path_111" data-name="Path 111" d="M580.645,398.574l8.277,8.282,21.023,45.453-3.871,3.344Z" transform="translate(-391.527 -268.757)" fill="#ccc"/>
      <path id="Path_112" data-name="Path 112" d="M525.386,421.624l.649,11.691L545.879,479.3l5.073-.653Z" transform="translate(-354.266 -284.3)" fill="#ccc"/>
      <path id="Path_113" data-name="Path 113" d="M506.954,566.637l-8.1,13.257,5.971,19.434,11.632-10.405Z" transform="translate(-336.376 -382.082)" fill="#e6e6e6"/>
      <path id="Path_114" data-name="Path 114" d="M407.611,458.428q-6.308,0-13.828-.477c-25.93-1.647-59.518-7.372-94.576-16.12s-67.4-19.475-91.062-30.2c-11.527-5.227-20.375-10.174-26.3-14.7-6.269-4.8-9.011-8.978-8.15-12.426,1.677-6.719,16.523-8.189,28.683-8.239l0,.977c-16.7.069-26.549,2.732-27.739,7.5-1.515,6.071,10.842,15.549,33.9,26,23.612,10.705,55.892,21.411,90.895,30.146s68.528,14.449,94.4,16.092c25.268,1.6,40.629-.957,42.144-7.028,1.258-5.041-7.035-12.466-23.349-20.91l.449-.868c11.855,6.135,25.615,14.934,23.849,22.014-.861,3.449-5.246,5.851-13.033,7.14A102.062,102.062,0,0,1,407.611,458.428Z" transform="translate(-165.482 -265.727)" fill="#3f3d56"/>
    </g>
  </g>
</svg>
