<svg xmlns="http://www.w3.org/2000/svg" width="258.862" height="237" viewBox="0 0 258.862 237">
  <g id="Group_45" data-name="Group 45" transform="translate(-377 -120)">
    <g id="contactMe" transform="translate(377.001 120)">
      <path id="Path_78" data-name="Path 78" d="M716.8,651.269l2.487,5.578a3.578,3.578,0,0,0-3.945,3.623,5.018,5.018,0,0,0,3.783,4.84c-.386,1.722-2.054,2.481-3.5,3.177s-3.008,1.85-2.9,3.685a4.111,4.111,0,0,0,2.6,3.3,8.761,8.761,0,0,0,3.961.355c-1.985,2.077-2.179,5.98-.435,8.781s5.226,4.179,7.833,3.1c-1.842,2.292-1.442,6.488.844,8.853,2.3,2.384,5.645,2.615,8.565,2.364a37.933,37.933,0,0,0,20.368-8.072,18.742,18.742,0,0,0,5.591-6.581,12.043,12.043,0,0,0,.462-9.263c.32,3.879,4.2,6.943,7.7,7.114s6.542-1.8,9.134-4.039c3.446-2.983,6.637-7.165,6.164-12.325a23.337,23.337,0,0,0-2.444-7.391l-2.121-4.613a23.9,23.9,0,0,0-3.021-5.319,6.75,6.75,0,0,0-4.869-2.761,14.991,14.991,0,0,0,.478-5.8c-.343-1.987-1.657-4.045-3.443-4.51-2.274-.592-4.2,1.506-6.487,1.308-2.2-.19-4.019-2.4-6.156-3.274a4.928,4.928,0,0,0-5.317.92,6.126,6.126,0,0,0-1.433,5.67c.426,1.852,1.559,3.485,2.247,5.271s.795,4.082-.526,5.058c-1.594,1.177-4.02-.425-5.265-2.362s-1.96-4.284-3.535-5.913A5.312,5.312,0,0,0,736.932,641c-1.914,1.339-2.645,4.337-1.681,6.886.789,2.084,2.6,4.192,1.969,6.154-.662,2.074-3.561,1.811-5.309.346s-2.909-3.673-4.636-5.172a7.182,7.182,0,0,0-6.055-1.763,6.233,6.233,0,0,0-4.467,3.992" transform="translate(-550.959 -462)" fill="#e6e6e6"/>
      <path id="Path_79" data-name="Path 79" d="M841.76,620.059l-5.161,2.4a3.963,3.963,0,0,1-2.505.338,1.708,1.708,0,0,1-1.389-1.257l-1.2-5.609c-.227-1.058.65-2.31,2.084-2.976l2.85-1.324c1.434-.666,2.956-.529,3.618.327l3.512,4.535a1.708,1.708,0,0,1,.065,1.872A3.962,3.962,0,0,1,841.76,620.059Z" transform="translate(-635.641 -446.465)" fill="#3f3d56"/>
      <path id="Path_80" data-name="Path 80" d="M293.746,106.821a101.545,101.545,0,0,1,22.232-35.586c8.321-8.638,21.27-8.279,21.27-8.279l.074-.092a25.123,25.123,0,0,1,26.549-8.294,5.6,5.6,0,0,0,2.636.354c8.235-2.882,7.848-9.387,14.953-14.627,12.44-9.176,53.7,1.335,59.52,18.219C445.7,72.2,466.745,78.832,474.609,89.3q1.845,2.455,3.62,4.967.832,1.167,1.646,2.352a209.523,209.523,0,0,1,14.959,25.288A147.481,147.481,0,0,1,502.32,139.6c8.2,23.976,5.4,41.839-17.217,37.426q-4.015-.786-7.838-1.406-5.535-.9-10.684-1.485-6.934-.789-13.193-1.033-2.1-.085-4.132-.114c-19.985-.277-34.809,3.484-46.1,9.323q-2.872,1.481-5.443,3.133a67.711,67.711,0,0,0-7.481,5.542,73.117,73.117,0,0,0-9.014,9.236l-.15.183c-13.209,16.157-17.556,34.044-26.745,37.194-39.278,13.465-64.119-35.346-66.667-83.094q-.193-3.609-.213-7.2-.012-1.6.016-3.2c.04-2.775.163-5.532.367-8.256q.115-1.562.266-3.108c.111-1.111.232-2.216.372-3.313A102.735,102.735,0,0,1,293.746,106.821Z" transform="translate(-247.667 -36.897)" fill="#3f3d56"/>
      <path id="Path_81" data-name="Path 81" d="M726.949,371.491c-3.137,1.46-3.188,8-2.2,10.121l1.782,3.836,11.362-5.279-1.782-3.836C735.121,374.215,730.088,370.036,726.949,371.491Z" transform="translate(-559.128 -275.297)" fill="#7289da"/>
      <path id="Path_82" data-name="Path 82" d="M624.3,490.3a1.243,1.243,0,0,1-.524-2.369l58.677-27.262a1.242,1.242,0,1,1,1.047,2.253h0l-58.677,27.262A1.235,1.235,0,0,1,624.3,490.3Z" transform="translate(-487.015 -339.026)" fill="#3f3d56"/>
      <rect id="Rectangle_138" data-name="Rectangle 138" width="18.495" height="62.442" transform="translate(166.415 115.112) rotate(-24.92)" fill="#e6e6e6"/>
      <path id="Path_83" data-name="Path 83" d="M561.02,161.765c-3.137,1.46-3.188,8-2.2,10.121l1.782,3.836,11.362-5.279-1.783-3.836C569.192,164.489,564.159,160.31,561.02,161.765Z" transform="translate(-440.797 -125.731)" fill="#7289da"/>
      <path id="Path_84" data-name="Path 84" d="M787.333,642.754l-5.161,2.4a3.963,3.963,0,0,1-2.505.338,1.708,1.708,0,0,1-1.389-1.257l-1.2-5.609c-.227-1.058.65-2.31,2.084-2.976l2.85-1.324c1.434-.666,2.956-.529,3.618.327l3.512,4.535a1.708,1.708,0,0,1,.065,1.872A3.962,3.962,0,0,1,787.333,642.754Z" transform="translate(-596.826 -462.65)" fill="#3f3d56"/>
      <path id="Path_85" data-name="Path 85" d="M732.014,670.2l-5.161,2.4a3.963,3.963,0,0,1-2.505.338,1.708,1.708,0,0,1-1.389-1.257l-1.2-5.609c-.227-1.058.65-2.31,2.084-2.976l2.85-1.324c1.434-.666,2.956-.529,3.618.327l3.512,4.535a1.708,1.708,0,0,1,.065,1.872A3.962,3.962,0,0,1,732.014,670.2Z" transform="translate(-557.376 -482.222)" fill="#3f3d56"/>
      <rect id="Rectangle_139" data-name="Rectangle 139" width="18.495" height="126.22" transform="translate(123.293 64.584) rotate(-24.92)" fill="#e6e6e6"/>
      <path id="Path_86" data-name="Path 86" d="M544.272,392.153l-1.882-4.141,1.083-.5,1.876,4.128,27.169,60.241-1.082.5" transform="translate(-386.805 -276.353)" fill="#3f3d56"/>
      <path id="Path_87" data-name="Path 87" d="M618.272,380.153l-1.882-4.141,1.083-.5,1.876,4.128,27.169,60.241-1.082.5" transform="translate(-439.577 -267.795)" fill="#3f3d56"/>
      <path id="Path_88" data-name="Path 88" d="M594.338,224.043,571.612,234.6c-1.447-2.251-5.809-13.786-4.829-17.209l-.735-3.264,15.692-7.291,2.1,2.584C586.957,210.379,593.027,221.213,594.338,224.043Z" transform="translate(-446.357 -158.09)" fill="#e6e6e6"/>
      <path id="Path_89" data-name="Path 89" d="M577.032,187.376,560.839,194.9c-.6.278-1.234.176-1.422-.228a.56.56,0,0,1-.049-.184l-.838-8.941a1.2,1.2,0,0,1,.792-1.049l10.739-4.989a1.2,1.2,0,0,1,1.313.071l6.292,6.406c.322.328.147.889-.39,1.253A1.744,1.744,0,0,1,577.032,187.376Z" transform="translate(-440.993 -138.488)" fill="#e6e6e6"/>
      <path id="Path_90" data-name="Path 90" d="M638.291,372.629a2.188,2.188,0,0,1-.52-.061,1.608,1.608,0,0,1-1.118-.868l-9.9-21.308a2,2,0,0,1,1.226-2.515l14.5-6.735a2,2,0,0,1,2.713.685l9.9,21.308a1.607,1.607,0,0,1-.058,1.414,2.44,2.44,0,0,1-1.169,1.1l-14.5,6.735A2.559,2.559,0,0,1,638.291,372.629Z" transform="translate(-489.552 -253.695)" fill="#7289da"/>
      <rect id="Rectangle_140" data-name="Rectangle 140" width="18.495" height="62.442" transform="translate(133.95 129.952) rotate(-24.92)" fill="#e6e6e6"/>
      <path id="Path_91" data-name="Path 91" d="M582.024,198.142l-4.919,2.285c-.949.441-2.23-.294-2.854-1.638s-.36-2.8.589-3.238l4.919-2.285c.949-.441,2.23.294,2.854,1.638S582.973,197.7,582.024,198.142Z" transform="translate(-451.966 -148.32)" fill="#3f3d56"/>
      <path id="Path_92" data-name="Path 92" d="M614.914,422.7c-3.137,1.46-3.188,8-2.2,10.121l1.782,3.836,11.362-5.279-1.782-3.837C623.086,425.419,618.053,421.24,614.914,422.7Z" transform="translate(-479.231 -311.813)" fill="#7289da"/>
      <path id="Path_93" data-name="Path 93" d="M436.224,373.2a1.026,1.026,0,0,1-1.113-1.724A1.026,1.026,0,0,1,436.224,373.2Z" transform="translate(-352.647 -275.372)" fill="#e6e6e6"/>
      <path id="Path_94" data-name="Path 94" d="M838.224,285.2a1.026,1.026,0,0,1-1.113-1.724A1.026,1.026,0,0,1,838.224,285.2Z" transform="translate(-639.332 -212.616)" fill="#e6e6e6"/>
      <path id="Path_95" data-name="Path 95" d="M564.224,355.2a1.026,1.026,0,0,1-1.113-1.724A1.026,1.026,0,0,1,564.224,355.2Z" transform="translate(-443.93 -262.536)" fill="#e6e6e6"/>
      <path id="Path_96" data-name="Path 96" d="M436.224,595.2a1.026,1.026,0,0,1-1.113-1.724A1.026,1.026,0,0,1,436.224,595.2Z" transform="translate(-352.647 -433.691)" fill="#e6e6e6"/>
      <path id="Path_97" data-name="Path 97" d="M633.224,94.2a1.026,1.026,0,0,1-1.113-1.724A1.026,1.026,0,0,1,633.224,94.2Z" transform="translate(-493.137 -76.404)" fill="#e6e6e6"/>
      <path id="Path_98" data-name="Path 98" d="M443.224,212.2a1.026,1.026,0,0,1-1.113-1.724A1.026,1.026,0,0,1,443.224,212.2Z" transform="translate(-357.639 -160.556)" fill="#e6e6e6"/>
      <path id="Path_99" data-name="Path 99" d="M566.71,143.807l-.7-.155.154-.705-.47-.1-.155.705-.7-.154-.1.47.7.155-.154.7.47.1.155-.705.7.155Z" transform="translate(-402.734 -101.869)" fill="#e6e6e6"/>
      <path id="Path_100" data-name="Path 100" d="M166.612,348.585l-.7-.155.154-.7-.47-.1-.155.7-.705-.154-.1.47.705.155-.154.705.47.1.155-.7.7.154Z" transform="translate(-117.405 -247.906)" fill="#e6e6e6"/>
      <path id="Path_101" data-name="Path 101" d="M808.391,465.25a2.441,2.441,0,0,1-3.239-1.184l-2.9-6.244a2.438,2.438,0,1,1,4.422-2.055l2.9,6.243A2.441,2.441,0,0,1,808.391,465.25Z" transform="translate(-614.643 -334.607)" fill="#3f3d56"/>
      <path id="Path_102" data-name="Path 102" d="M636.391,545.25a2.441,2.441,0,0,1-3.239-1.184l-2.9-6.243a2.438,2.438,0,0,1,4.422-2.055l2.9,6.244A2.441,2.441,0,0,1,636.391,545.25Z" transform="translate(-491.982 -391.659)" fill="#3f3d56"/>
      <path id="Path_103" data-name="Path 103" d="M749.709,408.317l-19.45,9.037c-1.238-1.927-4.971-11.8-4.133-14.728l.411-3.277,11.614-5.7,2.573,2.153C744.35,394.578,749.68,403.563,749.709,408.317Z" transform="translate(-560.43 -291.315)" fill="#e6e6e6"/>
      <path id="Path_104" data-name="Path 104" d="M755.541,426.325l-4.919,2.285c-.949.441-2.393-.646-3.219-2.423s-.725-3.582.224-4.023l4.919-2.285c.949-.441,2.393.646,3.219,2.423S756.49,425.884,755.541,426.325Z" transform="translate(-575.292 -309.949)" fill="#3f3d56"/>
      <path id="Path_105" data-name="Path 105" d="M478.272,435.153l-1.882-4.141,1.083-.5,1.876,4.128,27.169,60.241-1.082.5" transform="translate(-339.737 -307.018)" fill="#3f3d56"/>
      <path id="Path_106" data-name="Path 106" d="M635.3,459.52l-19.45,9.037c-2.869-1.482-7.255-11.176-4.133-14.728l.411-3.277,11.614-5.7,2.573,2.153C628.986,447.826,634.181,457.1,635.3,459.52Z" transform="translate(-478.161 -327.831)" fill="#e6e6e6"/>
      <path id="Path_107" data-name="Path 107" d="M642.922,476.63,638,478.915c-.949.441-2.3-.453-3.019-1.992s-.525-3.151.424-3.592l4.919-2.285c.949-.441,2.3.453,3.019,1.992S643.871,476.189,642.922,476.63Z" transform="translate(-495.21 -346.428)" fill="#3f3d56"/>
      <circle id="Ellipse_5" data-name="Ellipse 5" cx="29.546" cy="29.546" r="29.546" transform="translate(19.589 29.214)" fill="#ff6584"/>
      <path id="Path_108" data-name="Path 108" d="M737.487,218.651l17.955-52.439-19.716,51.811a.987.987,0,1,0,1.761.628Z" transform="translate(-567.211 -129.118)" fill="#f0f0f0" opacity="0.3"/>
      <path id="Path_109" data-name="Path 109" d="M364.836,173.4q-5.272,1.752-11.69,3.442c-22.129,5.826-51.791,10.371-83.522,12.8s-61.738,2.444-84.5.05c-11.086-1.166-19.855-2.844-26.062-4.986-6.572-2.268-10.025-5-10.263-8.122-.465-6.081,11.535-11.434,21.684-14.853l.275.815c-13.937,4.7-21.43,9.657-21.1,13.972.42,5.495,13.38,9.984,35.557,12.317,22.708,2.389,52.661,2.37,84.341-.052s61.288-6.958,83.368-12.772c21.564-5.677,33.691-12.085,33.271-17.58-.349-4.562-9.342-8.465-25.323-10.99l.134-.85c11.612,1.835,25.556,5.367,26.047,11.774.239,3.122-2.759,6.347-8.909,9.588A89.9,89.9,0,0,1,364.836,173.4Z" transform="translate(-148.791 -115.126)" fill="#3f3d56"/>
      <circle id="Ellipse_6" data-name="Ellipse 6" cx="3.07" cy="3.07" r="3.07" transform="translate(221.657 104.539)" fill="#ff6584"/>
      <circle id="Ellipse_7" data-name="Ellipse 7" cx="3.07" cy="3.07" r="3.07" transform="translate(241.163 187.726)" fill="#f2f2f2"/>
      <circle id="Ellipse_8" data-name="Ellipse 8" cx="5.986" cy="5.986" r="5.986" transform="translate(133.546 200.588)" fill="#f2f2f2"/>
      <circle id="Ellipse_9" data-name="Ellipse 9" cx="3.07" cy="3.07" r="3.07" transform="translate(90.852 127.2)" fill="#3f3d56"/>
      <path id="Path_110" data-name="Path 110" d="M687.226,478.768l13.246,3.429,8.124,15.957-13.734.539Z" transform="translate(-490.094 -341.432)" fill="#e6e6e6"/>
      <path id="Path_111" data-name="Path 111" d="M580.645,398.574l7.29,7.294L606.451,445.9l-3.409,2.945Z" transform="translate(-414.086 -284.242)" fill="#ccc"/>
      <path id="Path_112" data-name="Path 112" d="M525.386,421.624l.572,10.3,17.476,40.5,4.468-.575Z" transform="translate(-374.678 -300.68)" fill="#ccc"/>
      <path id="Path_113" data-name="Path 113" d="M505.988,566.637l-7.134,11.675,5.259,17.116,10.244-9.164Z" transform="translate(-355.757 -404.096)" fill="#e6e6e6"/>
      <path id="Path_114" data-name="Path 114" d="M379.692,448.627q-5.556,0-12.179-.42c-22.837-1.45-52.419-6.492-83.3-14.2s-59.358-17.152-80.2-26.6c-10.152-4.6-17.944-8.96-23.159-12.951-5.521-4.224-7.936-7.907-7.178-10.944,1.477-5.917,14.552-7.212,25.261-7.256l0,.861c-14.706.06-23.382,2.406-24.43,6.6-1.334,5.347,9.548,13.695,29.858,22.9,20.8,9.428,49.225,18.858,80.053,26.55s60.354,12.726,83.141,14.173c22.254,1.414,35.783-.843,37.117-6.19,1.108-4.44-6.2-10.979-20.564-18.415l.4-.764c10.441,5.4,22.56,13.153,21,19.388-.758,3.037-4.62,5.153-11.479,6.289A89.888,89.888,0,0,1,379.692,448.627Z" transform="translate(-166.445 -278.911)" fill="#3f3d56"/>
    </g>
  </g>
</svg>
