<svg xmlns="http://www.w3.org/2000/svg" width="28" height="28" viewBox="0 0 28 28">
  <g id="Group_28" data-name="Group 28" transform="translate(-141 -255)">
    <g id="Group_26" data-name="Group 26" transform="translate(141 255)">
      <g id="Group_27" data-name="Group 27">
        <g id="twitter" transform="translate(0 0)">
          <path id="Path_119" data-name="Path 119" d="M14,0A14,14,0,1,1,0,14,14,14,0,0,1,14,0Z" fill="#fff"/>
          <g id="Group_25" data-name="Group 25" transform="translate(6.29 8.482)">
            <path id="Path_117" data-name="Path 117" d="M41.064,35.564a6.533,6.533,0,0,1-1.881.515,3.284,3.284,0,0,0,1.44-1.811,6.555,6.555,0,0,1-2.079.794,3.277,3.277,0,0,0-5.58,2.987,9.3,9.3,0,0,1-6.75-3.422A3.278,3.278,0,0,0,27.227,39a3.252,3.252,0,0,1-1.483-.41c0,.014,0,.028,0,.042a3.277,3.277,0,0,0,2.627,3.211,3.287,3.287,0,0,1-1.479.057,3.278,3.278,0,0,0,3.059,2.274A6.61,6.61,0,0,1,25.1,45.528a9.312,9.312,0,0,0,14.336-7.846c0-.142,0-.283-.01-.423a6.64,6.64,0,0,0,1.634-1.695Z" transform="translate(-25.103 -34.028)" fill="#55acee"/>
          </g>
        </g>
      </g>
    </g>
  </g>
</svg>
