<svg xmlns="http://www.w3.org/2000/svg" width="351" height="258.375" viewBox="0 0 351 258.375">
  <g id="undraw_stars" transform="translate(0)">
    <path id="Path_138" data-name="Path 138" d="M534.441,304.1c-1.53,17.666-9.231,34.738-20.217,48.856q-.689.886-1.394,1.755-1.587,1.956-3.256,3.838-2.042,2.319-4.2,4.531-1.759,1.821-3.6,3.564-1.421,1.359-2.875,2.666c-11.658,10.535-25.052,19.228-38.851,26.831-26.93,14.832-56.447,26.068-87.149,27.7s-62.746-7.16-85.259-28.1c-30.341-28.217-38.81-75.282-26.491-114.842,8.193-26.319,24.916-50.128,47.675-65.678,22.562-15.415,51.026-22.353,77.964-17.818,21.5-13.069,49.656-13.319,73.034-3.646a110.619,110.619,0,0,1,33.491,22.115,139.153,139.153,0,0,1,12.6,13.627q.6.732,1.181,1.476,2.448,3.094,4.736,6.315,3.285,4.619,6.237,9.444c.541.886,1.078,1.776,1.6,2.674.353.6.709,1.21,1.058,1.821a.122.122,0,0,1,.016.041c5.458,9.6,9.92,19.844,12.245,30.551.41,1.895.755,3.8,1.021,5.716v0q.351,2.442.529,4.909a72.575,72.575,0,0,1-.094,11.642Z" transform="translate(-221.388 -165.658)" fill="#3f3d56"/>
    <path id="Path_139" data-name="Path 139" d="M652.493,464.723l-60.881-50.717,59.144,52.749a1.411,1.411,0,1,0,1.736-2.031Z" transform="translate(-419.552 -299.579)" fill="#f0f0f0" opacity="0.3"/>
    <circle id="Ellipse_41" data-name="Ellipse 41" cx="36.497" cy="36.497" r="36.497" transform="translate(56.829 66.342)" fill="#f2f2f2"/>
    <path id="Path_140" data-name="Path 140" d="M382.972,331.894a33.239,33.239,0,1,1-29.361-33.036,33.214,33.214,0,0,1,29.361,33.036Z" transform="translate(-257.25 -231.515)" fill="#fff"/>
    <circle id="Ellipse_42" data-name="Ellipse 42" cx="10.252" cy="10.252" r="10.252" transform="translate(76.513 79.055)" fill="#e4e4e4"/>
    <path id="Path_141" data-name="Path 141" d="M454.309,333.044A10.252,10.252,0,0,1,442.991,316.2a33.238,33.238,0,0,1,11.318,16.846Z" transform="translate(-329.883 -241.88)" fill="#f2f2f2"/>
    <circle id="Ellipse_43" data-name="Ellipse 43" cx="3.691" cy="3.691" r="3.691" transform="translate(99.887 107.76)" fill="#e4e4e4"/>
    <path id="Path_142" data-name="Path 142" d="M377.111,452.438a3.709,3.709,0,0,1-.127.96,32.614,32.614,0,0,1-7.172-1.739,3.691,3.691,0,0,1,7.3.779Z" transform="translate(-288.706 -320.074)" fill="#f2f2f2"/>
    <path id="Path_143" data-name="Path 143" d="M323.994,365.277a7.382,7.382,0,0,1-6.889,7.365A33.442,33.442,0,0,1,317.827,358,7.382,7.382,0,0,1,323.994,365.277Z" transform="translate(-257.323 -266.538)" fill="#f2f2f2"/>
    <circle id="Ellipse_44" data-name="Ellipse 44" cx="1.518" cy="1.518" r="1.518" transform="translate(247.175 83.976)" fill="#0067ff"/>
    <circle id="Ellipse_45" data-name="Ellipse 45" cx="0.887" cy="0.887" r="0.887" transform="translate(233.8 48.301)" fill="#f0f0f0"/>
    <circle id="Ellipse_46" data-name="Ellipse 46" cx="0.887" cy="0.887" r="0.887" transform="translate(91.504 222.173)" fill="#f0f0f0"/>
    <circle id="Ellipse_47" data-name="Ellipse 47" cx="0.887" cy="0.887" r="0.887" transform="translate(238.836 135.092)" fill="#f0f0f0"/>
    <circle id="Ellipse_48" data-name="Ellipse 48" cx="1.518" cy="1.518" r="1.518" transform="translate(123.742 142.206)" fill="#0067ff"/>
    <circle id="Ellipse_49" data-name="Ellipse 49" cx="7.169" cy="7.169" r="7.169" transform="translate(63.141 163.62)" fill="#0067ff"/>
    <circle id="Ellipse_50" data-name="Ellipse 50" cx="0.887" cy="0.887" r="0.887" transform="translate(108.727 177.885)" fill="#f0f0f0"/>
    <circle id="Ellipse_51" data-name="Ellipse 51" cx="0.887" cy="0.887" r="0.887" transform="translate(198.944 39.279)" fill="#f0f0f0"/>
    <circle id="Ellipse_52" data-name="Ellipse 52" cx="0.887" cy="0.887" r="0.887" transform="translate(146.044 228.324)" fill="#f0f0f0"/>
    <circle id="Ellipse_53" data-name="Ellipse 53" cx="0.887" cy="0.887" r="0.887" transform="translate(132.922 47.481)" fill="#f0f0f0"/>
    <circle id="Ellipse_54" data-name="Ellipse 54" cx="0.887" cy="0.887" r="0.887" transform="translate(155.886 90.539)" fill="#f0f0f0"/>
    <circle id="Ellipse_55" data-name="Ellipse 55" cx="0.887" cy="0.887" r="0.887" transform="translate(120.734 196.193)" fill="#f0f0f0"/>
    <circle id="Ellipse_56" data-name="Ellipse 56" cx="0.887" cy="0.887" r="0.887" transform="translate(224.483 201.934)" fill="#f0f0f0"/>
    <circle id="Ellipse_57" data-name="Ellipse 57" cx="0.887" cy="0.887" r="0.887" transform="translate(178.554 150.264)" fill="#f0f0f0"/>
    <circle id="Ellipse_58" data-name="Ellipse 58" cx="0.887" cy="0.887" r="0.887" transform="translate(201.929 90.393)" fill="#f0f0f0"/>
    <circle id="Ellipse_59" data-name="Ellipse 59" cx="1.759" cy="1.759" r="1.759" transform="translate(243.554 118.252)" fill="#ff6584"/>
    <circle id="Ellipse_60" data-name="Ellipse 60" cx="1.759" cy="1.759" r="1.759" transform="translate(172.2 60.021)" fill="#ff6584"/>
    <circle id="Ellipse_61" data-name="Ellipse 61" cx="1.759" cy="1.759" r="1.759" transform="translate(172.2 180.993)" fill="#ff6584"/>
    <path id="Path_144" data-name="Path 144" d="M858.915,605.338a3.155,3.155,0,0,0-3.03,2.288,3.028,3.028,0,0,0-.123.869v4.937q1.839-1.741,3.6-3.563,2.159-2.214,4.2-4.531Z" transform="translate(-575.38 -412.45)" fill="#0067ff"/>
    <path id="Path_145" data-name="Path 145" d="M466.732,519.068q-7.942,0-17.41-.6c-32.648-2.073-74.936-9.281-119.076-20.3s-84.857-24.52-114.651-38.028c-14.514-6.581-25.653-12.809-33.108-18.514-7.893-6.039-11.345-11.3-10.262-15.646,2.111-8.459,20.8-10.31,36.113-10.373l.005,1.23c-21.024.086-33.427,3.439-34.924,9.441-1.908,7.644,13.65,19.577,42.684,32.741,29.729,13.479,70.371,26.958,114.441,37.955s86.28,18.192,118.856,20.261c31.813,2.021,51.154-1.2,53.062-8.849,1.584-6.347-8.857-15.7-29.4-26.326l.565-1.092c14.926,7.724,32.251,18.8,30.026,27.717-1.084,4.342-6.6,7.367-16.409,8.99A128.522,128.522,0,0,1,466.732,519.068Z" transform="translate(-172.03 -300.526)" fill="#0067ff"/>
    <circle id="Ellipse_62" data-name="Ellipse 62" cx="41.213" cy="41.213" r="41.213" transform="translate(251.82 44.403)" fill="#fff"/>
    <path id="Path_146" data-name="Path 146" d="M826.44,241.748a41.678,41.678,0,1,0,29.621,12.207,41.828,41.828,0,0,0-29.621-12.207Zm0,82.425a40.441,40.441,0,1,1,28.753-11.845A40.6,40.6,0,0,1,826.44,324.173Z" transform="translate(-533.407 -197.959)" fill="#2f2e41"/>
    <path id="Path_147" data-name="Path 147" d="M796.183,317.437a.821.821,0,0,1-.8-.655,40.052,40.052,0,0,1,9.161-34.092.82.82,0,1,1,1.225,1.091,38.382,38.382,0,0,0-8.779,32.67.821.821,0,0,1-.8.986Z" transform="translate(-539.317 -221.95)" fill="#2f2e41"/>
    <circle id="Ellipse_63" data-name="Ellipse 63" cx="26.194" cy="26.194" r="26.194" transform="translate(266.813 71.516)" fill="#0067ff"/>
    <path id="Path_148" data-name="Path 148" d="M856.05,372.2c-1.7-.047-3.811-.106-5.439-1.3a4.177,4.177,0,0,1-1.644-3.119,2.81,2.81,0,0,1,.956-2.308,3.626,3.626,0,0,1,3.43-.494l-1.386-10.131,1.018-.139,1.63,11.911-.85-.39a3.11,3.11,0,0,0-3.178.028,1.805,1.805,0,0,0-.592,1.487,3.157,3.157,0,0,0,1.223,2.326c1.267.925,2.951,1.045,4.862,1.1Z" transform="translate(-571.368 -264.601)" fill="#2f2e41"/>
    <rect id="Rectangle_146" data-name="Rectangle 146" width="5.532" height="1.027" transform="translate(270.033 91.126)" fill="#2f2e41"/>
    <path id="Path_154" data-name="Path 154" d="M0,0H5.532V1.027H0Z" transform="translate(287.496 91.126)" fill="#2f2e41"/>
    <path id="Path_149" data-name="Path 149" d="M850.273,452.908H826.53a3.341,3.341,0,0,0-3.338,3.338v52.625a19.548,19.548,0,0,0,10.482,17.305q1.458-1.3,2.875-2.665,1.839-1.741,3.6-3.564,2.159-2.214,4.2-4.531,1.673-1.882,3.256-3.838.707-.867,1.394-1.755c10.986-14.119,18.687-31.19,20.217-48.856A26.265,26.265,0,0,0,850.273,452.908Z" transform="translate(-556.166 -322.528)" fill="#2f2e41"/>
    <path id="Path_150" data-name="Path 150" d="M829.653,477.227a5.991,5.991,0,0,0-4.277-1.71,5.932,5.932,0,0,0-3.756,1.378,5.377,5.377,0,0,0-.48.439l-19.433,19.93-14.094,14.455a2.787,2.787,0,0,0-.525.738,2.991,2.991,0,0,0-.316,1.361,2.939,2.939,0,0,0,.894,2.079l.554.541,4.019,3.916,0,0a2.99,2.99,0,0,0,1.911.668,2.939,2.939,0,0,0,2.079-.894l.652-.664,4.667-4.786.156-.16,28.053-28.771a6.025,6.025,0,0,0-.107-8.517Z" transform="translate(-534.681 -335.866)" fill="#0067ff"/>
    <path id="Path_151" data-name="Path 151" d="M860.148,310.973a4.093,4.093,0,0,0-1.543-4.958c-1.917-1.474-4.4-1.231-6.578-.533-2.388.764-4.721,2.139-7.3,2.06a4.564,4.564,0,0,1-4.2-2.984c-1.381-3.543.179-7.5,2.583-10.189a14.052,14.052,0,0,1,10.885-4.751,14.209,14.209,0,0,1,11.51,6.931.632.632,0,0,0,.842.221,15.124,15.124,0,0,1,11.644-.293,14.882,14.882,0,0,1,9.26,14.144.615.615,0,0,0,1.23,0,16.359,16.359,0,0,0-4.347-11.405,15.878,15.878,0,0,0-11.3-4.99,16.132,16.132,0,0,0-7.1,1.481l.842.221a15.459,15.459,0,0,0-10.292-7.27,14.962,14.962,0,0,0-12.066,3c-3.158,2.472-5.552,6.307-5.4,10.42a7.583,7.583,0,0,0,1.829,4.933,6.43,6.43,0,0,0,6.129,1.557c2.9-.578,5.551-2.487,8.575-2.428a4.188,4.188,0,0,1,3.134,1.413,2.607,2.607,0,0,1,.614,2.793c-.337.712.724,1.337,1.062.621Z" transform="translate(-565.373 -225.483)" fill="#2f2e41"/>
    <path id="Path_152" data-name="Path 152" d="M278.773,605.651c-14.6,0-28.17-.5-40.32-1.511-15.881-1.322-28.465-3.446-37.4-6.314-9.463-3.037-14.484-6.835-14.922-11.289-.854-8.676,16.13-16.7,30.528-21.9l.418,1.157c-19.773,7.145-30.328,14.47-29.722,20.626.772,7.84,19.434,13.853,51.2,16.5,32.529,2.707,75.338,1.748,120.541-2.7s87.377-11.854,118.754-20.851c30.643-8.786,47.776-18.322,47-26.162-.641-6.51-13.616-11.807-36.534-14.918l.165-1.219c16.653,2.26,36.693,6.874,37.593,16.017.438,4.454-3.745,9.158-12.435,13.981-8.208,4.556-20.136,9.093-35.455,13.484-31.447,9.017-73.7,16.436-118.973,20.893C330.815,604.231,303.346,605.651,278.773,605.651Z" transform="translate(-180.329 -372.172)" fill="#0067ff"/>
    <circle id="Ellipse_64" data-name="Ellipse 64" cx="7.169" cy="7.169" r="7.169" transform="translate(336.662 171.002)" fill="#0067ff"/>
    <circle id="Ellipse_65" data-name="Ellipse 65" cx="7.169" cy="7.169" r="7.169" transform="translate(128.753 0)" fill="#b9b9b9"/>
    <circle id="Ellipse_66" data-name="Ellipse 66" cx="7.169" cy="7.169" r="7.169" transform="translate(0.809 170.591)" fill="#b9b9b9"/>
    <circle id="Ellipse_67" data-name="Ellipse 67" cx="4.389" cy="4.389" r="4.389" transform="translate(47.878 40.097)" fill="#ff6584"/>
    <circle id="Ellipse_68" data-name="Ellipse 68" cx="4.389" cy="4.389" r="4.389" transform="translate(27.374 206.588)" fill="#ff6584"/>
    <circle id="Ellipse_69" data-name="Ellipse 69" cx="4.389" cy="4.389" r="4.389" transform="translate(326.73 134.825)" fill="#ff6584"/>
    <circle id="Ellipse_70" data-name="Ellipse 70" cx="7.169" cy="7.169" r="7.169" transform="translate(257.517 238.254)" fill="#e6e6e6"/>
  </g>
</svg>
